{
.appVersion = "1189";
DisplayStrings = (
"hno/kgreenlandic/Placeholder a"
);
copyright = "Copyright (c) 2010, Sebastian Kosch (sebastian@aldusleaf.org),\012with Reserved Font Name \"Crimson Text\".\012This Font Software is licensed under the SIL Open Font License, Version 1.1.\012This license is available with a FAQ at: http://scripts.sil.org/OFL";
customParameters = (
{
name = vendorID;
value = PfEd;
},
{
name = panose;
value = (
2,
0,
5,
3,
0,
0,
0,
0,
0,
0
);
},
{
name = unicodeRanges;
value = (
0,
1,
2,
3,
5,
6,
7,
31,
33,
37,
38,
46,
47,
60
);
},
{
name = codePageRanges;
value = (
1252,
1250,
1254,
1257
);
},
{
name = glyphOrder;
value = (
A,
Aogonek,
AE,
B,
C,
D,
Eth,
E,
Eogonek,
F,
G,
H,
Hbar,
I,
Iogonek,
I_J.loclNLD,
J,
K,
L,
Lcaron,
Ldot,
Lslash,
M,
N,
Eng,
O,
Oslash,
Ohorn,
Oogonek,
OE,
P,
Thorn,
Q,
R,
S,
Germandbls,
Schwa,
T,
Tbar,
U,
Uogonek,
Uhorn,
V,
W,
X,
Y,
Z,
a,
aogonek,
ae,
b,
c,
d,
dcaron,
dcroat,
eth,
e,
eogonek,
f,
g,
h,
hbar,
i,
idotless,
iogonek,
i_j.loclNLD,
j,
jdotless,
k,
kgreenlandic,
l,
ldot,
lcaron,
lslash,
m,
n,
eng,
o,
oogonek,
oslash,
ohorn,
oe,
p,
thorn,
q,
r,
s,
germandbls,
schwa,
t,
tbar,
tcaron,
u,
uogonek,
uhorn,
v,
w,
x,
y,
z,
a.sc,
aogonek.sc,
ae.sc,
b.sc,
c.sc,
d.sc,
eth.sc,
e.sc,
eogonek.sc,
f.sc,
g.sc,
h.sc,
hbar.sc,
i.sc,
iogonek.sc,
i_j.loclNLD.sc,
j.sc,
jdotless.sc,
k.sc,
l.sc,
ldot.sc,
lcaron.sc,
lslash.sc,
m.sc,
n.sc,
eng.sc,
o.sc,
oogonek.sc,
oslash.sc,
ohorn.sc,
oe.sc,
p.sc,
thorn.sc,
q.sc,
r.sc,
s.sc,
germandbls.sc,
schwa.sc,
t.sc,
tbar.sc,
u.sc,
uogonek.sc,
uhorn.sc,
v.sc,
w.sc,
x.sc,
y.sc,
z.sc
);
}
);
date = "2010-12-21 22:59:26 +0000";
disablesNiceNames = 1;
familyName = "Crimson Text";
features = (
{

glyphs = (
{
glyphname = A;
lastChange = "2018-12-17 16:21:40 +0000";
layers = (
{
background = {
paths = (
{
closed = 1;
nodes = (
"454 108 OFFCURVE",
"454 91 QCURVE SMOOTH",
"454 59 OFFCURVE",
"447 44 QCURVE",
"442 36 OFFCURVE",
"406 24 OFFCURVE",
"396 24 QCURVE SMOOTH",
"389 24 OFFCURVE",
"389 3 QCURVE SMOOTH",
"389 -2 OFFCURVE",
"390 -3 QCURVE",
"405 -2 OFFCURVE",
"445 0 OFFCURVE",
"478 2 OFFCURVE",
"497 2 QCURVE SMOOTH",
"508 2 OFFCURVE",
"601 -3 QCURVE",
"606 7 OFFCURVE",
"606 19 QCURVE SMOOTH",
"606 24 OFFCURVE",
"604 24 QCURVE SMOOTH",
"594 24 OFFCURVE",
"549 45 OFFCURVE",
"546 60 QCURVE SMOOTH",
"544 69 OFFCURVE",
"534 132 QCURVE SMOOTH",
"451 660 LINE",
"447 662 OFFCURVE",
"443 662 QCURVE SMOOTH",
"419 662 OFFCURVE",
"404 635 QCURVE SMOOTH",
"128 139 LINE SMOOTH",
"89 69 OFFCURVE",
"67 45 QCURVE SMOOTH",
"59 36 OFFCURVE",
"20 24 OFFCURVE",
"9 24 QCURVE SMOOTH",
"2 24 OFFCURVE",
"2 5 QCURVE SMOOTH",
"2 -1 OFFCURVE",
"4 -3 QCURVE",
"20 -2 OFFCURVE",
"54 0 OFFCURVE",
"83 2 OFFCURVE",
"102 2 QCURVE SMOOTH",
"104 2 OFFCURVE",
"197 -3 QCURVE",
"202 7 OFFCURVE",
"202 18 QCURVE SMOOTH",
"202 24 OFFCURVE",
"200 24 QCURVE SMOOTH",
"196 24 OFFCURVE",
"173 28 OFFCURVE",
"145 44 OFFCURVE",
"145 55 QCURVE SMOOTH",
"145 70 OFFCURVE",
"191 164 OFFCURVE",
"239 244 OFFCURVE",
"242 244 QCURVE",
"314 249 OFFCURVE",
"335 249 QCURVE SMOOTH",
"354 249 OFFCURVE",
"383 249 OFFCURVE",
"404 248 OFFCURVE",
"419 247 OFFCURVE",
"428 246 OFFCURVE",
"433 245 OFFCURVE",
"436 242 OFFCURVE",
"436 241 OFFCURVE",
"436 239 QCURVE"
);
},
{
closed = 1;
nodes = (
"295 298 OFFCURVE",
"272 299 QCURVE",
"271 299 OFFCURVE",
"271 303 OFFCURVE",
"394 526 QCURVE",
"397 505 OFFCURVE",
"414 393 OFFCURVE",
"427 309 OFFCURVE",
"427 304 QCURVE SMOOTH",
"427 300 OFFCURVE",
"423 300 QCURVE",
"394 298 OFFCURVE",
"348 298 QCURVE SMOOTH"
);
}
);
};
layerId = "02396921-8257-42A3-8ED5-3052446F9CE3";
paths = (
{
closed = 1;
nodes = (
"448 151.667 OFFCURVE",
"454 102.333 OFFCURVE",
"454 91 CURVE SMOOTH",
"454 69.667 OFFCURVE",
"451.667 54 OFFCURVE",
"447 44 CURVE",
"440.333 33.333 OFFCURVE",
"409.333 24 OFFCURVE",
"396 24 CURVE SMOOTH",
"391.333 24 OFFCURVE",
"389 17 OFFCURVE",
"389 3 CURVE SMOOTH",
"389 -0.333 OFFCURVE",
"389.333 -2.333 OFFCURVE",
"390 -3 CURVE",
"407.723 -1.818 OFFCURVE",
"476.59 2 OFFCURVE",
"497 2 CURVE SMOOTH",
"504.333 2 OFFCURVE",
"539 0.333 OFFCURVE",
"601 -3 CURVE",
"604.333 3.667 OFFCURVE",
"606 11 OFFCURVE",
"606 19 CURVE SMOOTH",
"606 22.333 OFFCURVE",
"605.333 24 OFFCURVE",
"604 24 CURVE SMOOTH",
"590.667 24 OFFCURVE",
"550 40 OFFCURVE",
"546 60 CURVE SMOOTH",
"544.667 66 OFFCURVE",
"540.667 90 OFFCURVE",
"534 132 CURVE SMOOTH",
"451 660 LINE",
"448.333 661.333 OFFCURVE",
"445.667 662 OFFCURVE",
"443 662 CURVE SMOOTH",
"427 662 OFFCURVE",
"414 653 OFFCURVE",
"404 635 CURVE SMOOTH",
"128 139 LINE SMOOTH",
"102 92.333 OFFCURVE",
"81.667 61 OFFCURVE",
"67 45 CURVE SMOOTH",
"56.333 33 OFFCURVE",
"23.667 24 OFFCURVE",
"9 24 CURVE SMOOTH",
"4.333 24 OFFCURVE",
"2 17.667 OFFCURVE",
"2 5 CURVE SMOOTH",
"2 1 OFFCURVE",
"2.667 -1.667 OFFCURVE",
"4 -3 CURVE",
"20.245 -1.985 OFFCURVE",
"83.429 2 OFFCURVE",
"102 2 CURVE SMOOTH",
"103.333 2 OFFCURVE",
"135 0.333 OFFCURVE",
"197 -3 CURVE",
"200.333 3.667 OFFCURVE",
"202 10.667 OFFCURVE",
"202 18 CURVE SMOOTH",
"202 22 OFFCURVE",
"201.333 24 OFFCURVE",
"200 24 CURVE SMOOTH",
"186.675 24 OFFCURVE",
"145 34.622 OFFCURVE",
"145 55 CURVE SMOOTH",
"145 69.642 OFFCURVE",
"227.6 244 OFFCURVE",
"242 244 CURVE",
"290 247.333 OFFCURVE",
"321 249 OFFCURVE",
"335 249 CURVE SMOOTH",
"366.848 249 OFFCURVE",
"413.258 247.638 OFFCURVE",
"423.5 246.5 CURVE SMOOTH",
"432.374 245.514 OFFCURVE",
"436 244.775 OFFCURVE",
"436 239 CURVE"
);
},
{
closed = 1;
nodes = (
"312.667 298 OFFCURVE",
"287.333 298.333 OFFCURVE",
"272 299 CURVE",
"271.333 299 OFFCURVE",
"271 299.667 OFFCURVE",
"271 301 CURVE SMOOTH",
"271 302.333 OFFCURVE",
"312 377.333 OFFCURVE",
"394 526 CURVE",
"400.404 481.174 OFFCURVE",
"427 351.774 OFFCURVE",
"427 304 CURVE SMOOTH",
"427 301.333 OFFCURVE",
"425.667 300 OFFCURVE",
"423 300 CURVE",
"403.667 298.667 OFFCURVE",
"378.667 298 OFFCURVE",
"348 298 CURVE SMOOTH"
);
}
);
width = 606;
}
);
note = A;
unicode = 0041;
},
{
glyphname = Aogonek;
lastChange = "2018-12-17 16:21:40 +0000";
layers = (
{
background = {
paths = (
{
closed = 1;
nodes = (
"290 298 OFFCURVE",
"267 299 QCURVE",
"266 299 OFFCURVE",
"266 303 OFFCURVE",
"389 526 QCURVE",
"392 505 OFFCURVE",
"409 393 OFFCURVE",
"422 309 OFFCURVE",
"422 304 QCURVE SMOOTH",
"422 300 OFFCURVE",
"418 300 QCURVE",
"389 298 OFFCURVE",
"343 298 QCURVE SMOOTH"
);
},
{
closed = 1;
nodes = (
"123 139 LINE SMOOTH",
"84 69 OFFCURVE",
"62 45 QCURVE SMOOTH",
"54 36 OFFCURVE",
"15 24 OFFCURVE",
"4 24 QCURVE SMOOTH",
"-3 24 OFFCURVE",
"-3 5 QCURVE SMOOTH",
"-3 -1 OFFCURVE",
"-1 -3 QCURVE",
"15 -2 OFFCURVE",
"49 0 OFFCURVE",
"78 2 OFFCURVE",
"97 2 QCURVE SMOOTH",
"100 2 OFFCURVE",
"192 -3 QCURVE",
"197 7 OFFCURVE",
"197 18 QCURVE SMOOTH",
"197 24 OFFCURVE",
"195 24 QCURVE SMOOTH",
"191 24 OFFCURVE",
"168 28 OFFCURVE",
"140 44 OFFCURVE",
"140 55 QCURVE SMOOTH",
"140 70 OFFCURVE",
"188 164 OFFCURVE",
"235 242 OFFCURVE",
"237 244 QCURVE",
"240 246 LINE",
"294 249 OFFCURVE",
"330 249 QCURVE SMOOTH",
"423 249 OFFCURVE",
"428 244 QCURVE SMOOTH",
"431 241 OFFCURVE",
"431 239 QCURVE",
"454 72 OFFCURVE",
"454 63 QCURVE SMOOTH",
"454 43 OFFCURVE",
"433 16 OFFCURVE",
"401 -11 QCURVE SMOOTH",
"359 -46 OFFCURVE",
"293 -140 OFFCURVE",
"293 -178 QCURVE SMOOTH",
"293 -199 OFFCURVE",
"322 -230 OFFCURVE",
"344 -230 QCURVE SMOOTH",
"395 -230 OFFCURVE",
"455 -163 QCURVE",
"458 -160 OFFCURVE",
"466 -134 OFFCURVE",
"461 -133 QCURVE",
"460 -133 OFFCURVE",
"437 -152 OFFCURVE",
"399 -171 OFFCURVE",
"378 -171 QCURVE SMOOTH",
"347 -171 OFFCURVE",
"347 -139 QCURVE SMOOTH",
"347 -100 OFFCURVE",
"469 1 OFFCURVE",
"519 1 QCURVE SMOOTH",
"520 1 OFFCURVE",
"548 -1 OFFCURVE",
"585 -3 OFFCURVE",
"596 -3 QCURVE",
"601 7 OFFCURVE",
"601 19 QCURVE SMOOTH",
"601 24 OFFCURVE",
"599 24 QCURVE SMOOTH",
"589 24 OFFCURVE",
"544 45 OFFCURVE",
"541 60 QCURVE SMOOTH",
"539 69 OFFCURVE",
"529 132 QCURVE SMOOTH",
"446 660 LINE",
"442 662 OFFCURVE",
"438 662 QCURVE SMOOTH",
"414 662 OFFCURVE",
"399 635 QCURVE SMOOTH"
);
}
);
};
layerId = "02396921-8257-42A3-8ED5-3052446F9CE3";
paths = (
{
closed = 1;
nodes = (
"307.667 298 OFFCURVE",
"282.333 298.333 OFFCURVE",
"267 299 CURVE",
"266.333 299 OFFCURVE",
"266 299.667 OFFCURVE",
"266 301 CURVE SMOOTH",
"266 302.333 OFFCURVE",
"307 377.333 OFFCURVE",
"389 526 CURVE",
"395.404 481.174 OFFCURVE",
"422 351.774 OFFCURVE",
"422 304 CURVE SMOOTH",
"422 301.333 OFFCURVE",
"420.667 300 OFFCURVE",
"418 300 CURVE",
"398.667 298.667 OFFCURVE",
"373.667 298 OFFCURVE",
"343 298 CURVE SMOOTH"
);
},
{
closed = 1;
nodes = (
"123 139 LINE SMOOTH",
"97 92.333 OFFCURVE",
"76.667 61 OFFCURVE",
"62 45 CURVE SMOOTH",
"51.333 33 OFFCURVE",
"18.667 24 OFFCURVE",
"4 24 CURVE SMOOTH",
"-0.667 24 OFFCURVE",
"-3 17.667 OFFCURVE",
"-3 5 CURVE SMOOTH",
"-3 1 OFFCURVE",
"-2.333 -1.667 OFFCURVE",
"-1 -3 CURVE",
"15.245 -1.985 OFFCURVE",
"78.429 2 OFFCURVE",
"97 2 CURVE SMOOTH",
"99 2 OFFCURVE",
"130.667 0.333 OFFCURVE",
"192 -3 CURVE",
"195.333 3.667 OFFCURVE",
"197 10.667 OFFCURVE",
"197 18 CURVE SMOOTH",
"197 22 OFFCURVE",
"196.333 24 OFFCURVE",
"195 24 CURVE SMOOTH",
"181.675 24 OFFCURVE",
"140 34.622 OFFCURVE",
"140 55 CURVE SMOOTH",
"140 77.241 OFFCURVE",
"220.263 227.263 OFFCURVE",
"237 244 CURVE",
"240 246 LINE",
"276 248 OFFCURVE",
"306 249 OFFCURVE",
"330 249 CURVE SMOOTH",
"392 249 OFFCURVE",
"424.667 247.333 OFFCURVE",
"428 244 CURVE SMOOTH",
"430 242 OFFCURVE",
"431 240.333 OFFCURVE",
"431 239 CURVE",
"446.333 127.667 OFFCURVE",
"454 69 OFFCURVE",
"454 63 CURVE SMOOTH",
"454 36.333 OFFCURVE",
"443.667 25 OFFCURVE",
"401 -11 CURVE SMOOTH",
"345 -57.667 OFFCURVE",
"293 -127.333 OFFCURVE",
"293 -178 CURVE SMOOTH",
"293 -206 OFFCURVE",
"314.667 -230 OFFCURVE",
"344 -230 CURVE SMOOTH",
"378 -230 OFFCURVE",
"415 -207.667 OFFCURVE",
"455 -163 CURVE",
"459 -159 OFFCURVE",
"467.667 -134.333 OFFCURVE",
"461 -133 CURVE",
"454.42 -133 OFFCURVE",
"402.268 -171 OFFCURVE",
"378 -171 CURVE SMOOTH",
"357.333 -171 OFFCURVE",
"347 -160.333 OFFCURVE",
"347 -139 CURVE SMOOTH",
"347 -87 OFFCURVE",
"452.333 1 OFFCURVE",
"519 1 CURVE SMOOTH",
"528.038 1 OFFCURVE",
"575.581 -3 OFFCURVE",
"596 -3 CURVE",
"599.333 3.667 OFFCURVE",
"601 11 OFFCURVE",
"601 19 CURVE SMOOTH",
"601 22.333 OFFCURVE",
"600.333 24 OFFCURVE",
"599 24 CURVE SMOOTH",
"585.667 24 OFFCURVE",
"545 40 OFFCURVE",
"541 60 CURVE SMOOTH",
"539.667 66 OFFCURVE",
"535.667 90 OFFCURVE",
"529 132 CURVE SMOOTH",
"446 660 LINE",
"443.333 661.333 OFFCURVE",
"440.667 662 OFFCURVE",
"438 662 CURVE SMOOTH",
"422 662 OFFCURVE",
"409 653 OFFCURVE",
"399 635 CURVE SMOOTH"
);
}
);
width = 642;
}
);
note = Aogonek;
unicode = 0104;
},
{
glyphname = AE;
lastChange = "2018-12-17 16:21:40 +0000";
layers = (
{
background = {
paths = (
{
closed = 1;
nodes = (
"211 67 OFFCURVE",
"256 131 QCURVE SMOOTH",
"365 290 LINE",
"368 293 OFFCURVE",
"371 293 QCURVE",
"397 294 OFFCURVE",
"438 294 QCURVE SMOOTH",
"506 293 LINE SMOOTH",
"512 293 OFFCURVE",
"512 285 QCURVE",
"511 272 OFFCURVE",
"507 219 OFFCURVE",
"504 187 OFFCURVE",
"499 141 OFFCURVE",
"495 111 OFFCURVE",
"489 78 OFFCURVE",
"481 56 OFFCURVE",
"473 44 OFFCURVE",
"415 31 OFFCURVE",
"404 31 QCURVE SMOOTH",
"401 31 OFFCURVE",
"395 11 OFFCURVE",
"395 3 QCURVE SMOOTH",
"395 -2 OFFCURVE",
"396 -3 QCURVE",
"522 2 LINE",
"562 2 OFFCURVE",
"742 -4 OFFCURVE",
"795 -4 QCURVE",
"818 64 OFFCURVE",
"869 162 QCURVE",
"865 168 OFFCURVE",
"848 168 QCURVE SMOOTH",
"836 168 OFFCURVE",
"833 162 QCURVE SMOOTH",
"792 76 OFFCURVE",
"763 61 QCURVE SMOOTH",
"729 44 OFFCURVE",
"651 44 QCURVE SMOOTH",
"636 44 LINE SMOOTH",
"610 44 OFFCURVE",
"582 49 OFFCURVE",
"575 57 OFFCURVE",
"575 63 QCURVE SMOOTH",
"575 68 OFFCURVE",
"580 111 QCURVE SMOOTH",
"584 154 LINE",
"596 286 LINE SMOOTH",
"597 296 OFFCURVE",
"637 296 QCURVE SMOOTH",
"727 296 OFFCURVE",
"737 288 QCURVE SMOOTH",
"743 283 OFFCURVE",
"746 279 OFFCURVE",
"753 250 OFFCURVE",
"754 224 QCURVE",
"755 217 OFFCURVE",
"767 217 QCURVE SMOOTH",
"776 217 OFFCURVE",
"782 221 QCURVE",
"792 351 OFFCURVE",
"808 413 QCURVE",
"805 418 OFFCURVE",
"781 418 OFFCURVE",
"778 411 QCURVE",
"777 408 OFFCURVE",
"774 402 QCURVE",
"754 357 OFFCURVE",
"725 340 OFFCURVE",
"665 340 QCURVE SMOOTH",
"632 340 LINE SMOOTH",
"601 340 OFFCURVE",
"601 346 QCURVE SMOOTH",
"601 347 LINE",
"616 505 LINE SMOOTH",
"624 578 OFFCURVE",
"631 603 QCURVE SMOOTH",
"635 616 OFFCURVE",
"713 616 QCURVE SMOOTH",
"772 616 LINE SMOOTH",
"787 616 OFFCURVE",
"810 611 OFFCURVE",
"837 596 OFFCURVE",
"853 560 OFFCURVE",
"854 532 QCURVE",
"854 525 OFFCURVE",
"878 525 OFFCURVE",
"883 530 QCURVE",
"884 554 OFFCURVE",
"891 644 OFFCURVE",
"892 664 QCURVE",
"840 664 OFFCURVE",
"634 656 OFFCURVE",
"592 656 QCURVE SMOOTH",
"505 656 LINE",
"495 646 OFFCURVE",
"495 630 QCURVE SMOOTH",
"495 625 OFFCURVE",
"498 625 QCURVE SMOOTH",
"528 625 OFFCURVE",
"528 601 QCURVE SMOOTH",
"528 593 OFFCURVE",
"523 586 QCURVE SMOOTH",
"211 139 LINE SMOOTH",
"171 80 OFFCURVE",
"132 45 QCURVE",
"123 36 OFFCURVE",
"82 24 OFFCURVE",
"72 24 QCURVE SMOOTH",
"69 24 OFFCURVE",
"63 9 OFFCURVE",
"63 3 QCURVE SMOOTH",
"63 -2 OFFCURVE",
"64 -3 QCURVE",
"80 -2 OFFCURVE",
"113 0 OFFCURVE",
"141 2 OFFCURVE",
"160 2 QCURVE SMOOTH",
"162 2 OFFCURVE",
"254 -3 QCURVE",
"263 12 OFFCURVE",
"263 22 QCURVE SMOOTH",
"263 24 OFFCURVE",
"262 24 QCURVE SMOOTH",
"251 24 OFFCURVE",
"211 40 OFFCURVE",
"211 50 QCURVE SMOOTH"
);
},
{
closed = 1;
nodes = (
"519 346 LINE",
"513 341 LINE",
"493 339 OFFCURVE",
"454 339 QCURVE SMOOTH",
"420 339 OFFCURVE",
"401 340 QCURVE",
"400 340 OFFCURVE",
"399 343 OFFCURVE",
"400 344 QCURVE",
"540 547 LINE"
);
}
);
};
layerId = "02396921-8257-42A3-8ED5-3052446F9CE3";
paths = (
{
closed = 1;
nodes = (
"211 61.333 OFFCURVE",
"226 88.333 OFFCURVE",
"256 131 CURVE SMOOTH",
"365 290 LINE",
"367 292 OFFCURVE",
"369 293 OFFCURVE",
"371 293 CURVE",
"388.333 293.667 OFFCURVE",
"410.667 294 OFFCURVE",
"438 294 CURVE SMOOTH",
"506 293 LINE SMOOTH",
"510 293 OFFCURVE",
"512 290.333 OFFCURVE",
"512 285 CURVE",
"509.462 252.009 OFFCURVE",
"501.175 157.315 OFFCURVE",
"497 126 CURVE SMOOTH",
"484.677 33.577 OFFCURVE",
"482.123 45.719 OFFCURVE",
"404 31 CURVE",
"400 31 OFFCURVE",
"395 13.667 OFFCURVE",
"395 3 CURVE SMOOTH",
"395 -0.333 OFFCURVE",
"395.333 -2.333 OFFCURVE",
"396 -3 CURVE",
"522 2 LINE",
"548.667 2 OFFCURVE",
"592 1 OFFCURVE",
"652 -1 CURVE SMOOTH",
"712 -3 OFFCURVE",
"759.667 -4 OFFCURVE",
"795 -4 CURVE",
"810.333 41.333 OFFCURVE",
"835 96.667 OFFCURVE",
"869 162 CURVE",
"866.333 166 OFFCURVE",
"859.333 168 OFFCURVE",
"848 168 CURVE SMOOTH",
"840 168 OFFCURVE",
"835 166 OFFCURVE",
"833 162 CURVE SMOOTH",
"805.667 104.667 OFFCURVE",
"782.333 71 OFFCURVE",
"763 61 CURVE SMOOTH",
"740.333 49.667 OFFCURVE",
"703 44 OFFCURVE",
"651 44 CURVE SMOOTH",
"636 44 LINE SMOOTH",
"602.433 44 OFFCURVE",
"575 44.759 OFFCURVE",
"575 63 CURVE SMOOTH",
"575 66.333 OFFCURVE",
"576.667 82.333 OFFCURVE",
"580 111 CURVE SMOOTH",
"584 154 LINE",
"596 286 LINE SMOOTH",
"596.667 292.667 OFFCURVE",
"610.333 296 OFFCURVE",
"637 296 CURVE SMOOTH",
"697 296 OFFCURVE",
"730.333 293.333 OFFCURVE",
"737 288 CURVE SMOOTH",
"749.407 277.66 OFFCURVE",
"752.584 260.828 OFFCURVE",
"754 224 CURVE",
"754.667 219.333 OFFCURVE",
"759 217 OFFCURVE",
"767 217 CURVE SMOOTH",
"773 217 OFFCURVE",
"778 218.333 OFFCURVE",
"782 221 CURVE",
"788.667 307.667 OFFCURVE",
"797.333 371.667 OFFCURVE",
"808 413 CURVE",
"806 416.333 OFFCURVE",
"801 418 OFFCURVE",
"793 418 CURVE SMOOTH",
"785 418 OFFCURVE",
"780 415.667 OFFCURVE",
"778 411 CURVE",
"777.333 409 OFFCURVE",
"776 406 OFFCURVE",
"774 402 CURVE",
"747.333 342 OFFCURVE",
"745 340 OFFCURVE",
"665 340 CURVE SMOOTH",
"632 340 LINE SMOOTH",
"611.333 340 OFFCURVE",
"601 342 OFFCURVE",
"601 346 CURVE SMOOTH",
"601 347 LINE",
"616 505 LINE SMOOTH",
"621.333 553.667 OFFCURVE",
"626.333 586.333 OFFCURVE",
"631 603 CURVE SMOOTH",
"633.667 611.667 OFFCURVE",
"661 616 OFFCURVE",
"713 616 CURVE SMOOTH",
"772 616 LINE SMOOTH",
"817.527 616 OFFCURVE",
"851.606 599.029 OFFCURVE",
"854 532 CURVE",
"854 527.333 OFFCURVE",
"858 525 OFFCURVE",
"866 525 CURVE SMOOTH",
"874 525 OFFCURVE",
"879.667 526.667 OFFCURVE",
"883 530 CURVE",
"883.667 546 OFFCURVE",
"885.167 569 OFFCURVE",
"887.5 599 CURVE SMOOTH",
"889.833 629 OFFCURVE",
"891.333 650.667 OFFCURVE",
"892 664 CURVE",
"857.333 664 OFFCURVE",
"805.667 662.667 OFFCURVE",
"737 660 CURVE SMOOTH",
"668.333 657.333 OFFCURVE",
"620 656 OFFCURVE",
"592 656 CURVE SMOOTH",
"505 656 LINE",
"498.333 649.333 OFFCURVE",
"495 640.667 OFFCURVE",
"495 630 CURVE SMOOTH",
"495 626.667 OFFCURVE",
"496 625 OFFCURVE",
"498 625 CURVE SMOOTH",
"518 625 OFFCURVE",
"528 617 OFFCURVE",
"528 601 CURVE SMOOTH",
"528 595.667 OFFCURVE",
"526.333 590.667 OFFCURVE",
"523 586 CURVE SMOOTH",
"211 139 LINE SMOOTH",
"184.333 99.667 OFFCURVE",
"158 68.333 OFFCURVE",
"132 45 CURVE",
"120 33 OFFCURVE",
"85.333 24 OFFCURVE",
"72 24 CURVE SMOOTH",
"68 24 OFFCURVE",
"63 11 OFFCURVE",
"63 3 CURVE SMOOTH",
"63 -0.333 OFFCURVE",
"63.333 -2.333 OFFCURVE",
"64 -3 CURVE",
"79.906 -2.006 OFFCURVE",
"141.764 2 OFFCURVE",
"160 2 CURVE SMOOTH",
"161.333 2 OFFCURVE",
"192.667 0.333 OFFCURVE",
"254 -3 CURVE",
"260 7 OFFCURVE",
"263 15.333 OFFCURVE",
"263 22 CURVE SMOOTH",
"263 23.333 OFFCURVE",
"262.667 24 OFFCURVE",
"262 24 CURVE SMOOTH",
"247.333 24 OFFCURVE",
"211 36.667 OFFCURVE",
"211 50 CURVE SMOOTH"
);
},
{
closed = 1;
nodes = (
"519 346 LINE",
"513 341 LINE",
"499.667 339.667 OFFCURVE",
"480 339 OFFCURVE",
"454 339 CURVE SMOOTH",
"431.333 339 OFFCURVE",
"413.667 339.333 OFFCURVE",
"401 340 CURVE",
"399.667 340 OFFCURVE",
"398.667 342.667 OFFCURVE",
"400 344 CURVE",
"540 547 LINE"
);
}
);
width = 847;
}
);
note = AE;
unicode = 00C6;
},
{
glyphname = B;
lastChange = "2018-12-17 16:21:40 +0000";
layers = (
{
background = {
paths = (
{
closed = 1;
nodes = (
"448 157 OFFCURVE",
"390 73 OFFCURVE",
"349 54 QCURVE SMOOTH",
"322 41 OFFCURVE",
"252 41 QCURVE SMOOTH",
"220 41 OFFCURVE",
"192 50 OFFCURVE",
"192 86 OFFCURVE",
"197 116 QCURVE SMOOTH",
"235 316 LINE SMOOTH",
"238 331 OFFCURVE",
"309 331 QCURVE SMOOTH",
"382 331 OFFCURVE",
"448 264 OFFCURVE",
"448 211 QCURVE SMOOTH"
);
},
{
closed = 1;
nodes = (
"538 272 OFFCURVE",
"462 356 OFFCURVE",
"432 361 QCURVE",
"438 364 LINE",
"445 367 OFFCURVE",
"468 380 OFFCURVE",
"494 399 OFFCURVE",
"522 427 OFFCURVE",
"544 459 OFFCURVE",
"558 504 OFFCURVE",
"558 528 QCURVE SMOOTH",
"558 563 OFFCURVE",
"526 616 OFFCURVE",
"475 644 OFFCURVE",
"420 657 OFFCURVE",
"392 657 QCURVE SMOOTH",
"368 657 OFFCURVE",
"308 656 OFFCURVE",
"261 656 QCURVE SMOOTH",
"200 656 OFFCURVE",
"154 658 QCURVE",
"147 651 OFFCURVE",
"147 635 QCURVE SMOOTH",
"147 631 OFFCURVE",
"149 631 QCURVE SMOOTH",
"160 631 OFFCURVE",
"205 614 OFFCURVE",
"205 607 QCURVE SMOOTH",
"205 571 OFFCURVE",
"194 514 QCURVE SMOOTH",
"122 142 LINE SMOOTH",
"110 78 OFFCURVE",
"96 49 QCURVE SMOOTH",
"92 40 OFFCURVE",
"43 26 OFFCURVE",
"31 26 QCURVE SMOOTH",
"24 26 OFFCURVE",
"24 6 QCURVE SMOOTH",
"24 -2 OFFCURVE",
"25 -3 QCURVE",
"135 0 LINE",
"262 0 LINE SMOOTH",
"389 0 OFFCURVE",
"538 133 OFFCURVE",
"538 215 QCURVE SMOOTH"
);
},
{
closed = 1;
nodes = (
"473 469 OFFCURVE",
"443 407 OFFCURVE",
"387 381 OFFCURVE",
"341 373 OFFCURVE",
"309 373 QCURVE SMOOTH",
"296 373 OFFCURVE",
"276 374 OFFCURVE",
"258 377 OFFCURVE",
"249 382 OFFCURVE",
"250 386 QCURVE",
"295 603 LINE",
"297 616 OFFCURVE",
"370 616 QCURVE SMOOTH",
"473 616 OFFCURVE",
"473 516 QCURVE SMOOTH"
);
}
);
};
layerId = "02396921-8257-42A3-8ED5-3052446F9CE3";
paths = (
{
closed = 1;
nodes = (
"448 139 OFFCURVE",
"403.667 79.333 OFFCURVE",
"349 54 CURVE SMOOTH",
"331 45.333 OFFCURVE",
"298.667 41 OFFCURVE",
"252 41 CURVE SMOOTH",
"185.755 41 OFFCURVE",
"186.157 50.941 OFFCURVE",
"197 116 CURVE SMOOTH",
"235 316 LINE SMOOTH",
"237 326 OFFCURVE",
"261.667 331 OFFCURVE",
"309 331 CURVE SMOOTH",
"406.333 331 OFFCURVE",
"448 281.667 OFFCURVE",
"448 211 CURVE SMOOTH"
);
},
{
closed = 1;
nodes = (
"538 291 OFFCURVE",
"472 354.333 OFFCURVE",
"432 361 CURVE",
"438 364 LINE",
"453.357 370.582 OFFCURVE",
"486.269 391.269 OFFCURVE",
"508 413 CURVE SMOOTH",
"535.938 440.938 OFFCURVE",
"558 479.144 OFFCURVE",
"558 528 CURVE SMOOTH",
"558 618.91 OFFCURVE",
"473.749 657 OFFCURVE",
"392 657 CURVE SMOOTH",
"376 657 OFFCURVE",
"358 656.833 OFFCURVE",
"338 656.5 CURVE SMOOTH",
"318 656.167 OFFCURVE",
"292.333 656 OFFCURVE",
"261 656 CURVE SMOOTH",
"220.333 656 OFFCURVE",
"184.667 656.667 OFFCURVE",
"154 658 CURVE",
"149.333 653.333 OFFCURVE",
"147 645.667 OFFCURVE",
"147 635 CURVE SMOOTH",
"147 632.333 OFFCURVE",
"147.667 631 OFFCURVE",
"149 631 CURVE SMOOTH",
"163.667 631 OFFCURVE",
"205 616.333 OFFCURVE",
"205 607 CURVE SMOOTH",
"205 583 OFFCURVE",
"201.333 552 OFFCURVE",
"194 514 CURVE SMOOTH",
"122 142 LINE SMOOTH",
"114 99.333 OFFCURVE",
"105.333 68.333 OFFCURVE",
"96 49 CURVE SMOOTH",
"90.667 37 OFFCURVE",
"47 26 OFFCURVE",
"31 26 CURVE SMOOTH",
"26.333 26 OFFCURVE",
"24 19.333 OFFCURVE",
"24 6 CURVE SMOOTH",
"24 0.667 OFFCURVE",
"24.333 -2.333 OFFCURVE",
"25 -3 CURVE",
"135 0 LINE",
"262 0 LINE SMOOTH",
"431.333 0 OFFCURVE",
"538 105.667 OFFCURVE",
"538 215 CURVE SMOOTH"
);
},
{
closed = 1;
nodes = (
"473 397.089 OFFCURVE",
"399.35 373 OFFCURVE",
"309 373 CURVE SMOOTH",
"286.754 373 OFFCURVE",
"246.957 373.827 OFFCURVE",
"250 386 CURVE",
"295 603 LINE",
"296.333 611.667 OFFCURVE",
"321.333 616 OFFCURVE",
"370 616 CURVE SMOOTH",
"438.667 616 OFFCURVE",
"473 582.667 OFFCURVE",
"473 516 CURVE SMOOTH"
);
}
);
width = 528;
}
);
note = B;
unicode = 0042;
},
{
glyphname = C;
lastChange = "2018-12-17 16:21:40 +0000";
layers = (
{
background = {
paths = (
{
closed = 1;
nodes = (
"360 667 OFFCURVE",
"217 592 OFFCURVE",
"119 475 OFFCURVE",
"60 333 OFFCURVE",
"60 267 QCURVE SMOOTH",
"60 157 OFFCURVE",
"202 -6 OFFCURVE",
"321 -6 QCURVE SMOOTH",
"385 -6 OFFCURVE",
"511 20 OFFCURVE",
"526 37 QCURVE",
"531 42 OFFCURVE",
"576 128 QCURVE",
"577 132 OFFCURVE",
"559 153 OFFCURVE",
"556 153 QCURVE SMOOTH",
"555 153 OFFCURVE",
"538 127 OFFCURVE",
"501 85 OFFCURVE",
"476 70 QCURVE SMOOTH",
"424 37 OFFCURVE",
"350 37 QCURVE SMOOTH",
"255 37 OFFCURVE",
"151 163 OFFCURVE",
"151 259 QCURVE SMOOTH",
"151 405 OFFCURVE",
"329 625 OFFCURVE",
"432 625 QCURVE SMOOTH",
"478 625 OFFCURVE",
"544 601 OFFCURVE",
"575 571 OFFCURVE",
"593 525 OFFCURVE",
"595 501 OFFCURVE",
"595 486 QCURVE",
"598 483 OFFCURVE",
"606 483 QCURVE SMOOTH",
"627 483 OFFCURVE",
"630 498 QCURVE SMOOTH",
"632 508 OFFCURVE",
"650 622 QCURVE",
"505 667 OFFCURVE",
"437 667 QCURVE SMOOTH"
);
}
);
};
layerId = "02396921-8257-42A3-8ED5-3052446F9CE3";
paths = (
{
closed = 1;
nodes = (
"334.333 667 OFFCURVE",
"233.333 611.5 OFFCURVE",
"168 533.5 CURVE SMOOTH",
"102.667 455.5 OFFCURVE",
"60 355 OFFCURVE",
"60 267 CURVE SMOOTH",
"60 120.333 OFFCURVE",
"162.333 -6 OFFCURVE",
"321 -6 CURVE SMOOTH",
"406.333 -6 OFFCURVE",
"506 14.333 OFFCURVE",
"526 37 CURVE",
"529.333 40.333 OFFCURVE",
"546 70.667 OFFCURVE",
"576 128 CURVE",
"577.333 133.333 OFFCURVE",
"560 153 OFFCURVE",
"556 153 CURVE SMOOTH",
"554.542 153 OFFCURVE",
"498.896 83.738 OFFCURVE",
"476 70 CURVE SMOOTH",
"441.333 48 OFFCURVE",
"399.333 37 OFFCURVE",
"350 37 CURVE SMOOTH",
"223.333 37 OFFCURVE",
"151 131 OFFCURVE",
"151 259 CURVE SMOOTH",
"151 453.667 OFFCURVE",
"294.667 625 OFFCURVE",
"432 625 CURVE SMOOTH",
"493.333 625 OFFCURVE",
"538.833 606 OFFCURVE",
"559.5 586 CURVE SMOOTH",
"580.167 566 OFFCURVE",
"592.333 538 OFFCURVE",
"595 486 CURVE",
"597 484 OFFCURVE",
"600.667 483 OFFCURVE",
"606 483 CURVE SMOOTH",
"620 483 OFFCURVE",
"628 488 OFFCURVE",
"630 498 CURVE SMOOTH",
"631.333 504.667 OFFCURVE",
"638 546 OFFCURVE",
"650 622 CURVE",
"553.333 652 OFFCURVE",
"482.333 667 OFFCURVE",
"437 667 CURVE SMOOTH"
);
}
);
width = 580;
}
);
note = C;
unicode = 0043;
},
{
glyphname = D;
lastChange = "2018-12-17 16:21:40 +0000";
layers = (
{
background = {
paths = (
{
closed = 1;
nodes = (
"406 658 OFFCURVE",
"296 656 OFFCURVE",
"261 656 QCURVE SMOOTH",
"200 656 OFFCURVE",
"154 658 QCURVE",
"147 651 OFFCURVE",
"147 635 QCURVE SMOOTH",
"147 631 OFFCURVE",
"149 631 QCURVE SMOOTH",
"160 631 OFFCURVE",
"204 615 OFFCURVE",
"205 607 QCURVE SMOOTH",
"207 585 OFFCURVE",
"194 514 QCURVE SMOOTH",
"122 142 LINE SMOOTH",
"110 78 OFFCURVE",
"96 49 QCURVE SMOOTH",
"92 40 OFFCURVE",
"40 24 OFFCURVE",
"29 24 QCURVE SMOOTH",
"24 24 OFFCURVE",
"24 5 QCURVE SMOOTH",
"24 -2 OFFCURVE",
"25 -3 QCURVE",
"136 2 LINE",
"170 2 OFFCURVE",
"276 -3 OFFCURVE",
"294 -3 QCURVE SMOOTH",
"371 -3 OFFCURVE",
"503 50 OFFCURVE",
"593 136 OFFCURVE",
"658 244 OFFCURVE",
"688 354 OFFCURVE",
"688 405 QCURVE SMOOTH",
"688 514 OFFCURVE",
"554 658 OFFCURVE",
"424 658 QCURVE SMOOTH"
);
},
{
closed = 1;
nodes = (
"512 614 OFFCURVE",
"600 502 OFFCURVE",
"600 414 QCURVE SMOOTH",
"600 320 OFFCURVE",
"533 152 OFFCURVE",
"401 43 OFFCURVE",
"317 43 QCURVE SMOOTH",
"210 43 OFFCURVE",
"201 63 QCURVE",
"199 68 OFFCURVE",
"199 125 OFFCURVE",
"202 139 QCURVE SMOOTH",
"275 519 LINE SMOOTH",
"286 578 OFFCURVE",
"302 598 QCURVE SMOOTH",
"315 614 OFFCURVE",
"422 614 QCURVE SMOOTH"
);
}
);
};
layerId = "02396921-8257-42A3-8ED5-3052446F9CE3";
paths = (
{
closed = 1;
nodes = (
"412 658 OFFCURVE",
"387.667 657.667 OFFCURVE",
"351 657 CURVE SMOOTH",
"314.333 656.333 OFFCURVE",
"284.333 656 OFFCURVE",
"261 656 CURVE SMOOTH",
"220.333 656 OFFCURVE",
"184.667 656.667 OFFCURVE",
"154 658 CURVE",
"149.333 653.333 OFFCURVE",
"147 645.667 OFFCURVE",
"147 635 CURVE SMOOTH",
"147 632.333 OFFCURVE",
"147.667 631 OFFCURVE",
"149 631 CURVE SMOOTH",
"163.667 631 OFFCURVE",
"203.667 617.667 OFFCURVE",
"205 607 CURVE SMOOTH",
"206.333 592.333 OFFCURVE",
"202.667 561.333 OFFCURVE",
"194 514 CURVE SMOOTH",
"122 142 LINE SMOOTH",
"114 99.333 OFFCURVE",
"105.333 68.333 OFFCURVE",
"96 49 CURVE SMOOTH",
"90.667 37 OFFCURVE",
"43.667 24 OFFCURVE",
"29 24 CURVE SMOOTH",
"25.667 24 OFFCURVE",
"24 17.667 OFFCURVE",
"24 5 CURVE SMOOTH",
"24 0.333 OFFCURVE",
"24.333 -2.333 OFFCURVE",
"25 -3 CURVE",
"136 2 LINE",
"158.667 2 OFFCURVE",
"187.667 1.167 OFFCURVE",
"223 -0.5 CURVE SMOOTH",
"258.333 -2.167 OFFCURVE",
"282 -3 OFFCURVE",
"294 -3 CURVE SMOOTH",
"396.667 -3 OFFCURVE",
"488 35.667 OFFCURVE",
"548 93 CURVE SMOOTH",
"578 121.667 OFFCURVE",
"603.833 154 OFFCURVE",
"625.5 190 CURVE SMOOTH",
"647.167 226 OFFCURVE",
"668 297.667 OFFCURVE",
"688 405 CURVE",
"688 550.333 OFFCURVE",
"597.333 658 OFFCURVE",
"424 658 CURVE SMOOTH"
);
},
{
closed = 1;
nodes = (
"542 614 OFFCURVE",
"600 531.333 OFFCURVE",
"600 414 CURVE SMOOTH",
"600 288.667 OFFCURVE",
"555 170.167 OFFCURVE",
"467 97.5 CURVE SMOOTH",
"423 61.167 OFFCURVE",
"373 43 OFFCURVE",
"317 43 CURVE SMOOTH",
"245.667 43 OFFCURVE",
"207 49.667 OFFCURVE",
"201 63 CURVE",
"199.667 66.333 OFFCURVE",
"199 77.5 OFFCURVE",
"199 96.5 CURVE SMOOTH",
"199 115.5 OFFCURVE",
"200 129.667 OFFCURVE",
"202 139 CURVE SMOOTH",
"275 519 LINE SMOOTH",
"282.333 558.333 OFFCURVE",
"291.333 584.667 OFFCURVE",
"302 598 CURVE SMOOTH",
"310.667 608.667 OFFCURVE",
"350.667 614 OFFCURVE",
"422 614 CURVE SMOOTH"
);
}
);
width = 668;
}
);
note = D;
unicode = 0044;
},
{
glyphname = Eth;
lastChange = "2018-12-17 16:21:40 +0000";
layers = (
{
background = {
paths = (
{
closed = 1;
nodes = (
"402 663 OFFCURVE",
"292 661 OFFCURVE",
"257 661 QCURVE SMOOTH",
"196 661 OFFCURVE",
"150 663 QCURVE",
"143 656 OFFCURVE",
"143 640 QCURVE SMOOTH",
"143 636 OFFCURVE",
"145 636 QCURVE SMOOTH",
"156 636 OFFCURVE",
"200 620 OFFCURVE",
"201 612 QCURVE SMOOTH",
"203 591 OFFCURVE",
"190 519 QCURVE SMOOTH",
"118 147 LINE SMOOTH",
"106 83 OFFCURVE",
"92 54 QCURVE SMOOTH",
"88 46 OFFCURVE",
"36 29 OFFCURVE",
"25 29 QCURVE SMOOTH",
"20 29 OFFCURVE",
"20 10 QCURVE SMOOTH",
"20 3 OFFCURVE",
"21 2 QCURVE",
"35 3 LINE",
"49 5 OFFCURVE",
"105 7 OFFCURVE",
"132 7 QCURVE SMOOTH",
"166 7 OFFCURVE",
"272 2 OFFCURVE",
"290 2 QCURVE SMOOTH",
"367 2 OFFCURVE",
"499 55 OFFCURVE",
"589 141 OFFCURVE",
"654 249 OFFCURVE",
"684 359 OFFCURVE",
"684 410 QCURVE SMOOTH",
"684 462 OFFCURVE",
"653 551 OFFCURVE",
"590 622 OFFCURVE",
"487 663 OFFCURVE",
"420 663 QCURVE SMOOTH"
);
},
{
closed = 1;
nodes = (
"508 619 OFFCURVE",
"596 507 OFFCURVE",
"596 419 QCURVE SMOOTH",
"596 325 OFFCURVE",
"529 157 OFFCURVE",
"397 48 OFFCURVE",
"313 48 QCURVE SMOOTH",
"298 48 OFFCURVE",
"256 50 OFFCURVE",
"201 60 OFFCURVE",
"197 68 QCURVE",
"195 73 OFFCURVE",
"195 130 OFFCURVE",
"198 144 QCURVE SMOOTH",
"271 524 LINE SMOOTH",
"276 550 OFFCURVE",
"278 563 OFFCURVE",
"290 593 OFFCURVE",
"298 603 QCURVE",
"303 610 OFFCURVE",
"368 618 OFFCURVE",
"408 619 OFFCURVE",
"418 619 QCURVE SMOOTH"
);
},
{
closed = 1;
nodes = (
"95 344 OFFCURVE",
"95 326 QCURVE SMOOTH",
"95 313 OFFCURVE",
"100 313 QCURVE SMOOTH",
"446 313 LINE",
"452 327 OFFCURVE",
"452 343 QCURVE SMOOTH",
"452 353 OFFCURVE",
"446 353 QCURVE SMOOTH",
"101 353 LINE"
);
}
);
};
layerId = "02396921-8257-42A3-8ED5-3052446F9CE3";
paths = (
{
closed = 1;
nodes = (
"408 663 OFFCURVE",
"383.667 662.667 OFFCURVE",
"347 662 CURVE SMOOTH",
"310.333 661.333 OFFCURVE",
"280.333 661 OFFCURVE",
"257 661 CURVE SMOOTH",
"216.333 661 OFFCURVE",
"180.667 661.667 OFFCURVE",
"150 663 CURVE",
"145.333 658.333 OFFCURVE",
"143 650.667 OFFCURVE",
"143 640 CURVE SMOOTH",
"143 637.333 OFFCURVE",
"143.667 636 OFFCURVE",
"145 636 CURVE SMOOTH",
"159.667 636 OFFCURVE",
"199.667 622.667 OFFCURVE",
"201 612 CURVE SMOOTH",
"202.333 598 OFFCURVE",
"198.667 567 OFFCURVE",
"190 519 CURVE SMOOTH",
"118 147 LINE SMOOTH",
"110 104.333 OFFCURVE",
"101.333 73.333 OFFCURVE",
"92 54 CURVE SMOOTH",
"86.667 43.333 OFFCURVE",
"39.667 29 OFFCURVE",
"25 29 CURVE SMOOTH",
"21.667 29 OFFCURVE",
"20 22.667 OFFCURVE",
"20 10 CURVE SMOOTH",
"20 5.333 OFFCURVE",
"20.333 2.667 OFFCURVE",
"21 2 CURVE",
"35 3 LINE",
"53.667 5.667 OFFCURVE",
"96 7 OFFCURVE",
"132 7 CURVE SMOOTH",
"154.667 7 OFFCURVE",
"183.667 6.167 OFFCURVE",
"219 4.5 CURVE SMOOTH",
"254.333 2.833 OFFCURVE",
"278 2 OFFCURVE",
"290 2 CURVE SMOOTH",
"392.667 2 OFFCURVE",
"484 40.667 OFFCURVE",
"544 98 CURVE SMOOTH",
"574 126.667 OFFCURVE",
"599.833 159 OFFCURVE",
"621.5 195 CURVE SMOOTH",
"643.167 231 OFFCURVE",
"664 302.667 OFFCURVE",
"684 410 CURVE",
"684 479.333 OFFCURVE",
"663.5 539.167 OFFCURVE",
"621.5 586.5 CURVE SMOOTH",
"579.5 633.833 OFFCURVE",
"509.333 663 OFFCURVE",
"420 663 CURVE SMOOTH"
);
},
{
closed = 1;
nodes = (
"538 619 OFFCURVE",
"596 536.333 OFFCURVE",
"596 419 CURVE SMOOTH",
"596 293.667 OFFCURVE",
"551 175.167 OFFCURVE",
"463 102.5 CURVE SMOOTH",
"419 66.167 OFFCURVE",
"369 48 OFFCURVE",
"313 48 CURVE SMOOTH",
"294.822 48 OFFCURVE",
"205.899 50.201 OFFCURVE",
"197 68 CURVE",
"195.667 71.333 OFFCURVE",
"195 82.5 OFFCURVE",
"195 101.5 CURVE SMOOTH",
"195 120.5 OFFCURVE",
"196 134.667 OFFCURVE",
"198 144 CURVE SMOOTH",
"271 524 LINE SMOOTH",
"277.172 556.095 OFFCURVE",
"281.276 582.095 OFFCURVE",
"298 603 CURVE",
"308.315 617.441 OFFCURVE",
"399.887 619 OFFCURVE",
"418 619 CURVE SMOOTH"
);
},
{
closed = 1;
nodes = (
"97 347 OFFCURVE",
"95 338 OFFCURVE",
"95 326 CURVE SMOOTH",
"95 317.333 OFFCURVE",
"96.667 313 OFFCURVE",
"100 313 CURVE SMOOTH",
"446 313 LINE",
"450 322.333 OFFCURVE",
"452 332.333 OFFCURVE",
"452 343 CURVE SMOOTH",
"452 349.667 OFFCURVE",
"450 353 OFFCURVE",
"446 353 CURVE SMOOTH",
"101 353 LINE"
);
}
);
width = 659;
}
);
note = Eth;
unicode = 00D0;
},
{
glyphname = E;
lastChange = "2018-12-17 16:21:40 +0000";
layers = (
{
background = {
paths = (
{
closed = 1;
nodes = (
"200 656 OFFCURVE",
"154 658 QCURVE",
"147 651 OFFCURVE",
"147 635 QCURVE SMOOTH",
"147 631 OFFCURVE",
"149 631 QCURVE SMOOTH",
"160 631 OFFCURVE",
"204 615 OFFCURVE",
"205 607 QCURVE SMOOTH",
"207 585 OFFCURVE",
"194 514 QCURVE SMOOTH",
"122 142 LINE SMOOTH",
"110 78 OFFCURVE",
"96 49 QCURVE SMOOTH",
"92 40 OFFCURVE",
"40 24 OFFCURVE",
"29 24 QCURVE SMOOTH",
"24 24 OFFCURVE",
"24 5 QCURVE SMOOTH",
"24 -2 OFFCURVE",
"25 -3 QCURVE",
"136 2 LINE",
"176 2 OFFCURVE",
"399 -4 OFFCURVE",
"452 -4 QCURVE",
"464 32 OFFCURVE",
"534 162 QCURVE",
"530 168 OFFCURVE",
"513 168 QCURVE SMOOTH",
"501 168 OFFCURVE",
"498 162 QCURVE SMOOTH",
"479 124 OFFCURVE",
"436 69 OFFCURVE",
"420 61 QCURVE SMOOTH",
"386 44 OFFCURVE",
"299 44 QCURVE SMOOTH",
"254 44 LINE SMOOTH",
"209 44 OFFCURVE",
"193 50 OFFCURVE",
"193 65 QCURVE SMOOTH",
"193 99 OFFCURVE",
"204 152 QCURVE SMOOTH",
"233 300 LINE SMOOTH",
"235 309 OFFCURVE",
"301 309 QCURVE SMOOTH",
"388 309 OFFCURVE",
"398 301 QCURVE SMOOTH",
"403 297 OFFCURVE",
"406 292 OFFCURVE",
"412 265 OFFCURVE",
"413 238 QCURVE",
"414 230 OFFCURVE",
"427 230 QCURVE SMOOTH",
"435 230 OFFCURVE",
"441 234 QCURVE",
"478 426 LINE",
"475 431 OFFCURVE",
"463 431 QCURVE SMOOTH",
"452 431 OFFCURVE",
"449 424 QCURVE SMOOTH",
"426 372 OFFCURVE",
"394 353 OFFCURVE",
"328 353 QCURVE SMOOTH",
"283 353 LINE SMOOTH",
"275 353 OFFCURVE",
"263 354 OFFCURVE",
"251 355 OFFCURVE",
"246 358 OFFCURVE",
"246 361 QCURVE",
"278 536 LINE SMOOTH",
"285 573 OFFCURVE",
"296 603 QCURVE SMOOTH",
"301 616 OFFCURVE",
"372 616 QCURVE SMOOTH",
"426 616 LINE SMOOTH",
"476 616 OFFCURVE",
"522 586 OFFCURVE",
"525 530 QCURVE",
"525 523 OFFCURVE",
"537 523 QCURVE SMOOTH",
"550 523 OFFCURVE",
"555 528 QCURVE",
"555 544 OFFCURVE",
"553 608 OFFCURVE",
"553 625 QCURVE SMOOTH",
"553 650 OFFCURVE",
"554 664 QCURVE",
"502 664 OFFCURVE",
"302 656 OFFCURVE",
"261 656 QCURVE SMOOTH"
);
}
);
};
layerId = "02396921-8257-42A3-8ED5-3052446F9CE3";
paths = (
{
closed = 1;
nodes = (
"220.333 656 OFFCURVE",
"184.667 656.667 OFFCURVE",
"154 658 CURVE",
"149.333 653.333 OFFCURVE",
"147 645.667 OFFCURVE",
"147 635 CURVE SMOOTH",
"147 632.333 OFFCURVE",
"147.667 631 OFFCURVE",
"149 631 CURVE SMOOTH",
"163.667 631 OFFCURVE",
"203.667 617.667 OFFCURVE",
"205 607 CURVE SMOOTH",
"206.333 592.333 OFFCURVE",
"202.667 561.333 OFFCURVE",
"194 514 CURVE SMOOTH",
"122 142 LINE SMOOTH",
"114 99.333 OFFCURVE",
"105.333 68.333 OFFCURVE",
"96 49 CURVE SMOOTH",
"90.667 37 OFFCURVE",
"43.667 24 OFFCURVE",
"29 24 CURVE SMOOTH",
"25.667 24 OFFCURVE",
"24 17.667 OFFCURVE",
"24 5 CURVE SMOOTH",
"24 0.333 OFFCURVE",
"24.333 -2.333 OFFCURVE",
"25 -3 CURVE",
"136 2 LINE",
"162.667 2 OFFCURVE",
"213.167 1 OFFCURVE",
"287.5 -1 CURVE SMOOTH",
"361.833 -3 OFFCURVE",
"416.667 -4 OFFCURVE",
"452 -4 CURVE",
"460 20 OFFCURVE",
"487.333 75.333 OFFCURVE",
"534 162 CURVE",
"531.333 166 OFFCURVE",
"524.333 168 OFFCURVE",
"513 168 CURVE SMOOTH",
"505 168 OFFCURVE",
"500 166 OFFCURVE",
"498 162 CURVE SMOOTH",
"472.667 111.333 OFFCURVE",
"441.333 71.667 OFFCURVE",
"420 61 CURVE SMOOTH",
"397.333 49.667 OFFCURVE",
"357 44 OFFCURVE",
"299 44 CURVE SMOOTH",
"254 44 LINE SMOOTH",
"224 44 OFFCURVE",
"206.333 45 OFFCURVE",
"201 47 CURVE SMOOTH",
"195.667 49 OFFCURVE",
"193 55 OFFCURVE",
"193 65 CURVE SMOOTH",
"193 87.667 OFFCURVE",
"196.667 116.667 OFFCURVE",
"204 152 CURVE SMOOTH",
"233 300 LINE SMOOTH",
"234.333 306 OFFCURVE",
"257 309 OFFCURVE",
"301 309 CURVE SMOOTH",
"359 309 OFFCURVE",
"391.333 306.333 OFFCURVE",
"398 301 CURVE SMOOTH",
"409.894 291.485 OFFCURVE",
"411.808 270.196 OFFCURVE",
"413 238 CURVE",
"413.667 232.667 OFFCURVE",
"418.333 230 OFFCURVE",
"427 230 CURVE SMOOTH",
"432.333 230 OFFCURVE",
"437 231.333 OFFCURVE",
"441 234 CURVE",
"478 426 LINE",
"476 429.333 OFFCURVE",
"471 431 OFFCURVE",
"463 431 CURVE SMOOTH",
"455.667 431 OFFCURVE",
"451 428.667 OFFCURVE",
"449 424 CURVE SMOOTH",
"418.333 354.667 OFFCURVE",
"416 353 OFFCURVE",
"328 353 CURVE SMOOTH",
"283 353 LINE SMOOTH",
"264.701 353 OFFCURVE",
"246 353.408 OFFCURVE",
"246 361 CURVE",
"278 536 LINE SMOOTH",
"282.667 560.667 OFFCURVE",
"288.667 583 OFFCURVE",
"296 603 CURVE SMOOTH",
"299.333 611.667 OFFCURVE",
"324.667 616 OFFCURVE",
"372 616 CURVE SMOOTH",
"426 616 LINE SMOOTH",
"492.667 616 OFFCURVE",
"521 604.667 OFFCURVE",
"525 530 CURVE",
"525 525.333 OFFCURVE",
"529 523 OFFCURVE",
"537 523 CURVE SMOOTH",
"545.667 523 OFFCURVE",
"551.667 524.667 OFFCURVE",
"555 528 CURVE",
"555 538.667 OFFCURVE",
"554.667 554.667 OFFCURVE",
"554 576 CURVE SMOOTH",
"553.333 597.333 OFFCURVE",
"553 613.667 OFFCURVE",
"553 625 CURVE SMOOTH",
"553 641.667 OFFCURVE",
"553.333 654.667 OFFCURVE",
"554 664 CURVE",
"519.333 664 OFFCURVE",
"468.667 662.667 OFFCURVE",
"402 660 CURVE SMOOTH",
"335.333 657.333 OFFCURVE",
"288.333 656 OFFCURVE",
"261 656 CURVE SMOOTH"
);
}
);
width = 519;
}
);
note = E;
unicode = 0045;
},
{
glyphname = Eogonek;
lastChange = "2018-12-17 16:21:40 +0000";
layers = (
{
background = {
paths = (
{
closed = 1;
nodes = (
"438 32 OFFCURVE",
"508 162 QCURVE",
"504 168 OFFCURVE",
"487 168 QCURVE SMOOTH",
"475 168 OFFCURVE",
"472 162 QCURVE SMOOTH",
"453 124 OFFCURVE",
"410 69 OFFCURVE",
"394 61 QCURVE SMOOTH",
"360 44 OFFCURVE",
"273 44 QCURVE SMOOTH",
"228 44 LINE SMOOTH",
"183 44 OFFCURVE",
"167 50 OFFCURVE",
"167 65 QCURVE SMOOTH",
"167 99 OFFCURVE",
"178 152 QCURVE SMOOTH",
"207 300 LINE SMOOTH",
"209 309 OFFCURVE",
"275 309 QCURVE SMOOTH",
"362 309 OFFCURVE",
"372 301 QCURVE SMOOTH",
"377 297 OFFCURVE",
"380 292 OFFCURVE",
"386 265 OFFCURVE",
"387 238 QCURVE",
"388 230 OFFCURVE",
"401 230 QCURVE SMOOTH",
"409 230 OFFCURVE",
"415 234 QCURVE",
"452 426 LINE",
"449 431 OFFCURVE",
"437 431 QCURVE SMOOTH",
"426 431 OFFCURVE",
"423 424 QCURVE SMOOTH",
"400 372 OFFCURVE",
"368 353 OFFCURVE",
"302 353 QCURVE SMOOTH",
"257 353 LINE SMOOTH",
"249 353 OFFCURVE",
"237 354 OFFCURVE",
"225 355 OFFCURVE",
"220 358 OFFCURVE",
"220 361 QCURVE",
"252 536 LINE SMOOTH",
"259 573 OFFCURVE",
"270 603 QCURVE SMOOTH",
"275 616 OFFCURVE",
"346 616 QCURVE SMOOTH",
"400 616 LINE SMOOTH",
"450 616 OFFCURVE",
"496 586 OFFCURVE",
"499 530 QCURVE",
"499 523 OFFCURVE",
"511 523 QCURVE SMOOTH",
"524 523 OFFCURVE",
"529 528 QCURVE",
"529 544 OFFCURVE",
"527 608 OFFCURVE",
"527 625 QCURVE SMOOTH",
"527 650 OFFCURVE",
"528 664 QCURVE",
"476 664 OFFCURVE",
"276 656 OFFCURVE",
"235 656 QCURVE SMOOTH",
"174 656 OFFCURVE",
"128 658 QCURVE",
"121 651 OFFCURVE",
"121 635 QCURVE SMOOTH",
"121 631 OFFCURVE",
"123 631 QCURVE SMOOTH",
"134 631 OFFCURVE",
"178 615 OFFCURVE",
"179 607 QCURVE SMOOTH",
"181 585 OFFCURVE",
"168 514 QCURVE SMOOTH",
"96 142 LINE SMOOTH",
"84 78 OFFCURVE",
"70 49 QCURVE SMOOTH",
"66 40 OFFCURVE",
"14 24 OFFCURVE",
"3 24 QCURVE SMOOTH",
"-2 24 OFFCURVE",
"-2 5 QCURVE SMOOTH",
"-2 -2 OFFCURVE",
"-1 -3 QCURVE",
"110 2 LINE",
"131 2 OFFCURVE",
"321 -3 QCURVE",
"279 -23 OFFCURVE",
"200 -140 OFFCURVE",
"200 -180 QCURVE SMOOTH",
"200 -201 OFFCURVE",
"229 -230 OFFCURVE",
"251 -230 QCURVE SMOOTH",
"302 -230 OFFCURVE",
"362 -163 QCURVE",
"365 -160 OFFCURVE",
"373 -134 OFFCURVE",
"368 -133 QCURVE",
"367 -133 OFFCURVE",
"344 -152 OFFCURVE",
"306 -171 OFFCURVE",
"285 -171 QCURVE SMOOTH",
"254 -171 OFFCURVE",
"254 -139 QCURVE SMOOTH",
"254 -97 OFFCURVE",
"360 -4 OFFCURVE",
"426 -4 QCURVE"
);
}
);
};
layerId = "02396921-8257-42A3-8ED5-3052446F9CE3";
paths = (
{
closed = 1;
nodes = (
"434 20 OFFCURVE",
"461.333 75.333 OFFCURVE",
"508 162 CURVE",
"505.333 166 OFFCURVE",
"498.333 168 OFFCURVE",
"487 168 CURVE SMOOTH",
"479 168 OFFCURVE",
"474 166 OFFCURVE",
"472 162 CURVE SMOOTH",
"446.667 111.333 OFFCURVE",
"415.333 71.667 OFFCURVE",
"394 61 CURVE SMOOTH",
"371.333 49.667 OFFCURVE",
"331 44 OFFCURVE",
"273 44 CURVE SMOOTH",
"228 44 LINE SMOOTH",
"198 44 OFFCURVE",
"180.333 45 OFFCURVE",
"175 47 CURVE SMOOTH",
"169.667 49 OFFCURVE",
"167 55 OFFCURVE",
"167 65 CURVE SMOOTH",
"167 87.667 OFFCURVE",
"170.667 116.667 OFFCURVE",
"178 152 CURVE SMOOTH",
"207 300 LINE SMOOTH",
"208.333 306 OFFCURVE",
"231 309 OFFCURVE",
"275 309 CURVE SMOOTH",
"333 309 OFFCURVE",
"365.333 306.333 OFFCURVE",
"372 301 CURVE SMOOTH",
"383.894 291.485 OFFCURVE",
"385.808 270.196 OFFCURVE",
"387 238 CURVE",
"387.667 232.667 OFFCURVE",
"392.333 230 OFFCURVE",
"401 230 CURVE SMOOTH",
"406.333 230 OFFCURVE",
"411 231.333 OFFCURVE",
"415 234 CURVE",
"452 426 LINE",
"450 429.333 OFFCURVE",
"445 431 OFFCURVE",
"437 431 CURVE SMOOTH",
"429.667 431 OFFCURVE",
"425 428.667 OFFCURVE",
"423 424 CURVE SMOOTH",
"392.333 354.667 OFFCURVE",
"390 353 OFFCURVE",
"302 353 CURVE SMOOTH",
"257 353 LINE SMOOTH",
"238.701 353 OFFCURVE",
"220 353.408 OFFCURVE",
"220 361 CURVE",
"252 536 LINE SMOOTH",
"256.667 560.667 OFFCURVE",
"262.667 583 OFFCURVE",
"270 603 CURVE SMOOTH",
"273.333 611.667 OFFCURVE",
"298.667 616 OFFCURVE",
"346 616 CURVE SMOOTH",
"400 616 LINE SMOOTH",
"466.667 616 OFFCURVE",
"495 604.667 OFFCURVE",
"499 530 CURVE",
"499 525.333 OFFCURVE",
"503 523 OFFCURVE",
"511 523 CURVE SMOOTH",
"519.667 523 OFFCURVE",
"525.667 524.667 OFFCURVE",
"529 528 CURVE",
"529 538.667 OFFCURVE",
"528.667 554.667 OFFCURVE",
"528 576 CURVE SMOOTH",
"527.333 597.333 OFFCURVE",
"527 613.667 OFFCURVE",
"527 625 CURVE SMOOTH",
"527 641.667 OFFCURVE",
"527.333 654.667 OFFCURVE",
"528 664 CURVE",
"493.333 664 OFFCURVE",
"442.667 662.667 OFFCURVE",
"376 660 CURVE SMOOTH",
"309.333 657.333 OFFCURVE",
"262.333 656 OFFCURVE",
"235 656 CURVE SMOOTH",
"194.333 656 OFFCURVE",
"158.667 656.667 OFFCURVE",
"128 658 CURVE",
"123.333 653.333 OFFCURVE",
"121 645.667 OFFCURVE",
"121 635 CURVE SMOOTH",
"121 632.333 OFFCURVE",
"121.667 631 OFFCURVE",
"123 631 CURVE SMOOTH",
"137.667 631 OFFCURVE",
"177.667 617.667 OFFCURVE",
"179 607 CURVE SMOOTH",
"180.333 592.333 OFFCURVE",
"176.667 561.333 OFFCURVE",
"168 514 CURVE SMOOTH",
"96 142 LINE SMOOTH",
"88 99.333 OFFCURVE",
"79.333 68.333 OFFCURVE",
"70 49 CURVE SMOOTH",
"64.667 37 OFFCURVE",
"17.667 24 OFFCURVE",
"3 24 CURVE SMOOTH",
"-0.333 24 OFFCURVE",
"-2 17.667 OFFCURVE",
"-2 5 CURVE SMOOTH",
"-2 0.333 OFFCURVE",
"-1.667 -2.333 OFFCURVE",
"-1 -3 CURVE",
"110 2 LINE",
"124 2 OFFCURVE",
"194.333 0.333 OFFCURVE",
"321 -3 CURVE",
"265 -29.667 OFFCURVE",
"200 -126.667 OFFCURVE",
"200 -180 CURVE SMOOTH",
"200 -208 OFFCURVE",
"221.667 -230 OFFCURVE",
"251 -230 CURVE SMOOTH",
"285 -230 OFFCURVE",
"322 -207.667 OFFCURVE",
"362 -163 CURVE",
"366 -159 OFFCURVE",
"374.667 -134.333 OFFCURVE",
"368 -133 CURVE",
"361.42 -133 OFFCURVE",
"309.268 -171 OFFCURVE",
"285 -171 CURVE SMOOTH",
"264.333 -171 OFFCURVE",
"254 -160.333 OFFCURVE",
"254 -139 CURVE SMOOTH",
"254 -83 OFFCURVE",
"338 -4 OFFCURVE",
"426 -4 CURVE"
);
}
);
width = 536;
}
);
note = Eogonek;
unicode = 0118;
},
{
glyphname = F;
lastChange = "2018-12-17 16:21:40 +0000";
layers = (
{
background = {
paths = (
{
closed = 1;
nodes = (
"160 2 OFFCURVE",
"253 -3 QCURVE",
"259 3 OFFCURVE",
"259 16 QCURVE SMOOTH",
"259 24 OFFCURVE",
"257 24 QCURVE",
"240 26 LINE SMOOTH",
"223 28 OFFCURVE",
"189 41 OFFCURVE",
"189 49 QCURVE SMOOTH",
"189 88 OFFCURVE",
"197 128 QCURVE SMOOTH",
"231 300 LINE SMOOTH",
"233 309 OFFCURVE",
"299 309 QCURVE SMOOTH",
"386 309 OFFCURVE",
"396 301 QCURVE SMOOTH",
"401 297 OFFCURVE",
"404 292 OFFCURVE",
"410 265 OFFCURVE",
"411 238 QCURVE",
"412 230 OFFCURVE",
"425 230 QCURVE SMOOTH",
"433 230 OFFCURVE",
"439 234 QCURVE",
"476 426 LINE",
"473 431 OFFCURVE",
"461 431 QCURVE SMOOTH",
"450 431 OFFCURVE",
"447 424 QCURVE SMOOTH",
"424 372 OFFCURVE",
"392 353 OFFCURVE",
"326 353 QCURVE SMOOTH",
"281 353 LINE SMOOTH",
"273 353 OFFCURVE",
"261 354 OFFCURVE",
"249 355 OFFCURVE",
"244 358 OFFCURVE",
"244 361 QCURVE",
"276 536 LINE SMOOTH",
"283 573 OFFCURVE",
"294 603 QCURVE SMOOTH",
"299 616 OFFCURVE",
"370 616 QCURVE SMOOTH",
"424 616 LINE SMOOTH",
"474 616 OFFCURVE",
"520 586 OFFCURVE",
"523 530 QCURVE",
"523 523 OFFCURVE",
"535 523 QCURVE SMOOTH",
"548 523 OFFCURVE",
"553 528 QCURVE",
"553 544 OFFCURVE",
"551 608 OFFCURVE",
"551 625 QCURVE SMOOTH",
"551 650 OFFCURVE",
"552 664 QCURVE",
"499 664 OFFCURVE",
"301 656 OFFCURVE",
"261 656 QCURVE SMOOTH",
"200 656 OFFCURVE",
"154 658 QCURVE",
"147 651 OFFCURVE",
"147 635 QCURVE SMOOTH",
"147 631 OFFCURVE",
"149 631 QCURVE SMOOTH",
"160 631 OFFCURVE",
"204 615 OFFCURVE",
"205 607 QCURVE SMOOTH",
"207 585 OFFCURVE",
"194 514 QCURVE SMOOTH",
"122 142 LINE SMOOTH",
"110 78 OFFCURVE",
"96 49 QCURVE SMOOTH",
"92 40 OFFCURVE",
"40 24 OFFCURVE",
"29 24 QCURVE SMOOTH",
"24 24 OFFCURVE",
"24 5 QCURVE SMOOTH",
"24 -2 OFFCURVE",
"25 -3 QCURVE",
"136 2 OFFCURVE",
"136 2 QCURVE"
);
}
);
};
layerId = "02396921-8257-42A3-8ED5-3052446F9CE3";
paths = (
{
closed = 1;
nodes = (
"152 2 OFFCURVE",
"191 0.333 OFFCURVE",
"253 -3 CURVE",
"257 1 OFFCURVE",
"259 7.333 OFFCURVE",
"259 16 CURVE SMOOTH",
"259 21.333 OFFCURVE",
"258.333 24 OFFCURVE",
"257 24 CURVE",
"240 26 LINE SMOOTH",
"217.333 28.667 OFFCURVE",
"189 38.333 OFFCURVE",
"189 49 CURVE SMOOTH",
"189 75 OFFCURVE",
"191.667 101.333 OFFCURVE",
"197 128 CURVE SMOOTH",
"231 300 LINE SMOOTH",
"232.333 306 OFFCURVE",
"255 309 OFFCURVE",
"299 309 CURVE SMOOTH",
"357 309 OFFCURVE",
"389.333 306.333 OFFCURVE",
"396 301 CURVE SMOOTH",
"407.894 291.485 OFFCURVE",
"409.808 270.196 OFFCURVE",
"411 238 CURVE",
"411.667 232.667 OFFCURVE",
"416.333 230 OFFCURVE",
"425 230 CURVE SMOOTH",
"430.333 230 OFFCURVE",
"435 231.333 OFFCURVE",
"439 234 CURVE",
"476 426 LINE",
"474 429.333 OFFCURVE",
"469 431 OFFCURVE",
"461 431 CURVE SMOOTH",
"453.667 431 OFFCURVE",
"449 428.667 OFFCURVE",
"447 424 CURVE SMOOTH",
"416.333 354.667 OFFCURVE",
"414 353 OFFCURVE",
"326 353 CURVE SMOOTH",
"281 353 LINE SMOOTH",
"262.701 353 OFFCURVE",
"244 353.408 OFFCURVE",
"244 361 CURVE",
"276 536 LINE SMOOTH",
"280.667 560.667 OFFCURVE",
"286.667 583 OFFCURVE",
"294 603 CURVE SMOOTH",
"297.333 611.667 OFFCURVE",
"322.667 616 OFFCURVE",
"370 616 CURVE SMOOTH",
"424 616 LINE SMOOTH",
"490.667 616 OFFCURVE",
"519 604.667 OFFCURVE",
"523 530 CURVE",
"523 525.333 OFFCURVE",
"527 523 OFFCURVE",
"535 523 CURVE SMOOTH",
"543.667 523 OFFCURVE",
"549.667 524.667 OFFCURVE",
"553 528 CURVE",
"553 538.667 OFFCURVE",
"552.667 554.667 OFFCURVE",
"552 576 CURVE SMOOTH",
"551.333 597.333 OFFCURVE",
"551 613.667 OFFCURVE",
"551 625 CURVE SMOOTH",
"551 641.667 OFFCURVE",
"551.333 654.667 OFFCURVE",
"552 664 CURVE",
"516.667 664 OFFCURVE",
"466 662.667 OFFCURVE",
"400 660 CURVE SMOOTH",
"334 657.333 OFFCURVE",
"287.667 656 OFFCURVE",
"261 656 CURVE SMOOTH",
"220.333 656 OFFCURVE",
"184.667 656.667 OFFCURVE",
"154 658 CURVE",
"149.333 653.333 OFFCURVE",
"147 645.667 OFFCURVE",
"147 635 CURVE SMOOTH",
"147 632.333 OFFCURVE",
"147.667 631 OFFCURVE",
"149 631 CURVE SMOOTH",
"163.667 631 OFFCURVE",
"203.667 617.667 OFFCURVE",
"205 607 CURVE SMOOTH",
"206.333 592.333 OFFCURVE",
"202.667 561.333 OFFCURVE",
"194 514 CURVE SMOOTH",
"122 142 LINE SMOOTH",
"114 99.333 OFFCURVE",
"105.333 68.333 OFFCURVE",
"96 49 CURVE SMOOTH",
"90.667 37 OFFCURVE",
"43.667 24 OFFCURVE",
"29 24 CURVE SMOOTH",
"25.667 24 OFFCURVE",
"24 17.667 OFFCURVE",
"24 5 CURVE SMOOTH",
"24 0.333 OFFCURVE",
"24.333 -2.333 OFFCURVE",
"25 -3 CURVE",
"99 0.333 OFFCURVE",
"136 2 OFFCURVE",
"136 2 CURVE"
);
}
);
width = 503;
}
);
note = F;
unicode = 0046;
},
{
glyphname = G;
lastChange = "2018-12-17 16:21:40 +0000";
layers = (
{
background = {
paths = (
{
closed = 1;
nodes = (
"340 667 OFFCURVE",
"162 542 OFFCURVE",
"60 351 OFFCURVE",
"60 254 QCURVE SMOOTH",
"60 143 OFFCURVE",
"193 -6 OFFCURVE",
"299 -6 QCURVE SMOOTH",
"323 -6 OFFCURVE",
"368 -3 OFFCURVE",
"400 0 OFFCURVE",
"438 8 OFFCURVE",
"458 12 OFFCURVE",
"493 23 OFFCURVE",
"503 27 OFFCURVE",
"538 40 OFFCURVE",
"540 41 QCURVE",
"550 45 OFFCURVE",
"561 53 OFFCURVE",
"563 58 OFFCURVE",
"563 63 QCURVE SMOOTH",
"563 66 OFFCURVE",
"561 83 OFFCURVE",
"561 90 QCURVE SMOOTH",
"561 91 OFFCURVE",
"562 96 OFFCURVE",
"562 97 QCURVE",
"586 236 LINE SMOOTH",
"589 255 OFFCURVE",
"643 274 OFFCURVE",
"660 274 QCURVE SMOOTH",
"666 274 OFFCURVE",
"666 301 QCURVE",
"571 296 OFFCURVE",
"557 296 QCURVE SMOOTH",
"556 296 OFFCURVE",
"448 301 QCURVE",
"440 293 OFFCURVE",
"440 279 QCURVE SMOOTH",
"440 274 OFFCURVE",
"442 274 QCURVE SMOOTH",
"455 274 OFFCURVE",
"511 257 OFFCURVE",
"511 248 QCURVE SMOOTH",
"511 242 OFFCURVE",
"509 227 OFFCURVE",
"508 222 QCURVE",
"507 218 LINE",
"479 76 LINE SMOOTH",
"476 63 OFFCURVE",
"468 59 QCURVE SMOOTH",
"425 37 OFFCURVE",
"343 37 QCURVE SMOOTH",
"255 37 OFFCURVE",
"155 177 OFFCURVE",
"155 273 QCURVE SMOOTH",
"155 353 OFFCURVE",
"230 516 OFFCURVE",
"361 625 OFFCURVE",
"434 625 QCURVE SMOOTH",
"480 625 OFFCURVE",
"546 601 OFFCURVE",
"577 571 OFFCURVE",
"595 526 OFFCURVE",
"597 503 OFFCURVE",
"597 488 QCURVE",
"599 483 OFFCURVE",
"608 483 QCURVE SMOOTH",
"630 483 OFFCURVE",
"631 492 QCURVE",
"637 523 OFFCURVE",
"652 622 QCURVE",
"507 667 OFFCURVE",
"439 667 QCURVE SMOOTH"
);
}
);
};
layerId = "02396921-8257-42A3-8ED5-3052446F9CE3";
paths = (
{
closed = 1;
nodes = (
"307 667 OFFCURVE",
"179 573.833 OFFCURVE",
"111 446.5 CURVE SMOOTH",
"77 382.833 OFFCURVE",
"60 318.667 OFFCURVE",
"60 254 CURVE SMOOTH",
"60 106 OFFCURVE",
"157.667 -6 OFFCURVE",
"299 -6 CURVE SMOOTH",
"361.175 -6 OFFCURVE",
"397.105 -0.179 OFFCURVE",
"448 10 CURVE SMOOTH",
"462.66 12.932 OFFCURVE",
"528.841 35.421 OFFCURVE",
"540 41 CURVE",
"556.006 47.402 OFFCURVE",
"563 52.299 OFFCURVE",
"563 63 CURVE SMOOTH",
"563 65 OFFCURVE",
"562.667 68.833 OFFCURVE",
"562 74.5 CURVE SMOOTH",
"561.333 80.167 OFFCURVE",
"561 85.333 OFFCURVE",
"561 90 CURVE SMOOTH",
"561 90.667 OFFCURVE",
"561.167 91.833 OFFCURVE",
"561.5 93.5 CURVE SMOOTH",
"561.833 95.167 OFFCURVE",
"562 96.333 OFFCURVE",
"562 97 CURVE",
"586 236 LINE SMOOTH",
"590 261.333 OFFCURVE",
"637.333 274 OFFCURVE",
"660 274 CURVE SMOOTH",
"664 274 OFFCURVE",
"666 283 OFFCURVE",
"666 301 CURVE",
"602.667 297.667 OFFCURVE",
"566.333 296 OFFCURVE",
"557 296 CURVE SMOOTH",
"556.333 296 OFFCURVE",
"520 297.667 OFFCURVE",
"448 301 CURVE",
"442.667 295.667 OFFCURVE",
"440 288.333 OFFCURVE",
"440 279 CURVE SMOOTH",
"440 275.667 OFFCURVE",
"440.667 274 OFFCURVE",
"442 274 CURVE SMOOTH",
"459.333 274 OFFCURVE",
"511 260 OFFCURVE",
"511 248 CURVE SMOOTH",
"511 240 OFFCURVE",
"509.333 228.667 OFFCURVE",
"508 222 CURVE",
"507 218 LINE",
"479 76 LINE SMOOTH",
"477 67.333 OFFCURVE",
"473.333 61.667 OFFCURVE",
"468 59 CURVE SMOOTH",
"439.333 44.333 OFFCURVE",
"397.667 37 OFFCURVE",
"343 37 CURVE SMOOTH",
"225.667 37 OFFCURVE",
"155 145 OFFCURVE",
"155 273 CURVE SMOOTH",
"155 379.667 OFFCURVE",
"208.167 497.833 OFFCURVE",
"295.5 570.5 CURVE SMOOTH",
"339.167 606.833 OFFCURVE",
"385.333 625 OFFCURVE",
"434 625 CURVE SMOOTH",
"495.333 625 OFFCURVE",
"540.833 606 OFFCURVE",
"561.5 586 CURVE SMOOTH",
"582.167 566 OFFCURVE",
"594.333 538.667 OFFCURVE",
"597 488 CURVE",
"598.333 484.667 OFFCURVE",
"602 483 OFFCURVE",
"608 483 CURVE SMOOTH",
"622.667 483 OFFCURVE",
"630.333 486 OFFCURVE",
"631 492 CURVE",
"635 512.667 OFFCURVE",
"642 556 OFFCURVE",
"652 622 CURVE",
"555.333 652 OFFCURVE",
"484.333 667 OFFCURVE",
"439 667 CURVE SMOOTH"
);
}
);
width = 616;
}
);
note = G;
unicode = 0047;
},
{
glyphname = H;
lastChange = "2018-12-17 16:21:40 +0000";
layers = (
{
background = {
paths = (
{
closed = 1;
nodes = (
"300 365 OFFCURVE",
"247 368 OFFCURVE",
"247 373 QCURVE SMOOTH",
"247 374 LINE",
"272 515 LINE SMOOTH",
"282 571 OFFCURVE",
"298 608 QCURVE SMOOTH",
"301 615 OFFCURVE",
"352 631 OFFCURVE",
"360 631 QCURVE SMOOTH",
"367 631 OFFCURVE",
"367 655 QCURVE SMOOTH",
"367 658 LINE",
"360 658 OFFCURVE",
"285 652 OFFCURVE",
"261 652 QCURVE SMOOTH",
"236 652 OFFCURVE",
"165 657 OFFCURVE",
"153 658 QCURVE",
"145 650 OFFCURVE",
"145 636 QCURVE SMOOTH",
"145 631 OFFCURVE",
"147 631 QCURVE SMOOTH",
"160 631 OFFCURVE",
"203 615 OFFCURVE",
"203 604 QCURVE SMOOTH",
"203 567 OFFCURVE",
"192 512 QCURVE SMOOTH",
"121 142 LINE SMOOTH",
"110 80 OFFCURVE",
"95 46 QCURVE SMOOTH",
"91 37 OFFCURVE",
"43 24 OFFCURVE",
"31 24 QCURVE SMOOTH",
"24 24 OFFCURVE",
"24 5 QCURVE SMOOTH",
"24 -1 OFFCURVE",
"26 -3 QCURVE",
"134 2 OFFCURVE",
"136 2 QCURVE SMOOTH",
"148 2 OFFCURVE",
"240 -3 QCURVE",
"246 9 OFFCURVE",
"246 20 QCURVE SMOOTH",
"246 24 OFFCURVE",
"244 24 QCURVE",
"230 26 LINE SMOOTH",
"217 28 OFFCURVE",
"190 41 OFFCURVE",
"190 49 QCURVE SMOOTH",
"190 84 OFFCURVE",
"201 139 QCURVE SMOOTH",
"233 304 LINE SMOOTH",
"235 316 OFFCURVE",
"379 316 QCURVE SMOOTH",
"469 316 OFFCURVE",
"516 313 OFFCURVE",
"516 308 QCURVE SMOOTH",
"516 307 LINE",
"484 142 LINE SMOOTH",
"473 80 OFFCURVE",
"458 46 QCURVE SMOOTH",
"454 37 OFFCURVE",
"406 24 OFFCURVE",
"394 24 QCURVE SMOOTH",
"387 24 OFFCURVE",
"387 5 QCURVE SMOOTH",
"387 -1 OFFCURVE",
"389 -3 QCURVE",
"496 2 OFFCURVE",
"499 2 QCURVE SMOOTH",
"510 2 OFFCURVE",
"603 -3 QCURVE",
"609 9 OFFCURVE",
"609 20 QCURVE SMOOTH",
"609 24 OFFCURVE",
"607 24 QCURVE",
"594 26 LINE SMOOTH",
"580 28 OFFCURVE",
"553 41 OFFCURVE",
"553 49 QCURVE SMOOTH",
"553 84 OFFCURVE",
"564 139 QCURVE SMOOTH",
"637 515 LINE SMOOTH",
"648 575 OFFCURVE",
"663 608 QCURVE SMOOTH",
"666 615 OFFCURVE",
"716 631 OFFCURVE",
"724 631 QCURVE SMOOTH",
"731 631 OFFCURVE",
"731 655 QCURVE SMOOTH",
"731 658 LINE",
"725 658 OFFCURVE",
"648 652 OFFCURVE",
"624 652 QCURVE SMOOTH",
"599 652 OFFCURVE",
"528 657 OFFCURVE",
"516 658 QCURVE",
"508 650 OFFCURVE",
"508 636 QCURVE SMOOTH",
"508 631 OFFCURVE",
"510 631 QCURVE SMOOTH",
"523 631 OFFCURVE",
"566 615 OFFCURVE",
"566 604 QCURVE SMOOTH",
"566 567 OFFCURVE",
"555 512 QCURVE SMOOTH",
"528 373 LINE",
"527 365 OFFCURVE",
"397 365 QCURVE SMOOTH"
);
}
);
};
layerId = "02396921-8257-42A3-8ED5-3052446F9CE3";
paths = (
{
closed = 1;
nodes = (
"332.333 365 OFFCURVE",
"291.167 365.5 OFFCURVE",
"273.5 366.5 CURVE SMOOTH",
"255.833 367.5 OFFCURVE",
"247 369.667 OFFCURVE",
"247 373 CURVE SMOOTH",
"247 374 LINE",
"272 515 LINE SMOOTH",
"278.667 552.333 OFFCURVE",
"287.333 583.333 OFFCURVE",
"298 608 CURVE SMOOTH",
"302 617.333 OFFCURVE",
"349.333 631 OFFCURVE",
"360 631 CURVE SMOOTH",
"364.667 631 OFFCURVE",
"367 639 OFFCURVE",
"367 655 CURVE SMOOTH",
"367 658 LINE",
"362.333 658 OFFCURVE",
"347.5 657 OFFCURVE",
"322.5 655 CURVE SMOOTH",
"297.5 653 OFFCURVE",
"277 652 OFFCURVE",
"261 652 CURVE SMOOTH",
"227.667 652 OFFCURVE",
"169 656.667 OFFCURVE",
"153 658 CURVE",
"147.667 652.667 OFFCURVE",
"145 645.333 OFFCURVE",
"145 636 CURVE SMOOTH",
"145 632.667 OFFCURVE",
"145.667 631 OFFCURVE",
"147 631 CURVE SMOOTH",
"164.333 631 OFFCURVE",
"203 618.667 OFFCURVE",
"203 604 CURVE SMOOTH",
"203 579.333 OFFCURVE",
"199.333 548.667 OFFCURVE",
"192 512 CURVE SMOOTH",
"121 142 LINE SMOOTH",
"113.667 100.667 OFFCURVE",
"105 68.667 OFFCURVE",
"95 46 CURVE SMOOTH",
"89.667 34 OFFCURVE",
"47 24 OFFCURVE",
"31 24 CURVE SMOOTH",
"26.333 24 OFFCURVE",
"24 17.667 OFFCURVE",
"24 5 CURVE SMOOTH",
"24 1 OFFCURVE",
"24.667 -1.667 OFFCURVE",
"26 -3 CURVE",
"98 0.333 OFFCURVE",
"134.667 2 OFFCURVE",
"136 2 CURVE SMOOTH",
"144 2 OFFCURVE",
"178.667 0.333 OFFCURVE",
"240 -3 CURVE",
"244 5 OFFCURVE",
"246 12.667 OFFCURVE",
"246 20 CURVE SMOOTH",
"246 22.667 OFFCURVE",
"245.333 24 OFFCURVE",
"244 24 CURVE",
"230 26 LINE SMOOTH",
"212.667 28.667 OFFCURVE",
"190 38.333 OFFCURVE",
"190 49 CURVE SMOOTH",
"190 72.333 OFFCURVE",
"193.667 102.333 OFFCURVE",
"201 139 CURVE SMOOTH",
"233 304 LINE SMOOTH",
"234.333 312 OFFCURVE",
"283 316 OFFCURVE",
"379 316 CURVE SMOOTH",
"439 316 OFFCURVE",
"476.833 315.5 OFFCURVE",
"492.5 314.5 CURVE SMOOTH",
"508.167 313.5 OFFCURVE",
"516 311.333 OFFCURVE",
"516 308 CURVE SMOOTH",
"516 307 LINE",
"484 142 LINE SMOOTH",
"476.667 100.667 OFFCURVE",
"468 68.667 OFFCURVE",
"458 46 CURVE SMOOTH",
"452.667 34 OFFCURVE",
"410 24 OFFCURVE",
"394 24 CURVE SMOOTH",
"389.333 24 OFFCURVE",
"387 17.667 OFFCURVE",
"387 5 CURVE SMOOTH",
"387 1 OFFCURVE",
"387.667 -1.667 OFFCURVE",
"389 -3 CURVE",
"460.333 0.333 OFFCURVE",
"497 2 OFFCURVE",
"499 2 CURVE SMOOTH",
"506.333 2 OFFCURVE",
"541 0.333 OFFCURVE",
"603 -3 CURVE",
"607 5 OFFCURVE",
"609 12.667 OFFCURVE",
"609 20 CURVE SMOOTH",
"609 22.667 OFFCURVE",
"608.333 24 OFFCURVE",
"607 24 CURVE",
"594 26 LINE SMOOTH",
"575.333 28.667 OFFCURVE",
"553 38.333 OFFCURVE",
"553 49 CURVE SMOOTH",
"553 72.333 OFFCURVE",
"556.667 102.333 OFFCURVE",
"564 139 CURVE SMOOTH",
"637 515 LINE SMOOTH",
"644.333 555 OFFCURVE",
"653 586 OFFCURVE",
"663 608 CURVE SMOOTH",
"667 617.333 OFFCURVE",
"713.333 631 OFFCURVE",
"724 631 CURVE SMOOTH",
"728.667 631 OFFCURVE",
"731 639 OFFCURVE",
"731 655 CURVE SMOOTH",
"731 658 LINE",
"727 658 OFFCURVE",
"712.167 657 OFFCURVE",
"686.5 655 CURVE SMOOTH",
"660.833 653 OFFCURVE",
"640 652 OFFCURVE",
"624 652 CURVE SMOOTH",
"590.667 652 OFFCURVE",
"532 656.667 OFFCURVE",
"516 658 CURVE",
"510.667 652.667 OFFCURVE",
"508 645.333 OFFCURVE",
"508 636 CURVE SMOOTH",
"508 632.667 OFFCURVE",
"508.667 631 OFFCURVE",
"510 631 CURVE SMOOTH",
"527.333 631 OFFCURVE",
"566 618.667 OFFCURVE",
"566 604 CURVE SMOOTH",
"566 579.333 OFFCURVE",
"562.333 548.667 OFFCURVE",
"555 512 CURVE SMOOTH",
"528 373 LINE",
"527.333 367.667 OFFCURVE",
"483.667 365 OFFCURVE",
"397 365 CURVE SMOOTH"
);
}
);
width = 627;
}
);
note = H;
unicode = 0048;
},
{
glyphname = Hbar;
lastChange = "2018-12-17 16:21:40 +0000";
layers = (
{
background = {
paths = (
{
closed = 1;
nodes = (
"691 470 LINE",
"700 481 OFFCURVE",
"702 495 QCURVE",
"705 508 OFFCURVE",
"699 508 QCURVE SMOOTH",
"661 508 LINE",
"676 583 OFFCURVE",
"689 612 QCURVE SMOOTH",
"692 619 OFFCURVE",
"744 633 OFFCURVE",
"753 633 QCURVE SMOOTH",
"757 633 OFFCURVE",
"759 647 QCURVE",
"760 652 OFFCURVE",
"760 662 QCURVE",
"754 662 OFFCURVE",
"677 656 OFFCURVE",
"653 656 QCURVE SMOOTH",
"628 656 OFFCURVE",
"553 661 OFFCURVE",
"542 662 QCURVE",
"539 660 OFFCURVE",
"534 645 OFFCURVE",
"534 634 OFFCURVE",
"536 633 QCURVE",
"548 633 OFFCURVE",
"593 620 OFFCURVE",
"594 612 QCURVE",
"595 586 OFFCURVE",
"580 508 QCURVE",
"543 507 OFFCURVE",
"441 507 QCURVE SMOOTH",
"309 507 OFFCURVE",
"298 508 QCURVE",
"312 580 OFFCURVE",
"326 612 QCURVE SMOOTH",
"329 619 OFFCURVE",
"381 633 OFFCURVE",
"390 633 QCURVE SMOOTH",
"393 633 OFFCURVE",
"398 657 OFFCURVE",
"397 662 QCURVE",
"384 661 OFFCURVE",
"342 658 OFFCURVE",
"306 656 OFFCURVE",
"288 656 QCURVE SMOOTH",
"263 656 OFFCURVE",
"189 661 OFFCURVE",
"178 662 QCURVE",
"173 657 OFFCURVE",
"171 646 QCURVE SMOOTH",
"169 633 OFFCURVE",
"172 633 QCURVE SMOOTH",
"184 633 OFFCURVE",
"229 620 OFFCURVE",
"230 612 QCURVE",
"231 579 OFFCURVE",
"217 508 QCURVE",
"186 508 LINE",
"179 498 OFFCURVE",
"176 483 QCURVE SMOOTH",
"173 470 OFFCURVE",
"178 470 QCURVE SMOOTH",
"209 470 LINE",
"144 135 LINE SMOOTH",
"135 80 OFFCURVE",
"120 46 QCURVE",
"115 38 OFFCURVE",
"66 26 OFFCURVE",
"54 26 QCURVE SMOOTH",
"50 26 OFFCURVE",
"48 12 QCURVE",
"46 2 OFFCURVE",
"49 -3 QCURVE",
"156 2 OFFCURVE",
"161 2 QCURVE SMOOTH",
"176 2 OFFCURVE",
"268 -3 QCURVE",
"271 3 OFFCURVE",
"275 25 OFFCURVE",
"272 26 QCURVE",
"263 26 OFFCURVE",
"217 39 OFFCURVE",
"216 46 QCURVE",
"215 81 OFFCURVE",
"226 139 QCURVE SMOOTH",
"256 294 LINE SMOOTH",
"257 299 OFFCURVE",
"400 299 QCURVE SMOOTH",
"450 299 OFFCURVE",
"538 297 QCURVE",
"539 293 LINE",
"508 135 LINE SMOOTH",
"499 80 OFFCURVE",
"484 46 QCURVE",
"479 38 OFFCURVE",
"430 26 OFFCURVE",
"418 26 QCURVE SMOOTH",
"414 26 OFFCURVE",
"409 1 OFFCURVE",
"412 -3 QCURVE",
"520 2 OFFCURVE",
"526 2 QCURVE SMOOTH",
"538 2 OFFCURVE",
"631 -3 QCURVE",
"633 0 OFFCURVE",
"635 11 QCURVE SMOOTH",
"638 26 OFFCURVE",
"635 26 QCURVE SMOOTH",
"626 26 OFFCURVE",
"580 39 OFFCURVE",
"579 46 QCURVE",
"578 77 OFFCURVE",
"590 139 QCURVE SMOOTH",
"654 470 LINE"
);
},
{
closed = 1;
nodes = (
"535 471 OFFCURVE",
"573 470 QCURVE",
"550 353 LINE",
"550 351 OFFCURVE",
"548 349 QCURVE",
"464 347 OFFCURVE",
"410 347 QCURVE SMOOTH",
"359 347 OFFCURVE",
"269 349 QCURVE SMOOTH",
"267 349 OFFCURVE",
"267 352 QCURVE",
"290 470 LINE",
"332 471 OFFCURVE",
"434 471 QCURVE SMOOTH"
);
}
);
};
layerId = "02396921-8257-42A3-8ED5-3052446F9CE3";
paths = (
{
closed = 1;
nodes = (
"691 470 LINE",
"697 477.333 OFFCURVE",
"700.667 485.667 OFFCURVE",
"702 495 CURVE",
"704 503.667 OFFCURVE",
"703 508 OFFCURVE",
"699 508 CURVE SMOOTH",
"661 508 LINE",
"671 558 OFFCURVE",
"680.333 592.667 OFFCURVE",
"689 612 CURVE SMOOTH",
"693 621.333 OFFCURVE",
"741 633 OFFCURVE",
"753 633 CURVE SMOOTH",
"755.667 633 OFFCURVE",
"757.667 637.667 OFFCURVE",
"759 647 CURVE",
"759.667 650.333 OFFCURVE",
"760 655.333 OFFCURVE",
"760 662 CURVE",
"756 662 OFFCURVE",
"741.167 661 OFFCURVE",
"715.5 659 CURVE SMOOTH",
"689.833 657 OFFCURVE",
"669 656 OFFCURVE",
"653 656 CURVE SMOOTH",
"619.667 656 OFFCURVE",
"556.667 660.667 OFFCURVE",
"542 662 CURVE",
"536.453 658.302 OFFCURVE",
"530.99 635.505 OFFCURVE",
"536 633 CURVE",
"552 633 OFFCURVE",
"592.667 622.667 OFFCURVE",
"594 612 CURVE",
"594.667 594.667 OFFCURVE",
"590 560 OFFCURVE",
"580 508 CURVE",
"555.333 507.333 OFFCURVE",
"509 507 OFFCURVE",
"441 507 CURVE SMOOTH",
"353 507 OFFCURVE",
"305.333 507.333 OFFCURVE",
"298 508 CURVE",
"307.333 556 OFFCURVE",
"316.667 590.667 OFFCURVE",
"326 612 CURVE SMOOTH",
"330 621.333 OFFCURVE",
"378 633 OFFCURVE",
"390 633 CURVE SMOOTH",
"394 633 OFFCURVE",
"398.333 655.333 OFFCURVE",
"397 662 CURVE",
"371.052 660.004 OFFCURVE",
"312.053 656 OFFCURVE",
"288 656 CURVE SMOOTH",
"254.667 656 OFFCURVE",
"192.667 660.667 OFFCURVE",
"178 662 CURVE",
"174.667 658.667 OFFCURVE",
"172.333 653.333 OFFCURVE",
"171 646 CURVE SMOOTH",
"169.667 637.333 OFFCURVE",
"170 633 OFFCURVE",
"172 633 CURVE SMOOTH",
"188 633 OFFCURVE",
"228.667 622.667 OFFCURVE",
"230 612 CURVE",
"230.667 590 OFFCURVE",
"226.333 555.333 OFFCURVE",
"217 508 CURVE",
"186 508 LINE",
"181.333 501.333 OFFCURVE",
"178 493 OFFCURVE",
"176 483 CURVE SMOOTH",
"174 474.333 OFFCURVE",
"174.667 470 OFFCURVE",
"178 470 CURVE SMOOTH",
"209 470 LINE",
"144 135 LINE SMOOTH",
"138 98.333 OFFCURVE",
"130 68.667 OFFCURVE",
"120 46 CURVE",
"113.333 35.333 OFFCURVE",
"70 26 OFFCURVE",
"54 26 CURVE SMOOTH",
"51.333 26 OFFCURVE",
"49.333 21.333 OFFCURVE",
"48 12 CURVE",
"46.667 5.333 OFFCURVE",
"47 0.333 OFFCURVE",
"49 -3 CURVE",
"120.333 0.333 OFFCURVE",
"157.667 2 OFFCURVE",
"161 2 CURVE SMOOTH",
"171 2 OFFCURVE",
"206.667 0.333 OFFCURVE",
"268 -3 CURVE",
"272 5 OFFCURVE",
"276 24.667 OFFCURVE",
"272 26 CURVE",
"260 26 OFFCURVE",
"217.333 36.667 OFFCURVE",
"216 46 CURVE",
"215.333 69.333 OFFCURVE",
"218.667 100.333 OFFCURVE",
"226 139 CURVE SMOOTH",
"256 294 LINE SMOOTH",
"256.667 297.333 OFFCURVE",
"304.667 299 OFFCURVE",
"400 299 CURVE SMOOTH",
"433.333 299 OFFCURVE",
"479.333 298.333 OFFCURVE",
"538 297 CURVE",
"539 293 LINE",
"508 135 LINE SMOOTH",
"502 98.333 OFFCURVE",
"494 68.667 OFFCURVE",
"484 46 CURVE",
"477.333 35.333 OFFCURVE",
"434 26 OFFCURVE",
"418 26 CURVE SMOOTH",
"412.667 26 OFFCURVE",
"408 2.333 OFFCURVE",
"412 -3 CURVE",
"484 0.333 OFFCURVE",
"522 2 OFFCURVE",
"526 2 CURVE SMOOTH",
"534 2 OFFCURVE",
"569 0.333 OFFCURVE",
"631 -3 CURVE",
"632.333 -1 OFFCURVE",
"633.667 3.667 OFFCURVE",
"635 11 CURVE SMOOTH",
"637 21 OFFCURVE",
"637 26 OFFCURVE",
"635 26 CURVE SMOOTH",
"623 26 OFFCURVE",
"580.333 36.667 OFFCURVE",
"579 46 CURVE",
"578.333 66.667 OFFCURVE",
"582 97.667 OFFCURVE",
"590 139 CURVE SMOOTH",
"654 470 LINE"
);
},
{
closed = 1;
nodes = (
"501.333 471 OFFCURVE",
"547.667 470.667 OFFCURVE",
"573 470 CURVE",
"550 353 LINE",
"550 351.667 OFFCURVE",
"549.333 350.333 OFFCURVE",
"548 349 CURVE",
"492 347.667 OFFCURVE",
"446 347 OFFCURVE",
"410 347 CURVE SMOOTH",
"376 347 OFFCURVE",
"329 347.667 OFFCURVE",
"269 349 CURVE SMOOTH",
"267.667 349 OFFCURVE",
"267 350 OFFCURVE",
"267 352 CURVE",
"290 470 LINE",
"318 470.667 OFFCURVE",
"366 471 OFFCURVE",
"434 471 CURVE SMOOTH"
);
}
);
width = 684;
}
);
note = Hbar;
unicode = 0126;
},
{
glyphname = I;
lastChange = "2018-12-17 16:21:40 +0000";
layers = (
{
background = {
paths = (
{
closed = 1;
nodes = (
"285 580 OFFCURVE",
"298 608 QCURVE SMOOTH",
"301 615 OFFCURVE",
"352 631 OFFCURVE",
"360 631 QCURVE SMOOTH",
"367 631 OFFCURVE",
"367 655 QCURVE SMOOTH",
"367 658 LINE",
"360 658 OFFCURVE",
"285 652 OFFCURVE",
"261 652 QCURVE SMOOTH",
"236 652 OFFCURVE",
"165 657 OFFCURVE",
"153 658 QCURVE",
"145 650 OFFCURVE",
"145 636 QCURVE SMOOTH",
"145 631 OFFCURVE",
"147 631 QCURVE SMOOTH",
"160 631 OFFCURVE",
"203 615 OFFCURVE",
"203 604 QCURVE SMOOTH",
"203 567 OFFCURVE",
"192 512 QCURVE SMOOTH",
"121 142 LINE SMOOTH",
"110 80 OFFCURVE",
"95 46 QCURVE SMOOTH",
"91 37 OFFCURVE",
"43 24 OFFCURVE",
"31 24 QCURVE SMOOTH",
"24 24 OFFCURVE",
"24 5 QCURVE SMOOTH",
"24 -1 OFFCURVE",
"26 -3 QCURVE",
"134 2 OFFCURVE",
"136 2 QCURVE SMOOTH",
"148 2 OFFCURVE",
"240 -3 QCURVE",
"246 9 OFFCURVE",
"246 20 QCURVE SMOOTH",
"246 24 OFFCURVE",
"244 24 QCURVE",
"230 26 LINE SMOOTH",
"217 28 OFFCURVE",
"190 41 OFFCURVE",
"190 49 QCURVE SMOOTH",
"190 84 OFFCURVE",
"201 139 QCURVE SMOOTH",
"272 515 LINE SMOOTH"
);
}
);
};
layerId = "02396921-8257-42A3-8ED5-3052446F9CE3";
paths = (
{
closed = 1;
nodes = (
"280.667 558.333 OFFCURVE",
"289.333 589.333 OFFCURVE",
"298 608 CURVE SMOOTH",
"302 617.333 OFFCURVE",
"349.333 631 OFFCURVE",
"360 631 CURVE SMOOTH",
"364.667 631 OFFCURVE",
"367 639 OFFCURVE",
"367 655 CURVE SMOOTH",
"367 658 LINE",
"362.333 658 OFFCURVE",
"347.5 657 OFFCURVE",
"322.5 655 CURVE SMOOTH",
"297.5 653 OFFCURVE",
"277 652 OFFCURVE",
"261 652 CURVE SMOOTH",
"227.667 652 OFFCURVE",
"169 656.667 OFFCURVE",
"153 658 CURVE",
"147.667 652.667 OFFCURVE",
"145 645.333 OFFCURVE",
"145 636 CURVE SMOOTH",
"145 632.667 OFFCURVE",
"145.667 631 OFFCURVE",
"147 631 CURVE SMOOTH",
"164.333 631 OFFCURVE",
"203 618.667 OFFCURVE",
"203 604 CURVE SMOOTH",
"203 579.333 OFFCURVE",
"199.333 548.667 OFFCURVE",
"192 512 CURVE SMOOTH",
"121 142 LINE SMOOTH",
"113.667 100.667 OFFCURVE",
"105 68.667 OFFCURVE",
"95 46 CURVE SMOOTH",
"89.667 34 OFFCURVE",
"47 24 OFFCURVE",
"31 24 CURVE SMOOTH",
"26.333 24 OFFCURVE",
"24 17.667 OFFCURVE",
"24 5 CURVE SMOOTH",
"24 1 OFFCURVE",
"24.667 -1.667 OFFCURVE",
"26 -3 CURVE",
"98 0.333 OFFCURVE",
"134.667 2 OFFCURVE",
"136 2 CURVE SMOOTH",
"144 2 OFFCURVE",
"178.667 0.333 OFFCURVE",
"240 -3 CURVE",
"244 5 OFFCURVE",
"246 12.667 OFFCURVE",
"246 20 CURVE SMOOTH",
"246 22.667 OFFCURVE",
"245.333 24 OFFCURVE",
"244 24 CURVE",
"230 26 LINE SMOOTH",
"212.667 28.667 OFFCURVE",
"190 38.333 OFFCURVE",
"190 49 CURVE SMOOTH",
"190 72.333 OFFCURVE",
"193.667 102.333 OFFCURVE",
"201 139 CURVE SMOOTH",
"272 515 LINE SMOOTH"
);
}
);
width = 263;
}
);
note = I;
unicode = 0049;
},
{
glyphname = Iogonek;
lastChange = "2018-12-17 16:21:40 +0000";
layers = (
{
background = {
paths = (
{
closed = 1;
nodes = (
"258 580 OFFCURVE",
"271 608 QCURVE SMOOTH",
"274 615 OFFCURVE",
"325 631 OFFCURVE",
"333 631 QCURVE SMOOTH",
"340 631 OFFCURVE",
"340 655 QCURVE SMOOTH",
"340 658 LINE",
"333 658 OFFCURVE",
"258 652 OFFCURVE",
"234 652 QCURVE SMOOTH",
"209 652 OFFCURVE",
"138 657 OFFCURVE",
"126 658 QCURVE",
"118 650 OFFCURVE",
"118 636 QCURVE SMOOTH",
"118 631 OFFCURVE",
"120 631 QCURVE SMOOTH",
"133 631 OFFCURVE",
"176 615 OFFCURVE",
"176 604 QCURVE SMOOTH",
"176 567 OFFCURVE",
"165 512 QCURVE SMOOTH",
"94 142 LINE SMOOTH",
"83 80 OFFCURVE",
"68 46 QCURVE SMOOTH",
"64 37 OFFCURVE",
"16 24 OFFCURVE",
"4 24 QCURVE SMOOTH",
"-3 24 OFFCURVE",
"-3 5 QCURVE SMOOTH",
"-3 -1 OFFCURVE",
"-1 -3 QCURVE",
"106 2 OFFCURVE",
"109 2 QCURVE",
"66 -19 OFFCURVE",
"-13 -134 OFFCURVE",
"-13 -180 QCURVE SMOOTH",
"-13 -201 OFFCURVE",
"15 -230 OFFCURVE",
"37 -230 QCURVE SMOOTH",
"88 -230 OFFCURVE",
"148 -163 QCURVE",
"151 -160 OFFCURVE",
"159 -134 OFFCURVE",
"154 -133 QCURVE",
"153 -133 OFFCURVE",
"130 -152 OFFCURVE",
"92 -171 OFFCURVE",
"71 -171 QCURVE SMOOTH",
"40 -171 OFFCURVE",
"40 -139 QCURVE SMOOTH",
"40 -106 OFFCURVE",
"114 -25 OFFCURVE",
"166 -10 QCURVE SMOOTH",
"192 -3 OFFCURVE",
"213 -3 QCURVE",
"219 9 OFFCURVE",
"219 20 QCURVE SMOOTH",
"219 24 OFFCURVE",
"217 24 QCURVE",
"204 26 LINE SMOOTH",
"190 28 OFFCURVE",
"163 41 OFFCURVE",
"163 49 QCURVE SMOOTH",
"163 84 OFFCURVE",
"174 139 QCURVE SMOOTH",
"245 515 LINE SMOOTH"
);
}
);
};
layerId = "02396921-8257-42A3-8ED5-3052446F9CE3";
paths = (
{
closed = 1;
nodes = (
"253.667 558.333 OFFCURVE",
"262.333 589.333 OFFCURVE",
"271 608 CURVE SMOOTH",
"275 617.333 OFFCURVE",
"322.333 631 OFFCURVE",
"333 631 CURVE SMOOTH",
"337.667 631 OFFCURVE",
"340 639 OFFCURVE",
"340 655 CURVE SMOOTH",
"340 658 LINE",
"335.333 658 OFFCURVE",
"320.5 657 OFFCURVE",
"295.5 655 CURVE SMOOTH",
"270.5 653 OFFCURVE",
"250 652 OFFCURVE",
"234 652 CURVE SMOOTH",
"200.667 652 OFFCURVE",
"142 656.667 OFFCURVE",
"126 658 CURVE",
"120.667 652.667 OFFCURVE",
"118 645.333 OFFCURVE",
"118 636 CURVE SMOOTH",
"118 632.667 OFFCURVE",
"118.667 631 OFFCURVE",
"120 631 CURVE SMOOTH",
"137.333 631 OFFCURVE",
"176 618.667 OFFCURVE",
"176 604 CURVE SMOOTH",
"176 579.333 OFFCURVE",
"172.333 548.667 OFFCURVE",
"165 512 CURVE SMOOTH",
"94 142 LINE SMOOTH",
"86.667 100.667 OFFCURVE",
"78 68.667 OFFCURVE",
"68 46 CURVE SMOOTH",
"62.667 34 OFFCURVE",
"20 24 OFFCURVE",
"4 24 CURVE SMOOTH",
"-0.667 24 OFFCURVE",
"-3 17.667 OFFCURVE",
"-3 5 CURVE SMOOTH",
"-3 1 OFFCURVE",
"-2.333 -1.667 OFFCURVE",
"-1 -3 CURVE",
"70.333 0.333 OFFCURVE",
"107 2 OFFCURVE",
"109 2 CURVE",
"51.667 -26 OFFCURVE",
"-13 -118.667 OFFCURVE",
"-13 -180 CURVE SMOOTH",
"-13 -208 OFFCURVE",
"7.667 -230 OFFCURVE",
"37 -230 CURVE SMOOTH",
"71 -230 OFFCURVE",
"108 -207.667 OFFCURVE",
"148 -163 CURVE",
"152 -159 OFFCURVE",
"160.667 -134.333 OFFCURVE",
"154 -133 CURVE",
"147.42 -133 OFFCURVE",
"95.268 -171 OFFCURVE",
"71 -171 CURVE SMOOTH",
"50.333 -171 OFFCURVE",
"40 -160.333 OFFCURVE",
"40 -139 CURVE SMOOTH",
"40 -95 OFFCURVE",
"96.667 -30 OFFCURVE",
"166 -10 CURVE SMOOTH",
"183.333 -5.333 OFFCURVE",
"199 -3 OFFCURVE",
"213 -3 CURVE",
"217 5 OFFCURVE",
"219 12.667 OFFCURVE",
"219 20 CURVE SMOOTH",
"219 22.667 OFFCURVE",
"218.333 24 OFFCURVE",
"217 24 CURVE",
"204 26 LINE SMOOTH",
"185.333 28.667 OFFCURVE",
"163 38.333 OFFCURVE",
"163 49 CURVE SMOOTH",
"163 72.333 OFFCURVE",
"166.667 102.333 OFFCURVE",
"174 139 CURVE SMOOTH",
"245 515 LINE SMOOTH"
);
}
);
width = 341;
}
);
note = Iogonek;
unicode = 012E;
},
{
glyphname = J;
lastChange = "2018-12-17 16:21:40 +0000";
layers = (
{
background = {
paths = (
{
closed = 1;
nodes = (
"87 -39 OFFCURVE",
"3 -183 OFFCURVE",
"-79 -209 QCURVE",
"-80 -215 LINE",
"-80 -226 OFFCURVE",
"-74 -233 QCURVE",
"-48 -233 OFFCURVE",
"8 -212 OFFCURVE",
"73 -160 OFFCURVE",
"130 -83 OFFCURVE",
"181 40 OFFCURVE",
"195 116 QCURVE SMOOTH",
"270 515 LINE SMOOTH",
"280 571 OFFCURVE",
"296 608 QCURVE SMOOTH",
"299 615 OFFCURVE",
"343 631 OFFCURVE",
"351 631 QCURVE SMOOTH",
"358 631 OFFCURVE",
"358 655 QCURVE SMOOTH",
"358 658 LINE",
"351 658 OFFCURVE",
"276 652 OFFCURVE",
"252 652 QCURVE SMOOTH",
"227 652 OFFCURVE",
"156 657 OFFCURVE",
"144 658 QCURVE",
"136 650 OFFCURVE",
"136 636 QCURVE SMOOTH",
"136 631 OFFCURVE",
"138 631 QCURVE SMOOTH",
"151 631 OFFCURVE",
"201 615 OFFCURVE",
"201 604 QCURVE SMOOTH",
"201 576 OFFCURVE",
"190 512 QCURVE SMOOTH",
"115 109 LINE SMOOTH"
);
}
);
};
layerId = "02396921-8257-42A3-8ED5-3052446F9CE3";
paths = (
{
closed = 1;
nodes = (
"77.667 -88.333 OFFCURVE",
"30.333 -174.333 OFFCURVE",
"-79 -209 CURVE",
"-80 -215 LINE",
"-80 -222.333 OFFCURVE",
"-78 -228.333 OFFCURVE",
"-74 -233 CURVE",
"-39.333 -233 OFFCURVE",
"-2.833 -220.667 OFFCURVE",
"40.5 -186 CURVE SMOOTH",
"62.167 -168.667 OFFCURVE",
"82.5 -147.167 OFFCURVE",
"101.5 -121.5 CURVE SMOOTH",
"120.5 -95.833 OFFCURVE",
"151.667 -16.667 OFFCURVE",
"195 116 CURVE",
"270 515 LINE SMOOTH",
"276.667 552.333 OFFCURVE",
"285.333 583.333 OFFCURVE",
"296 608 CURVE SMOOTH",
"300 617.333 OFFCURVE",
"340.333 631 OFFCURVE",
"351 631 CURVE SMOOTH",
"355.667 631 OFFCURVE",
"358 639 OFFCURVE",
"358 655 CURVE SMOOTH",
"358 658 LINE",
"353.333 658 OFFCURVE",
"338.5 657 OFFCURVE",
"313.5 655 CURVE SMOOTH",
"288.5 653 OFFCURVE",
"268 652 OFFCURVE",
"252 652 CURVE SMOOTH",
"218.667 652 OFFCURVE",
"160 656.667 OFFCURVE",
"144 658 CURVE",
"138.667 652.667 OFFCURVE",
"136 645.333 OFFCURVE",
"136 636 CURVE SMOOTH",
"136 632.667 OFFCURVE",
"136.667 631 OFFCURVE",
"138 631 CURVE SMOOTH",
"155.333 631 OFFCURVE",
"201 618.667 OFFCURVE",
"201 604 CURVE SMOOTH",
"201 585.333 OFFCURVE",
"197.333 554.667 OFFCURVE",
"190 512 CURVE SMOOTH",
"115 109 LINE SMOOTH"
);
}
);
width = 254;
}
);
note = J;
unicode = 004A;
},
{
glyphname = K;
lastChange = "2018-12-17 16:21:40 +0000";
layers = (
{
background = {
paths = (
{
closed = 1;
nodes = (
"285 580 OFFCURVE",
"298 608 QCURVE SMOOTH",
"301 615 OFFCURVE",
"352 631 OFFCURVE",
"360 631 QCURVE SMOOTH",
"367 631 OFFCURVE",
"367 655 QCURVE SMOOTH",
"367 658 LINE",
"360 658 OFFCURVE",
"285 652 OFFCURVE",
"261 652 QCURVE SMOOTH",
"236 652 OFFCURVE",
"165 657 OFFCURVE",
"153 658 QCURVE",
"145 650 OFFCURVE",
"145 636 QCURVE SMOOTH",
"145 631 OFFCURVE",
"147 631 QCURVE SMOOTH",
"160 631 OFFCURVE",
"203 615 OFFCURVE",
"203 604 QCURVE SMOOTH",
"203 567 OFFCURVE",
"192 512 QCURVE SMOOTH",
"121 142 LINE SMOOTH",
"110 80 OFFCURVE",
"95 46 QCURVE SMOOTH",
"91 37 OFFCURVE",
"43 24 OFFCURVE",
"31 24 QCURVE SMOOTH",
"24 24 OFFCURVE",
"24 5 QCURVE SMOOTH",
"24 -1 OFFCURVE",
"26 -3 QCURVE",
"134 2 OFFCURVE",
"136 2 QCURVE SMOOTH",
"148 2 OFFCURVE",
"240 -3 QCURVE",
"246 9 OFFCURVE",
"246 20 QCURVE SMOOTH",
"246 24 OFFCURVE",
"244 24 QCURVE",
"230 26 LINE SMOOTH",
"217 28 OFFCURVE",
"190 41 OFFCURVE",
"190 49 QCURVE SMOOTH",
"190 84 OFFCURVE",
"201 139 QCURVE SMOOTH",
"272 515 LINE SMOOTH"
);
},
{
closed = 1;
nodes = (
"258 297 OFFCURVE",
"457 44 QCURVE SMOOTH",
"463 36 OFFCURVE",
"486 18 OFFCURVE",
"541 -2 OFFCURVE",
"573 -2 QCURVE SMOOTH",
"597 -2 OFFCURVE",
"648 1 QCURVE",
"653 11 OFFCURVE",
"653 22 QCURVE SMOOTH",
"653 28 OFFCURVE",
"651 28 QCURVE SMOOTH",
"637 28 OFFCURVE",
"563 51 OFFCURVE",
"546 72 QCURVE SMOOTH",
"342 319 LINE",
"336 327 OFFCURVE",
"336 335 QCURVE SMOOTH",
"336 342 OFFCURVE",
"341 347 QCURVE SMOOTH",
"585 591 LINE SMOOTH",
"621 627 OFFCURVE",
"691 635 QCURVE",
"697 635 OFFCURVE",
"697 658 QCURVE",
"691 658 OFFCURVE",
"614 652 OFFCURVE",
"590 652 QCURVE SMOOTH",
"575 652 OFFCURVE",
"543 654 OFFCURVE",
"504 657 OFFCURVE",
"492 658 QCURVE",
"487 650 OFFCURVE",
"487 641 QCURVE SMOOTH",
"487 635 OFFCURVE",
"490 635 QCURVE SMOOTH",
"503 635 OFFCURVE",
"538 627 OFFCURVE",
"538 618 QCURVE SMOOTH",
"538 615 OFFCURVE",
"530 602 OFFCURVE",
"521 592 OFFCURVE",
"509 579 OFFCURVE",
"508 578 QCURVE",
"438 501 OFFCURVE",
"283 354 OFFCURVE",
"237 326 QCURVE"
);
}
);
};
layerId = "02396921-8257-42A3-8ED5-3052446F9CE3";
paths = (
{
closed = 1;
nodes = (
"280.667 558.333 OFFCURVE",
"289.333 589.333 OFFCURVE",
"298 608 CURVE SMOOTH",
"302 617.333 OFFCURVE",
"349.333 631 OFFCURVE",
"360 631 CURVE SMOOTH",
"364.667 631 OFFCURVE",
"367 639 OFFCURVE",
"367 655 CURVE SMOOTH",
"367 658 LINE",
"362.333 658 OFFCURVE",
"347.5 657 OFFCURVE",
"322.5 655 CURVE SMOOTH",
"297.5 653 OFFCURVE",
"277 652 OFFCURVE",
"261 652 CURVE SMOOTH",
"227.667 652 OFFCURVE",
"169 656.667 OFFCURVE",
"153 658 CURVE",
"147.667 652.667 OFFCURVE",
"145 645.333 OFFCURVE",
"145 636 CURVE SMOOTH",
"145 632.667 OFFCURVE",
"145.667 631 OFFCURVE",
"147 631 CURVE SMOOTH",
"164.333 631 OFFCURVE",
"203 618.667 OFFCURVE",
"203 604 CURVE SMOOTH",
"203 579.333 OFFCURVE",
"199.333 548.667 OFFCURVE",
"192 512 CURVE SMOOTH",
"121 142 LINE SMOOTH",
"113.667 100.667 OFFCURVE",
"105 68.667 OFFCURVE",
"95 46 CURVE SMOOTH",
"89.667 34 OFFCURVE",
"47 24 OFFCURVE",
"31 24 CURVE SMOOTH",
"26.333 24 OFFCURVE",
"24 17.667 OFFCURVE",
"24 5 CURVE SMOOTH",
"24 1 OFFCURVE",
"24.667 -1.667 OFFCURVE",
"26 -3 CURVE",
"98 0.333 OFFCURVE",
"134.667 2 OFFCURVE",
"136 2 CURVE SMOOTH",
"144 2 OFFCURVE",
"178.667 0.333 OFFCURVE",
"240 -3 CURVE",
"244 5 OFFCURVE",
"246 12.667 OFFCURVE",
"246 20 CURVE SMOOTH",
"246 22.667 OFFCURVE",
"245.333 24 OFFCURVE",
"244 24 CURVE",
"230 26 LINE SMOOTH",
"212.667 28.667 OFFCURVE",
"190 38.333 OFFCURVE",
"190 49 CURVE SMOOTH",
"190 72.333 OFFCURVE",
"193.667 102.333 OFFCURVE",
"201 139 CURVE SMOOTH",
"272 515 LINE SMOOTH"
);
},
{
closed = 1;
nodes = (
"251 306.667 OFFCURVE",
"324.333 212.667 OFFCURVE",
"457 44 CURVE SMOOTH",
"473.856 21.526 OFFCURVE",
"520.356 -2 OFFCURVE",
"573 -2 CURVE SMOOTH",
"589 -2 OFFCURVE",
"614 -1 OFFCURVE",
"648 1 CURVE",
"651.333 7.667 OFFCURVE",
"653 14.667 OFFCURVE",
"653 22 CURVE SMOOTH",
"653 26 OFFCURVE",
"652.333 28 OFFCURVE",
"651 28 CURVE SMOOTH",
"632.333 28 OFFCURVE",
"568.667 44 OFFCURVE",
"546 72 CURVE SMOOTH",
"342 319 LINE",
"338 324.333 OFFCURVE",
"336 329.667 OFFCURVE",
"336 335 CURVE SMOOTH",
"336 339.667 OFFCURVE",
"337.667 343.667 OFFCURVE",
"341 347 CURVE SMOOTH",
"585 591 LINE SMOOTH",
"609 615 OFFCURVE",
"644.333 629.667 OFFCURVE",
"691 635 CURVE",
"695 635 OFFCURVE",
"697 642.667 OFFCURVE",
"697 658 CURVE",
"693 658 OFFCURVE",
"678.167 657 OFFCURVE",
"652.5 655 CURVE SMOOTH",
"626.833 653 OFFCURVE",
"606 652 OFFCURVE",
"590 652 CURVE SMOOTH",
"570.068 652 OFFCURVE",
"516.158 655.987 OFFCURVE",
"492 658 CURVE",
"488.667 652.667 OFFCURVE",
"487 647 OFFCURVE",
"487 641 CURVE SMOOTH",
"487 637 OFFCURVE",
"488 635 OFFCURVE",
"490 635 CURVE SMOOTH",
"507.333 635 OFFCURVE",
"538 630 OFFCURVE",
"538 618 CURVE SMOOTH",
"538 609.767 OFFCURVE",
"513.665 583.665 OFFCURVE",
"508 578 CURVE",
"414.667 475.333 OFFCURVE",
"298.333 363.333 OFFCURVE",
"237 326 CURVE"
);
}
);
width = 642;
}
);
note = K;
unicode = 004B;
},
{
glyphname = L;
lastChange = "2018-12-17 16:21:40 +0000";
layers = (
{
background = {
paths = (
{
closed = 1;
nodes = (
"273 515 LINE SMOOTH",
"286 580 OFFCURVE",
"299 608 QCURVE SMOOTH",
"302 615 OFFCURVE",
"353 631 OFFCURVE",
"361 631 QCURVE SMOOTH",
"368 631 OFFCURVE",
"368 655 QCURVE SMOOTH",
"368 658 LINE",
"361 658 OFFCURVE",
"286 652 OFFCURVE",
"262 652 QCURVE SMOOTH",
"237 652 OFFCURVE",
"166 657 OFFCURVE",
"154 658 QCURVE",
"146 650 OFFCURVE",
"146 636 QCURVE SMOOTH",
"146 631 OFFCURVE",
"148 631 QCURVE SMOOTH",
"161 631 OFFCURVE",
"204 615 OFFCURVE",
"204 604 QCURVE SMOOTH",
"204 567 OFFCURVE",
"193 512 QCURVE SMOOTH",
"122 142 LINE SMOOTH",
"110 78 OFFCURVE",
"96 49 QCURVE SMOOTH",
"92 41 OFFCURVE",
"44 29 OFFCURVE",
"31 29 QCURVE SMOOTH",
"24 29 OFFCURVE",
"24 5 QCURVE SMOOTH",
"24 -2 OFFCURVE",
"25 -3 QCURVE",
"136 2 LINE",
"176 2 OFFCURVE",
"400 -4 OFFCURVE",
"452 -4 QCURVE",
"464 32 OFFCURVE",
"534 162 QCURVE",
"530 168 OFFCURVE",
"513 168 QCURVE SMOOTH",
"501 168 OFFCURVE",
"498 162 QCURVE SMOOTH",
"479 124 OFFCURVE",
"436 69 OFFCURVE",
"420 61 QCURVE SMOOTH",
"386 44 OFFCURVE",
"299 44 QCURVE SMOOTH",
"254 44 LINE SMOOTH",
"209 44 OFFCURVE",
"192 50 OFFCURVE",
"192 65 QCURVE SMOOTH",
"192 81 OFFCURVE",
"202 139 QCURVE SMOOTH"
);
}
);
};
layerId = "02396921-8257-42A3-8ED5-3052446F9CE3";
paths = (
{
closed = 1;
nodes = (
"273 515 LINE SMOOTH",
"281.667 558.333 OFFCURVE",
"290.333 589.333 OFFCURVE",
"299 608 CURVE SMOOTH",
"303 617.333 OFFCURVE",
"350.333 631 OFFCURVE",
"361 631 CURVE SMOOTH",
"365.667 631 OFFCURVE",
"368 639 OFFCURVE",
"368 655 CURVE SMOOTH",
"368 658 LINE",
"363.333 658 OFFCURVE",
"348.5 657 OFFCURVE",
"323.5 655 CURVE SMOOTH",
"298.5 653 OFFCURVE",
"278 652 OFFCURVE",
"262 652 CURVE SMOOTH",
"228.667 652 OFFCURVE",
"170 656.667 OFFCURVE",
"154 658 CURVE",
"148.667 652.667 OFFCURVE",
"146 645.333 OFFCURVE",
"146 636 CURVE SMOOTH",
"146 632.667 OFFCURVE",
"146.667 631 OFFCURVE",
"148 631 CURVE SMOOTH",
"165.333 631 OFFCURVE",
"204 618.667 OFFCURVE",
"204 604 CURVE SMOOTH",
"204 579.333 OFFCURVE",
"200.333 548.667 OFFCURVE",
"193 512 CURVE SMOOTH",
"122 142 LINE SMOOTH",
"114 99.333 OFFCURVE",
"105.333 68.333 OFFCURVE",
"96 49 CURVE SMOOTH",
"90.667 38.333 OFFCURVE",
"48.333 29 OFFCURVE",
"31 29 CURVE SMOOTH",
"26.333 29 OFFCURVE",
"24 21 OFFCURVE",
"24 5 CURVE SMOOTH",
"24 0.333 OFFCURVE",
"24.333 -2.333 OFFCURVE",
"25 -3 CURVE",
"136 2 LINE",
"162.667 2 OFFCURVE",
"213.333 1 OFFCURVE",
"288 -1 CURVE SMOOTH",
"362.667 -3 OFFCURVE",
"417.333 -4 OFFCURVE",
"452 -4 CURVE",
"460 20 OFFCURVE",
"487.333 75.333 OFFCURVE",
"534 162 CURVE",
"531.333 166 OFFCURVE",
"524.333 168 OFFCURVE",
"513 168 CURVE SMOOTH",
"505 168 OFFCURVE",
"500 166 OFFCURVE",
"498 162 CURVE SMOOTH",
"472.667 111.333 OFFCURVE",
"441.333 71.667 OFFCURVE",
"420 61 CURVE SMOOTH",
"397.333 49.667 OFFCURVE",
"357 44 OFFCURVE",
"299 44 CURVE SMOOTH",
"254 44 LINE SMOOTH",
"224 44 OFFCURVE",
"206.167 45 OFFCURVE",
"200.5 47 CURVE SMOOTH",
"194.833 49 OFFCURVE",
"192 55 OFFCURVE",
"192 65 CURVE SMOOTH",
"192 75.667 OFFCURVE",
"195.333 100.333 OFFCURVE",
"202 139 CURVE SMOOTH"
);
}
);
width = 498;
}
);
note = L;
unicode = 004C;
},
{
glyphname = Lslash;
lastChange = "2018-12-17 16:21:40 +0000";
layers = (
{
background = {
paths = (
{
closed = 1;
nodes = (
"171 260 LINE",
"90 207 LINE",
"84 202 OFFCURVE",
"100 178 QCURVE",
"164 220 LINE",
"149 143 LINE SMOOTH",
"134 62 OFFCURVE",
"124 49 QCURVE SMOOTH",
"117 40 OFFCURVE",
"69 28 OFFCURVE",
"56 28 QCURVE SMOOTH",
"52 28 OFFCURVE",
"50 15 QCURVE",
"47 2 OFFCURVE",
"50 -1 QCURVE",
"163 2 LINE SMOOTH",
"226 2 OFFCURVE",
"431 -4 OFFCURVE",
"479 -4 QCURVE",
"484 11 OFFCURVE",
"505 57 OFFCURVE",
"524 92 OFFCURVE",
"554 149 OFFCURVE",
"561 162 QCURVE",
"557 168 OFFCURVE",
"539 168 QCURVE SMOOTH",
"528 168 OFFCURVE",
"525 162 QCURVE SMOOTH",
"507 124 OFFCURVE",
"463 69 OFFCURVE",
"447 61 QCURVE SMOOTH",
"413 44 OFFCURVE",
"327 44 QCURVE SMOOTH",
"282 44 LINE SMOOTH",
"222 44 OFFCURVE",
"221 54 QCURVE",
"220 93 OFFCURVE",
"229 142 QCURVE SMOOTH",
"256 280 LINE",
"473 416 LINE SMOOTH",
"476 418 OFFCURVE",
"467 442 OFFCURVE",
"463 447 QCURVE",
"264 320 LINE",
"303 519 LINE SMOOTH",
"315 580 OFFCURVE",
"329 612 QCURVE SMOOTH",
"332 619 OFFCURVE",
"384 633 OFFCURVE",
"393 633 QCURVE SMOOTH",
"397 633 OFFCURVE",
"399 647 QCURVE",
"400 652 OFFCURVE",
"400 662 QCURVE",
"387 661 OFFCURVE",
"345 658 OFFCURVE",
"309 656 OFFCURVE",
"291 656 QCURVE SMOOTH",
"266 656 OFFCURVE",
"192 661 OFFCURVE",
"181 662 QCURVE",
"176 657 OFFCURVE",
"174 646 QCURVE SMOOTH",
"172 633 OFFCURVE",
"175 633 QCURVE SMOOTH",
"187 633 OFFCURVE",
"232 620 OFFCURVE",
"233 612 QCURVE",
"234 592 OFFCURVE",
"222 521 QCURVE SMOOTH"
);
}
);
};
layerId = "02396921-8257-42A3-8ED5-3052446F9CE3";
paths = (
{
closed = 1;
nodes = (
"171 260 LINE",
"90 207 LINE",
"86 203.667 OFFCURVE",
"89.333 194 OFFCURVE",
"100 178 CURVE",
"164 220 LINE",
"149 143 LINE SMOOTH",
"139 89 OFFCURVE",
"130.667 57.667 OFFCURVE",
"124 49 CURVE SMOOTH",
"114.667 37 OFFCURVE",
"73.333 28 OFFCURVE",
"56 28 CURVE SMOOTH",
"53.333 28 OFFCURVE",
"51.333 23.667 OFFCURVE",
"50 15 CURVE",
"48 6.333 OFFCURVE",
"48 1 OFFCURVE",
"50 -1 CURVE",
"163 2 LINE SMOOTH",
"205 2 OFFCURVE",
"260.167 1 OFFCURVE",
"328.5 -1 CURVE SMOOTH",
"396.833 -3 OFFCURVE",
"447 -4 OFFCURVE",
"479 -4 CURVE",
"491.071 32.212 OFFCURVE",
"541.917 126.56 OFFCURVE",
"561 162 CURVE",
"558.333 166 OFFCURVE",
"551 168 OFFCURVE",
"539 168 CURVE SMOOTH",
"531.667 168 OFFCURVE",
"527 166 OFFCURVE",
"525 162 CURVE SMOOTH",
"501 111.333 OFFCURVE",
"468.333 71.667 OFFCURVE",
"447 61 CURVE SMOOTH",
"424.333 49.667 OFFCURVE",
"384.333 44 OFFCURVE",
"327 44 CURVE SMOOTH",
"282 44 LINE SMOOTH",
"242 44 OFFCURVE",
"221.667 47.333 OFFCURVE",
"221 54 CURVE",
"220.333 80 OFFCURVE",
"223 109.333 OFFCURVE",
"229 142 CURVE SMOOTH",
"256 280 LINE",
"473 416 LINE SMOOTH",
"477 418.667 OFFCURVE",
"468.333 440.333 OFFCURVE",
"463 447 CURVE",
"264 320 LINE",
"303 519 LINE SMOOTH",
"311 559.667 OFFCURVE",
"319.667 590.667 OFFCURVE",
"329 612 CURVE SMOOTH",
"333 621.333 OFFCURVE",
"381 633 OFFCURVE",
"393 633 CURVE SMOOTH",
"395.667 633 OFFCURVE",
"397.667 637.667 OFFCURVE",
"399 647 CURVE",
"399.667 650.333 OFFCURVE",
"400 655.333 OFFCURVE",
"400 662 CURVE",
"374.052 660.004 OFFCURVE",
"315.053 656 OFFCURVE",
"291 656 CURVE SMOOTH",
"257.667 656 OFFCURVE",
"195.667 660.667 OFFCURVE",
"181 662 CURVE",
"177.667 658.667 OFFCURVE",
"175.333 653.333 OFFCURVE",
"174 646 CURVE SMOOTH",
"172.667 637.333 OFFCURVE",
"173 633 OFFCURVE",
"175 633 CURVE SMOOTH",
"191 633 OFFCURVE",
"231.667 622.667 OFFCURVE",
"233 612 CURVE",
"233.667 598.667 OFFCURVE",
"230 568.333 OFFCURVE",
"222 521 CURVE SMOOTH"
);
}
);
width = 570;
}
);
note = Lslash;
unicode = 0141;
},
{
glyphname = M;
lastChange = "2018-12-17 16:21:40 +0000";
layers = (
{
background = {
paths = (
{
closed = 1;
nodes = (
"456 164 LINE",
"456 162 OFFCURVE",
"453 162 QCURVE SMOOTH",
"452 162 OFFCURVE",
"452 163 QCURVE",
"385 576 OFFCURVE",
"376 658 QCURVE",
"338 656 OFFCURVE",
"281 656 QCURVE SMOOTH",
"261 656 OFFCURVE",
"187 658 QCURVE",
"181 654 OFFCURVE",
"181 638 QCURVE SMOOTH",
"181 631 OFFCURVE",
"183 631 QCURVE SMOOTH",
"194 631 OFFCURVE",
"251 615 OFFCURVE",
"251 604 QCURVE SMOOTH",
"251 591 OFFCURVE",
"247 568 OFFCURVE",
"240 539 OFFCURVE",
"238 528 QCURVE",
"129 137 LINE SMOOTH",
"114 82 OFFCURVE",
"96 48 QCURVE SMOOTH",
"92 40 OFFCURVE",
"31 24 OFFCURVE",
"19 24 QCURVE SMOOTH",
"12 24 OFFCURVE",
"12 7 QCURVE SMOOTH",
"12 -1 OFFCURVE",
"14 -3 QCURVE",
"121 2 OFFCURVE",
"124 2 QCURVE SMOOTH",
"135 2 OFFCURVE",
"228 -3 QCURVE",
"233 7 OFFCURVE",
"233 18 QCURVE SMOOTH",
"233 24 OFFCURVE",
"231 24 QCURVE SMOOTH",
"229 24 OFFCURVE",
"197 31 OFFCURVE",
"163 46 OFFCURVE",
"163 53 QCURVE SMOOTH",
"163 68 OFFCURVE",
"182 136 QCURVE SMOOTH",
"299 567 LINE",
"299 569 OFFCURVE",
"302 569 QCURVE SMOOTH",
"303 569 OFFCURVE",
"304 567 QCURVE",
"389 0 LINE",
"393 -2 OFFCURVE",
"397 -2 QCURVE SMOOTH",
"409 -2 OFFCURVE",
"437 22 OFFCURVE",
"442 31 QCURVE",
"703 563 LINE SMOOTH",
"705 567 OFFCURVE",
"706 567 QCURVE SMOOTH",
"712 567 OFFCURVE",
"712 561 QCURVE SMOOTH",
"712 552 OFFCURVE",
"709 522 QCURVE SMOOTH",
"669 132 LINE",
"668 128 OFFCURVE",
"666 103 OFFCURVE",
"665 94 OFFCURVE",
"661 75 OFFCURVE",
"658 64 OFFCURVE",
"652 49 OFFCURVE",
"649 42 QCURVE",
"645 34 OFFCURVE",
"599 24 OFFCURVE",
"586 24 QCURVE SMOOTH",
"584 24 OFFCURVE",
"579 8 OFFCURVE",
"579 2 QCURVE SMOOTH",
"579 1 OFFCURVE",
"581 -3 QCURVE",
"683 2 OFFCURVE",
"686 2 QCURVE SMOOTH",
"702 2 OFFCURVE",
"795 -3 QCURVE",
"801 3 OFFCURVE",
"801 15 QCURVE SMOOTH",
"801 24 OFFCURVE",
"799 24 QCURVE SMOOTH",
"796 24 OFFCURVE",
"777 25 OFFCURVE",
"764 27 OFFCURVE",
"749 32 OFFCURVE",
"741 46 OFFCURVE",
"741 56 QCURVE SMOOTH",
"741 83 OFFCURVE",
"747 135 QCURVE SMOOTH",
"786 517 LINE SMOOTH",
"791 560 OFFCURVE",
"800 594 OFFCURVE",
"809 606 QCURVE SMOOTH",
"816 616 OFFCURVE",
"845 630 OFFCURVE",
"858 630 QCURVE SMOOTH",
"861 630 OFFCURVE",
"865 654 OFFCURVE",
"863 659 QCURVE",
"811 655 OFFCURVE",
"776 655 QCURVE SMOOTH",
"724 655 OFFCURVE",
"697 658 QCURVE",
"634 523 LINE"
);
}
);
};
layerId = "02396921-8257-42A3-8ED5-3052446F9CE3";
paths = (
{
closed = 1;
nodes = (
"456 164 LINE",
"456 162.667 OFFCURVE",
"455 162 OFFCURVE",
"453 162 CURVE SMOOTH",
"452.333 162 OFFCURVE",
"452 162.333 OFFCURVE",
"452 163 CURVE",
"407.333 438.333 OFFCURVE",
"382 603.333 OFFCURVE",
"376 658 CURVE",
"350.667 656.667 OFFCURVE",
"319 656 OFFCURVE",
"281 656 CURVE SMOOTH",
"267.667 656 OFFCURVE",
"236.333 656.667 OFFCURVE",
"187 658 CURVE",
"183 655.333 OFFCURVE",
"181 648.667 OFFCURVE",
"181 638 CURVE SMOOTH",
"181 633.333 OFFCURVE",
"181.667 631 OFFCURVE",
"183 631 CURVE SMOOTH",
"197.667 631 OFFCURVE",
"251 618.667 OFFCURVE",
"251 604 CURVE SMOOTH",
"251 583.66 OFFCURVE",
"242.077 550.425 OFFCURVE",
"238 528 CURVE",
"129 137 LINE SMOOTH",
"119 100.333 OFFCURVE",
"108 70.667 OFFCURVE",
"96 48 CURVE SMOOTH",
"90.667 37.333 OFFCURVE",
"35 24 OFFCURVE",
"19 24 CURVE SMOOTH",
"14.333 24 OFFCURVE",
"12 18.333 OFFCURVE",
"12 7 CURVE SMOOTH",
"12 1.667 OFFCURVE",
"12.667 -1.667 OFFCURVE",
"14 -3 CURVE",
"85.333 0.333 OFFCURVE",
"122 2 OFFCURVE",
"124 2 CURVE SMOOTH",
"131.333 2 OFFCURVE",
"166 0.333 OFFCURVE",
"228 -3 CURVE",
"231.333 3.667 OFFCURVE",
"233 10.667 OFFCURVE",
"233 18 CURVE SMOOTH",
"233 22 OFFCURVE",
"232.333 24 OFFCURVE",
"231 24 CURVE SMOOTH",
"220.061 24 OFFCURVE",
"163 38.815 OFFCURVE",
"163 53 CURVE SMOOTH",
"163 63 OFFCURVE",
"169.333 90.667 OFFCURVE",
"182 136 CURVE SMOOTH",
"299 567 LINE",
"299 568.333 OFFCURVE",
"300 569 OFFCURVE",
"302 569 CURVE SMOOTH",
"302.667 569 OFFCURVE",
"303.333 568.333 OFFCURVE",
"304 567 CURVE",
"389 0 LINE",
"391.667 -1.333 OFFCURVE",
"394.333 -2 OFFCURVE",
"397 -2 CURVE SMOOTH",
"413 -2 OFFCURVE",
"435.333 19 OFFCURVE",
"442 31 CURVE",
"703 563 LINE SMOOTH",
"704.333 565.667 OFFCURVE",
"705.333 567 OFFCURVE",
"706 567 CURVE SMOOTH",
"710 567 OFFCURVE",
"712 565 OFFCURVE",
"712 561 CURVE SMOOTH",
"712 555 OFFCURVE",
"711 542 OFFCURVE",
"709 522 CURVE SMOOTH",
"669 132 LINE",
"666.127 120.509 OFFCURVE",
"665.909 98.318 OFFCURVE",
"663 84.5 CURVE SMOOTH",
"660.583 73.021 OFFCURVE",
"654.258 54.269 OFFCURVE",
"649 42 CURVE",
"643.667 31.333 OFFCURVE",
"603.333 24 OFFCURVE",
"586 24 CURVE SMOOTH",
"583.333 24 OFFCURVE",
"579 10 OFFCURVE",
"579 2 CURVE SMOOTH",
"579 1.333 OFFCURVE",
"579.667 -0.333 OFFCURVE",
"581 -3 CURVE",
"649 0.333 OFFCURVE",
"684 2 OFFCURVE",
"686 2 CURVE SMOOTH",
"696.667 2 OFFCURVE",
"733 0.333 OFFCURVE",
"795 -3 CURVE",
"799 1 OFFCURVE",
"801 7 OFFCURVE",
"801 15 CURVE SMOOTH",
"801 21 OFFCURVE",
"800.333 24 OFFCURVE",
"799 24 CURVE SMOOTH",
"795 24 OFFCURVE",
"779.167 24.667 OFFCURVE",
"770.5 26 CURVE SMOOTH",
"766.167 26.667 OFFCURVE",
"761.5 27.833 OFFCURVE",
"756.5 29.5 CURVE SMOOTH",
"751.5 31.167 OFFCURVE",
"746.333 40 OFFCURVE",
"741 56 CURVE",
"741 74 OFFCURVE",
"743 100.333 OFFCURVE",
"747 135 CURVE SMOOTH",
"786 517 LINE SMOOTH",
"789.333 545.667 OFFCURVE",
"792.5 565.667 OFFCURVE",
"795.5 577 CURVE SMOOTH",
"798.5 588.333 OFFCURVE",
"803 598 OFFCURVE",
"809 606 CURVE SMOOTH",
"818.333 619.333 OFFCURVE",
"840.667 630 OFFCURVE",
"858 630 CURVE SMOOTH",
"862 630 OFFCURVE",
"865.667 652.333 OFFCURVE",
"863 659 CURVE",
"828.333 656.333 OFFCURVE",
"799.333 655 OFFCURVE",
"776 655 CURVE SMOOTH",
"741.333 655 OFFCURVE",
"715 656 OFFCURVE",
"697 658 CURVE",
"634 523 LINE"
);
}
);
width = 814;
}
);
note = M;
unicode = 004D;
},
{
glyphname = N;
lastChange = "2018-12-17 16:21:40 +0000";
layers = (
{
background = {
paths = (
{
closed = 1;
nodes = (
"236 654 OFFCURVE",
"158 658 QCURVE",
"151 653 OFFCURVE",
"151 638 QCURVE SMOOTH",
"151 631 OFFCURVE",
"153 631 QCURVE SMOOTH",
"169 631 OFFCURVE",
"221 618 OFFCURVE",
"221 606 QCURVE SMOOTH",
"221 560 OFFCURVE",
"212 516 QCURVE SMOOTH",
"135 144 LINE SMOOTH",
"119 70 OFFCURVE",
"108 48 QCURVE SMOOTH",
"104 40 OFFCURVE",
"43 24 OFFCURVE",
"31 24 QCURVE SMOOTH",
"24 24 OFFCURVE",
"24 5 QCURVE SMOOTH",
"24 -1 OFFCURVE",
"26 -3 QCURVE",
"134 2 OFFCURVE",
"136 2 QCURVE SMOOTH",
"148 2 OFFCURVE",
"240 -3 QCURVE",
"245 7 OFFCURVE",
"245 19 QCURVE SMOOTH",
"245 24 OFFCURVE",
"243 24 QCURVE",
"226 27 LINE SMOOTH",
"210 30 OFFCURVE",
"178 44 OFFCURVE",
"178 52 QCURVE SMOOTH",
"178 92 OFFCURVE",
"188 141 QCURVE SMOOTH",
"277 581 LINE",
"522 17 OFFCURVE",
"523 15 QCURVE SMOOTH",
"535 -8 OFFCURVE",
"549 -8 QCURVE SMOOTH",
"555 -8 OFFCURVE",
"559 -4 QCURVE",
"561 7 OFFCURVE",
"577 105 OFFCURVE",
"583 136 QCURVE SMOOTH",
"658 516 LINE SMOOTH",
"670 577 OFFCURVE",
"683 609 QCURVE SMOOTH",
"686 616 OFFCURVE",
"751 631 OFFCURVE",
"761 631 QCURVE SMOOTH",
"767 631 OFFCURVE",
"767 658 QCURVE",
"672 653 OFFCURVE",
"658 653 QCURVE SMOOTH",
"656 653 OFFCURVE",
"553 658 QCURVE",
"546 653 OFFCURVE",
"546 638 QCURVE SMOOTH",
"546 631 OFFCURVE",
"548 631 QCURVE SMOOTH",
"563 631 OFFCURVE",
"618 617 OFFCURVE",
"618 605 QCURVE SMOOTH",
"618 578 OFFCURVE",
"605 513 QCURVE SMOOTH",
"554 244 LINE SMOOTH",
"550 223 OFFCURVE",
"543 203 QCURVE",
"482 324 OFFCURVE",
"366 599 OFFCURVE",
"351 658 QCURVE",
"275 654 OFFCURVE",
"257 654 QCURVE SMOOTH"
);
}
);
};
layerId = "02396921-8257-42A3-8ED5-3052446F9CE3";
paths = (
{
closed = 1;
nodes = (
"243 654 OFFCURVE",
"210 655.333 OFFCURVE",
"158 658 CURVE",
"153.333 654.667 OFFCURVE",
"151 648 OFFCURVE",
"151 638 CURVE SMOOTH",
"151 633.333 OFFCURVE",
"151.667 631 OFFCURVE",
"153 631 CURVE SMOOTH",
"174.333 631 OFFCURVE",
"221 622 OFFCURVE",
"221 606 CURVE SMOOTH",
"221 575.333 OFFCURVE",
"218 545.333 OFFCURVE",
"212 516 CURVE SMOOTH",
"135 144 LINE SMOOTH",
"124.333 94.667 OFFCURVE",
"115.333 62.667 OFFCURVE",
"108 48 CURVE SMOOTH",
"102.667 37.333 OFFCURVE",
"47 24 OFFCURVE",
"31 24 CURVE SMOOTH",
"26.333 24 OFFCURVE",
"24 17.667 OFFCURVE",
"24 5 CURVE SMOOTH",
"24 1 OFFCURVE",
"24.667 -1.667 OFFCURVE",
"26 -3 CURVE",
"98 0.333 OFFCURVE",
"134.667 2 OFFCURVE",
"136 2 CURVE SMOOTH",
"144 2 OFFCURVE",
"178.667 0.333 OFFCURVE",
"240 -3 CURVE",
"243.333 3.667 OFFCURVE",
"245 11 OFFCURVE",
"245 19 CURVE SMOOTH",
"245 22.333 OFFCURVE",
"244.333 24 OFFCURVE",
"243 24 CURVE",
"226 27 LINE SMOOTH",
"204.667 31 OFFCURVE",
"178 41.333 OFFCURVE",
"178 52 CURVE SMOOTH",
"178 78.667 OFFCURVE",
"181.333 108.333 OFFCURVE",
"188 141 CURVE SMOOTH",
"277 581 LINE",
"440.333 205 OFFCURVE",
"522.333 16.333 OFFCURVE",
"523 15 CURVE SMOOTH",
"531 -0.333 OFFCURVE",
"539.667 -8 OFFCURVE",
"549 -8 CURVE SMOOTH",
"553 -8 OFFCURVE",
"556.333 -6.667 OFFCURVE",
"559 -4 CURVE",
"560.333 3.333 OFFCURVE",
"563.667 23.333 OFFCURVE",
"569 56 CURVE SMOOTH",
"574.333 88.667 OFFCURVE",
"579 115.333 OFFCURVE",
"583 136 CURVE SMOOTH",
"658 516 LINE SMOOTH",
"666 556.667 OFFCURVE",
"674.333 587.667 OFFCURVE",
"683 609 CURVE SMOOTH",
"687 618.333 OFFCURVE",
"747.667 631 OFFCURVE",
"761 631 CURVE SMOOTH",
"765 631 OFFCURVE",
"767 640 OFFCURVE",
"767 658 CURVE",
"703.667 654.667 OFFCURVE",
"667.333 653 OFFCURVE",
"658 653 CURVE SMOOTH",
"656.667 653 OFFCURVE",
"621.667 654.667 OFFCURVE",
"553 658 CURVE",
"548.333 654.667 OFFCURVE",
"546 648 OFFCURVE",
"546 638 CURVE SMOOTH",
"546 633.333 OFFCURVE",
"546.667 631 OFFCURVE",
"548 631 CURVE SMOOTH",
"568 631 OFFCURVE",
"618 621 OFFCURVE",
"618 605 CURVE SMOOTH",
"618 587 OFFCURVE",
"613.667 556.333 OFFCURVE",
"605 513 CURVE SMOOTH",
"554 244 LINE SMOOTH",
"551.333 230 OFFCURVE",
"547.667 216.333 OFFCURVE",
"543 203 CURVE",
"461.667 364.333 OFFCURVE",
"371 579.333 OFFCURVE",
"351 658 CURVE",
"300.333 655.333 OFFCURVE",
"269 654 OFFCURVE",
"257 654 CURVE SMOOTH"
);
}
);
width = 663;
}
);
note = N;
unicode = 004E;
},
{
glyphname = Eng;
lastChange = "2018-12-17 16:21:40 +0000";
layers = (
{
background = {
paths = (
{
closed = 1;
nodes = (
"638 516 LINE SMOOTH",
"650 577 OFFCURVE",
"663 609 QCURVE SMOOTH",
"666 616 OFFCURVE",
"731 631 OFFCURVE",
"741 631 QCURVE SMOOTH",
"747 631 OFFCURVE",
"747 658 QCURVE",
"652 653 OFFCURVE",
"638 653 QCURVE SMOOTH",
"636 653 OFFCURVE",
"533 658 QCURVE",
"526 653 OFFCURVE",
"526 638 QCURVE SMOOTH",
"526 631 OFFCURVE",
"528 631 QCURVE SMOOTH",
"543 631 OFFCURVE",
"598 617 OFFCURVE",
"598 605 QCURVE SMOOTH",
"598 578 OFFCURVE",
"585 513 QCURVE SMOOTH",
"534 244 LINE SMOOTH",
"530 223 OFFCURVE",
"523 203 QCURVE",
"462 324 OFFCURVE",
"346 599 OFFCURVE",
"331 658 QCURVE",
"255 654 OFFCURVE",
"237 654 QCURVE SMOOTH",
"216 654 OFFCURVE",
"138 658 QCURVE",
"135 656 OFFCURVE",
"131 642 OFFCURVE",
"131 632 OFFCURVE",
"133 631 QCURVE",
"149 631 OFFCURVE",
"201 618 OFFCURVE",
"201 606 QCURVE SMOOTH",
"201 560 OFFCURVE",
"192 516 QCURVE SMOOTH",
"115 144 LINE SMOOTH",
"99 70 OFFCURVE",
"88 48 QCURVE SMOOTH",
"84 40 OFFCURVE",
"23 24 OFFCURVE",
"11 24 QCURVE SMOOTH",
"4 24 OFFCURVE",
"4 5 QCURVE SMOOTH",
"4 -1 OFFCURVE",
"6 -3 QCURVE",
"114 2 OFFCURVE",
"116 2 QCURVE SMOOTH",
"128 2 OFFCURVE",
"220 -3 QCURVE",
"225 7 OFFCURVE",
"225 19 QCURVE SMOOTH",
"225 24 OFFCURVE",
"223 24 QCURVE",
"206 27 LINE SMOOTH",
"190 30 OFFCURVE",
"158 44 OFFCURVE",
"158 52 QCURVE SMOOTH",
"158 92 OFFCURVE",
"168 141 QCURVE SMOOTH",
"257 581 LINE",
"488 49 LINE",
"473 -2 OFFCURVE",
"412 -96 OFFCURVE",
"344 -160 OFFCURVE",
"300 -194 OFFCURVE",
"284 -204 QCURVE",
"282 -217 LINE",
"282 -222 OFFCURVE",
"292 -233 OFFCURVE",
"295 -233 QCURVE",
"318 -223 LINE SMOOTH",
"340 -213 OFFCURVE",
"407 -163 OFFCURVE",
"478 -95 OFFCURVE",
"541 16 OFFCURVE",
"553 80 QCURVE SMOOTH"
);
}
);
};
layerId = "02396921-8257-42A3-8ED5-3052446F9CE3";
paths = (
{
closed = 1;
nodes = (
"638 516 LINE SMOOTH",
"646 556.667 OFFCURVE",
"654.333 587.667 OFFCURVE",
"663 609 CURVE SMOOTH",
"667 618.333 OFFCURVE",
"727.667 631 OFFCURVE",
"741 631 CURVE SMOOTH",
"745 631 OFFCURVE",
"747 640 OFFCURVE",
"747 658 CURVE",
"683.667 654.667 OFFCURVE",
"647.333 653 OFFCURVE",
"638 653 CURVE SMOOTH",
"636.667 653 OFFCURVE",
"601.667 654.667 OFFCURVE",
"533 658 CURVE",
"528.333 654.667 OFFCURVE",
"526 648 OFFCURVE",
"526 638 CURVE SMOOTH",
"526 633.333 OFFCURVE",
"526.667 631 OFFCURVE",
"528 631 CURVE SMOOTH",
"548 631 OFFCURVE",
"598 621 OFFCURVE",
"598 605 CURVE SMOOTH",
"598 587 OFFCURVE",
"593.667 556.333 OFFCURVE",
"585 513 CURVE SMOOTH",
"534 244 LINE SMOOTH",
"531.333 230 OFFCURVE",
"527.667 216.333 OFFCURVE",
"523 203 CURVE",
"441.667 364.333 OFFCURVE",
"351 579.333 OFFCURVE",
"331 658 CURVE",
"280.333 655.333 OFFCURVE",
"249 654 OFFCURVE",
"237 654 CURVE SMOOTH",
"223 654 OFFCURVE",
"190 655.333 OFFCURVE",
"138 658 CURVE",
"133.128 654.752 OFFCURVE",
"128.036 633.482 OFFCURVE",
"133 631 CURVE",
"154.333 631 OFFCURVE",
"201 622 OFFCURVE",
"201 606 CURVE SMOOTH",
"201 575.333 OFFCURVE",
"198 545.333 OFFCURVE",
"192 516 CURVE SMOOTH",
"115 144 LINE SMOOTH",
"104.333 94.667 OFFCURVE",
"95.333 62.667 OFFCURVE",
"88 48 CURVE SMOOTH",
"82.667 37.333 OFFCURVE",
"27 24 OFFCURVE",
"11 24 CURVE SMOOTH",
"6.333 24 OFFCURVE",
"4 17.667 OFFCURVE",
"4 5 CURVE SMOOTH",
"4 1 OFFCURVE",
"4.667 -1.667 OFFCURVE",
"6 -3 CURVE",
"78 0.333 OFFCURVE",
"114.667 2 OFFCURVE",
"116 2 CURVE SMOOTH",
"124 2 OFFCURVE",
"158.667 0.333 OFFCURVE",
"220 -3 CURVE",
"223.333 3.667 OFFCURVE",
"225 11 OFFCURVE",
"225 19 CURVE SMOOTH",
"225 22.333 OFFCURVE",
"224.333 24 OFFCURVE",
"223 24 CURVE",
"206 27 LINE SMOOTH",
"184.667 31 OFFCURVE",
"158 41.333 OFFCURVE",
"158 52 CURVE SMOOTH",
"158 78.667 OFFCURVE",
"161.333 108.333 OFFCURVE",
"168 141 CURVE SMOOTH",
"257 581 LINE",
"488 49 LINE",
"448.706 -84.601 OFFCURVE",
"329.201 -175.75 OFFCURVE",
"284 -204 CURVE",
"282 -217 LINE",
"282 -223.667 OFFCURVE",
"291 -233 OFFCURVE",
"295 -233 CURVE",
"318 -223 LINE SMOOTH",
"347.333 -209.667 OFFCURVE",
"395.167 -174.333 OFFCURVE",
"442.5 -129 CURVE SMOOTH",
"489.833 -83.667 OFFCURVE",
"537 -5.333 OFFCURVE",
"553 80 CURVE SMOOTH"
);
}
);
width = 682;
}
);
note = Eng;
unicode = 014A;
},
{
glyphname = O;
lastChange = "2018-12-17 16:21:40 +0000";
layers = (
{
background = {
paths = (
{
closed = 1;
nodes = (
"490 625 OFFCURVE",
"578 495 OFFCURVE",
"578 395 QCURVE SMOOTH",
"578 260 OFFCURVE",
"426 33 OFFCURVE",
"322 33 QCURVE SMOOTH",
"240 33 OFFCURVE",
"151 165 OFFCURVE",
"151 267 QCURVE SMOOTH",
"151 402 OFFCURVE",
"301 625 OFFCURVE",
"409 625 QCURVE SMOOTH"
);
},
{
closed = 1;
nodes = (
"342 667 OFFCURVE",
"170 554 OFFCURVE",
"60 363 OFFCURVE",
"60 259 QCURVE SMOOTH",
"60 143 OFFCURVE",
"189 -10 OFFCURVE",
"296 -10 QCURVE SMOOTH",
"393 -10 OFFCURVE",
"567 107 OFFCURVE",
"670 301 OFFCURVE",
"670 409 QCURVE SMOOTH",
"670 516 OFFCURVE",
"533 667 OFFCURVE",
"432 667 QCURVE SMOOTH"
);
}
);
};
layerId = "02396921-8257-42A3-8ED5-3052446F9CE3";
paths = (
{
closed = 1;
nodes = (
"517 625 OFFCURVE",
"578 528.333 OFFCURVE",
"578 395 CURVE SMOOTH",
"578 215 OFFCURVE",
"460.667 33 OFFCURVE",
"322 33 CURVE SMOOTH",
"212.667 33 OFFCURVE",
"151 131 OFFCURVE",
"151 267 CURVE SMOOTH",
"151 447 OFFCURVE",
"265 625 OFFCURVE",
"409 625 CURVE SMOOTH"
);
},
{
closed = 1;
nodes = (
"312 667 OFFCURVE",
"188.333 585.833 OFFCURVE",
"115 458.5 CURVE SMOOTH",
"78.333 394.833 OFFCURVE",
"60 328.333 OFFCURVE",
"60 259 CURVE SMOOTH",
"60 104.333 OFFCURVE",
"153.333 -10 OFFCURVE",
"296 -10 CURVE SMOOTH",
"425.333 -10 OFFCURVE",
"549.833 74.667 OFFCURVE",
"618.5 204 CURVE SMOOTH",
"652.833 268.667 OFFCURVE",
"670 337 OFFCURVE",
"670 409 CURVE SMOOTH",
"670 551.667 OFFCURVE",
"566.667 667 OFFCURVE",
"432 667 CURVE SMOOTH"
);
}
);
width = 624;
}
);
note = O;
unicode = 004F;
},
{
glyphname = Oslash;
lastChange = "2018-12-17 16:21:40 +0000";
layers = (
{
background = {
paths = (
{
closed = 1;
nodes = (
"654 645 LINE SMOOTH",
"657 649 OFFCURVE",
"638 665 OFFCURVE",
"631 667 QCURVE",
"115 10 LINE SMOOTH",
"112 6 OFFCURVE",
"130 -10 OFFCURVE",
"137 -13 QCURVE"
);
},
{
closed = 1;
nodes = (
"482 625 OFFCURVE",
"557 570 OFFCURVE",
"591 480 OFFCURVE",
"601 367 OFFCURVE",
"588 309 QCURVE SMOOTH",
"567 199 OFFCURVE",
"432 33 OFFCURVE",
"343 33 QCURVE SMOOTH",
"291 33 OFFCURVE",
"216 88 OFFCURVE",
"183 178 OFFCURVE",
"173 292 OFFCURVE",
"186 350 QCURVE SMOOTH",
"207 459 OFFCURVE",
"342 625 OFFCURVE",
"430 625 QCURVE SMOOTH"
);
},
{
closed = 1;
nodes = (
"443 -10 OFFCURVE",
"657 188 OFFCURVE",
"711 468 OFFCURVE",
"575 667 OFFCURVE",
"329 667 OFFCURVE",
"116 468 OFFCURVE",
"62 188 OFFCURVE",
"197 -10 OFFCURVE"
);
}
);
};
layerId = "02396921-8257-42A3-8ED5-3052446F9CE3";
paths = (
{
closed = 1;
nodes = (
"654 645 LINE SMOOTH",
"658 650.333 OFFCURVE",
"640.333 664.333 OFFCURVE",
"631 667 CURVE",
"115 10 LINE SMOOTH",
"111 4.667 OFFCURVE",
"127.667 -9 OFFCURVE",
"137 -13 CURVE"
);
},
{
closed = 1;
nodes = (
"565.772 625 OFFCURVE",
"623.642 468.019 OFFCURVE",
"588 309 CURVE SMOOTH",
"560 162.333 OFFCURVE",
"461.667 33 OFFCURVE",
"343 33 CURVE SMOOTH",
"207.466 33 OFFCURVE",
"150.012 189.44 OFFCURVE",
"186 350 CURVE SMOOTH",
"214 495.333 OFFCURVE",
"312.667 625 OFFCURVE",
"430 625 CURVE SMOOTH"
);
}
);
width = 646;
}
);
note = Oslash;
unicode = 00D8;
},
{
glyphname = OE;
lastChange = "2018-12-17 16:21:40 +0000";
layers = (
{
background = {
paths = (
{
closed = 1;
nodes = (
"569 3 OFFCURVE",
"793 -4 OFFCURVE",
"846 -4 QCURVE",
"858 32 OFFCURVE",
"928 162 QCURVE",
"924 168 OFFCURVE",
"907 168 QCURVE SMOOTH",
"895 168 OFFCURVE",
"892 162 QCURVE SMOOTH",
"873 124 OFFCURVE",
"830 69 OFFCURVE",
"814 61 QCURVE SMOOTH",
"780 44 OFFCURVE",
"693 44 QCURVE SMOOTH",
"648 44 LINE SMOOTH",
"603 44 OFFCURVE",
"587 50 OFFCURVE",
"587 65 QCURVE SMOOTH",
"587 99 OFFCURVE",
"598 152 QCURVE SMOOTH",
"627 300 LINE SMOOTH",
"629 309 OFFCURVE",
"695 309 QCURVE SMOOTH",
"782 309 OFFCURVE",
"792 301 QCURVE SMOOTH",
"797 297 OFFCURVE",
"800 292 OFFCURVE",
"806 265 OFFCURVE",
"807 238 QCURVE",
"808 230 OFFCURVE",
"821 230 QCURVE SMOOTH",
"829 230 OFFCURVE",
"835 234 QCURVE",
"872 426 LINE",
"869 431 OFFCURVE",
"857 431 QCURVE SMOOTH",
"846 431 OFFCURVE",
"843 424 QCURVE SMOOTH",
"820 372 OFFCURVE",
"788 353 OFFCURVE",
"722 353 QCURVE SMOOTH",
"677 353 LINE SMOOTH",
"669 353 OFFCURVE",
"657 354 OFFCURVE",
"645 355 OFFCURVE",
"640 358 OFFCURVE",
"640 361 QCURVE",
"672 536 LINE SMOOTH",
"679 573 OFFCURVE",
"690 603 QCURVE SMOOTH",
"695 616 OFFCURVE",
"766 616 QCURVE SMOOTH",
"820 616 LINE SMOOTH",
"870 616 OFFCURVE",
"916 586 OFFCURVE",
"919 530 QCURVE",
"919 523 OFFCURVE",
"931 523 QCURVE SMOOTH",
"944 523 OFFCURVE",
"949 528 QCURVE",
"949 544 OFFCURVE",
"947 608 OFFCURVE",
"947 625 QCURVE SMOOTH",
"947 650 OFFCURVE",
"948 664 QCURVE",
"896 664 OFFCURVE",
"696 656 OFFCURVE",
"655 656 QCURVE SMOOTH",
"626 656 OFFCURVE",
"442 667 OFFCURVE",
"404 667 QCURVE SMOOTH",
"314 667 OFFCURVE",
"142 554 OFFCURVE",
"32 363 OFFCURVE",
"32 259 QCURVE SMOOTH",
"32 143 OFFCURVE",
"161 -10 OFFCURVE",
"268 -10 QCURVE SMOOTH",
"283 -10 OFFCURVE",
"332 -6 OFFCURVE",
"400 0 OFFCURVE",
"422 1 QCURVE SMOOTH",
"453 3 OFFCURVE",
"529 3 QCURVE SMOOTH"
);
},
{
closed = 1;
nodes = (
"385 625 OFFCURVE",
"416 625 OFFCURVE",
"429 625 OFFCURVE",
"459 624 OFFCURVE",
"476 622 OFFCURVE",
"502 618 OFFCURVE",
"520 612 OFFCURVE",
"540 604 OFFCURVE",
"554 591 OFFCURVE",
"560 584 QCURVE",
"566 576 OFFCURVE",
"574 557 OFFCURVE",
"577 532 OFFCURVE",
"580 513 OFFCURVE",
"577 480 OFFCURVE",
"576 463 OFFCURVE",
"570 425 OFFCURVE",
"568 414 OFFCURVE",
"560 374 OFFCURVE",
"560 372 QCURVE",
"559 367 OFFCURVE",
"549 316 OFFCURVE",
"545 295 OFFCURVE",
"534 244 OFFCURVE",
"527 217 OFFCURVE",
"516 173 OFFCURVE",
"506 147 OFFCURVE",
"494 116 OFFCURVE",
"481 96 OFFCURVE",
"474 90 QCURVE",
"434 53 OFFCURVE",
"358 33 OFFCURVE",
"294 33 QCURVE SMOOTH",
"212 33 OFFCURVE",
"123 165 OFFCURVE",
"123 267 QCURVE SMOOTH",
"123 402 OFFCURVE",
"273 625 OFFCURVE",
"381 625 QCURVE SMOOTH"
);
}
);
};
layerId = "02396921-8257-42A3-8ED5-3052446F9CE3";
paths = (
{
closed = 1;
nodes = (
"555.667 3 OFFCURVE",
"606.333 1.833 OFFCURVE",
"681 -0.5 CURVE SMOOTH",
"755.667 -2.833 OFFCURVE",
"810.667 -4 OFFCURVE",
"846 -4 CURVE",
"854 20 OFFCURVE",
"881.333 75.333 OFFCURVE",
"928 162 CURVE",
"925.333 166 OFFCURVE",
"918.333 168 OFFCURVE",
"907 168 CURVE SMOOTH",
"899 168 OFFCURVE",
"894 166 OFFCURVE",
"892 162 CURVE SMOOTH",
"866.667 111.333 OFFCURVE",
"835.333 71.667 OFFCURVE",
"814 61 CURVE SMOOTH",
"791.333 49.667 OFFCURVE",
"751 44 OFFCURVE",
"693 44 CURVE SMOOTH",
"648 44 LINE SMOOTH",
"618 44 OFFCURVE",
"600.333 45 OFFCURVE",
"595 47 CURVE SMOOTH",
"589.667 49 OFFCURVE",
"587 55 OFFCURVE",
"587 65 CURVE SMOOTH",
"587 87.667 OFFCURVE",
"590.667 116.667 OFFCURVE",
"598 152 CURVE SMOOTH",
"627 300 LINE SMOOTH",
"628.333 306 OFFCURVE",
"651 309 OFFCURVE",
"695 309 CURVE SMOOTH",
"753 309 OFFCURVE",
"785.333 306.333 OFFCURVE",
"792 301 CURVE SMOOTH",
"803.894 291.485 OFFCURVE",
"805.808 270.196 OFFCURVE",
"807 238 CURVE",
"807.667 232.667 OFFCURVE",
"812.333 230 OFFCURVE",
"821 230 CURVE SMOOTH",
"826.333 230 OFFCURVE",
"831 231.333 OFFCURVE",
"835 234 CURVE",
"872 426 LINE",
"870 429.333 OFFCURVE",
"865 431 OFFCURVE",
"857 431 CURVE SMOOTH",
"849.667 431 OFFCURVE",
"845 428.667 OFFCURVE",
"843 424 CURVE SMOOTH",
"812.333 354.667 OFFCURVE",
"810 353 OFFCURVE",
"722 353 CURVE SMOOTH",
"677 353 LINE SMOOTH",
"658.701 353 OFFCURVE",
"640 353.408 OFFCURVE",
"640 361 CURVE",
"672 536 LINE SMOOTH",
"676.667 560.667 OFFCURVE",
"682.667 583 OFFCURVE",
"690 603 CURVE SMOOTH",
"693.333 611.667 OFFCURVE",
"718.667 616 OFFCURVE",
"766 616 CURVE SMOOTH",
"820 616 LINE SMOOTH",
"886.667 616 OFFCURVE",
"915 604.667 OFFCURVE",
"919 530 CURVE",
"919 525.333 OFFCURVE",
"923 523 OFFCURVE",
"931 523 CURVE SMOOTH",
"939.667 523 OFFCURVE",
"945.667 524.667 OFFCURVE",
"949 528 CURVE",
"949 538.667 OFFCURVE",
"948.667 554.667 OFFCURVE",
"948 576 CURVE SMOOTH",
"947.333 597.333 OFFCURVE",
"947 613.667 OFFCURVE",
"947 625 CURVE SMOOTH",
"947 641.667 OFFCURVE",
"947.333 654.667 OFFCURVE",
"948 664 CURVE",
"913.333 664 OFFCURVE",
"862.667 662.667 OFFCURVE",
"796 660 CURVE SMOOTH",
"729.333 657.333 OFFCURVE",
"682.333 656 OFFCURVE",
"655 656 CURVE SMOOTH",
"635.667 656 OFFCURVE",
"595.333 657.833 OFFCURVE",
"534 661.5 CURVE SMOOTH",
"472.667 665.167 OFFCURVE",
"429.333 667 OFFCURVE",
"404 667 CURVE SMOOTH",
"284 667 OFFCURVE",
"160.333 585.833 OFFCURVE",
"87 458.5 CURVE SMOOTH",
"50.333 394.833 OFFCURVE",
"32 328.333 OFFCURVE",
"32 259 CURVE SMOOTH",
"32 104.333 OFFCURVE",
"125.333 -10 OFFCURVE",
"268 -10 CURVE SMOOTH",
"291.278 -10 OFFCURVE",
"379.481 -0.933 OFFCURVE",
"422 1 CURVE SMOOTH",
"442.667 2.333 OFFCURVE",
"478.333 3 OFFCURVE",
"529 3 CURVE SMOOTH"
);
},
{
closed = 1;
nodes = (
"391.658 625 OFFCURVE",
"456.184 624.331 OFFCURVE",
"467.5 623 CURVE SMOOTH",
"507.256 618.323 OFFCURVE",
"529.002 614.998 OFFCURVE",
"560 584 CURVE",
"573.461 566.052 OFFCURVE",
"581.566 530.225 OFFCURVE",
"578.5 496.5 CURVE SMOOTH",
"573.53 441.83 OFFCURVE",
"569.073 419.634 OFFCURVE",
"560 372 CURVE SMOOTH",
"557.873 361.367 OFFCURVE",
"535.088 248.195 OFFCURVE",
"530.5 230.5 CURVE SMOOTH",
"518.23 183.172 OFFCURVE",
"509.049 135.564 OFFCURVE",
"474 90 CURVE",
"420.667 40.667 OFFCURVE",
"379.333 33 OFFCURVE",
"294 33 CURVE SMOOTH",
"184.667 33 OFFCURVE",
"123 131 OFFCURVE",
"123 267 CURVE SMOOTH",
"123 447 OFFCURVE",
"237 625 OFFCURVE",
"381 625 CURVE SMOOTH"
);
}
);
width = 935;
}
);
note = OE;
unicode = 0152;
},
{
glyphname = P;
lastChange = "2018-12-17 16:21:40 +0000";
layers = (
{
background = {
paths = (
{
closed = 1;
nodes = (
"368 658 OFFCURVE",
"292 655 OFFCURVE",
"264 655 QCURVE SMOOTH",
"203 655 OFFCURVE",
"160 658 QCURVE",
"153 653 OFFCURVE",
"153 638 QCURVE SMOOTH",
"153 631 OFFCURVE",
"155 631 QCURVE SMOOTH",
"169 631 OFFCURVE",
"208 618 OFFCURVE",
"208 606 QCURVE SMOOTH",
"208 579 OFFCURVE",
"203 554 QCURVE SMOOTH",
"121 142 LINE SMOOTH",
"105 66 OFFCURVE",
"95 46 QCURVE SMOOTH",
"91 38 OFFCURVE",
"42 24 OFFCURVE",
"31 24 QCURVE SMOOTH",
"24 24 OFFCURVE",
"24 5 QCURVE SMOOTH",
"24 -1 OFFCURVE",
"26 -3 QCURVE",
"146 2 OFFCURVE",
"149 2 QCURVE SMOOTH",
"158 2 OFFCURVE",
"251 -3 QCURVE",
"257 3 OFFCURVE",
"257 16 QCURVE SMOOTH",
"257 24 OFFCURVE",
"255 24 QCURVE",
"238 26 LINE SMOOTH",
"222 28 OFFCURVE",
"190 41 OFFCURVE",
"190 49 QCURVE SMOOTH",
"190 83 OFFCURVE",
"199 128 QCURVE SMOOTH",
"292 601 LINE SMOOTH",
"294 612 OFFCURVE",
"325 621 OFFCURVE",
"372 621 QCURVE SMOOTH",
"480 621 OFFCURVE",
"480 516 QCURVE SMOOTH",
"480 428 OFFCURVE",
"365 328 OFFCURVE",
"297 328 QCURVE SMOOTH",
"287 328 OFFCURVE",
"273 330 QCURVE",
"267 324 OFFCURVE",
"267 314 QCURVE SMOOTH",
"267 311 OFFCURVE",
"269 304 QCURVE",
"293 295 OFFCURVE",
"339 295 QCURVE SMOOTH",
"424 295 OFFCURVE",
"565 418 OFFCURVE",
"565 504 QCURVE SMOOTH",
"565 571 OFFCURVE",
"453 658 OFFCURVE",
"395 658 QCURVE SMOOTH"
);
}
);
};
layerId = "02396921-8257-42A3-8ED5-3052446F9CE3";
paths = (
{
closed = 1;
nodes = (
"377 658 OFFCURVE",
"355.333 657.5 OFFCURVE",
"330 656.5 CURVE SMOOTH",
"304.667 655.5 OFFCURVE",
"282.667 655 OFFCURVE",
"264 655 CURVE SMOOTH",
"223.333 655 OFFCURVE",
"188.667 656 OFFCURVE",
"160 658 CURVE",
"155.333 654.667 OFFCURVE",
"153 648 OFFCURVE",
"153 638 CURVE SMOOTH",
"153 633.333 OFFCURVE",
"153.667 631 OFFCURVE",
"155 631 CURVE SMOOTH",
"173.667 631 OFFCURVE",
"208 622 OFFCURVE",
"208 606 CURVE SMOOTH",
"208 588 OFFCURVE",
"206.333 570.667 OFFCURVE",
"203 554 CURVE SMOOTH",
"121 142 LINE SMOOTH",
"110.333 91.333 OFFCURVE",
"101.667 59.333 OFFCURVE",
"95 46 CURVE SMOOTH",
"89.667 35.333 OFFCURVE",
"45.667 24 OFFCURVE",
"31 24 CURVE SMOOTH",
"26.333 24 OFFCURVE",
"24 17.667 OFFCURVE",
"24 5 CURVE SMOOTH",
"24 1 OFFCURVE",
"24.667 -1.667 OFFCURVE",
"26 -3 CURVE",
"106 0.333 OFFCURVE",
"147 2 OFFCURVE",
"149 2 CURVE SMOOTH",
"155 2 OFFCURVE",
"189 0.333 OFFCURVE",
"251 -3 CURVE",
"255 1 OFFCURVE",
"257 7.333 OFFCURVE",
"257 16 CURVE SMOOTH",
"257 21.333 OFFCURVE",
"256.333 24 OFFCURVE",
"255 24 CURVE",
"238 26 LINE SMOOTH",
"216.667 28.667 OFFCURVE",
"190 38.333 OFFCURVE",
"190 49 CURVE SMOOTH",
"190 71.667 OFFCURVE",
"193 98 OFFCURVE",
"199 128 CURVE SMOOTH",
"292 601 LINE SMOOTH",
"293.333 608.333 OFFCURVE",
"299.167 613.5 OFFCURVE",
"309.5 616.5 CURVE SMOOTH",
"319.833 619.5 OFFCURVE",
"340.667 621 OFFCURVE",
"372 621 CURVE SMOOTH",
"444 621 OFFCURVE",
"480 586 OFFCURVE",
"480 516 CURVE SMOOTH",
"480 398.667 OFFCURVE",
"387.667 328 OFFCURVE",
"297 328 CURVE SMOOTH",
"290.333 328 OFFCURVE",
"282.333 328.667 OFFCURVE",
"273 330 CURVE",
"269 326 OFFCURVE",
"267 320.667 OFFCURVE",
"267 314 CURVE SMOOTH",
"267 312 OFFCURVE",
"267.667 308.667 OFFCURVE",
"269 304 CURVE",
"285 298 OFFCURVE",
"308.333 295 OFFCURVE",
"339 295 CURVE SMOOTH",
"452.333 295 OFFCURVE",
"565 389.333 OFFCURVE",
"565 504 CURVE SMOOTH",
"565 593.333 OFFCURVE",
"472.333 658 OFFCURVE",
"395 658 CURVE SMOOTH"
);
}
);
width = 505;
}
);
note = P;
unicode = 0050;
},
{
glyphname = Thorn;
lastChange = "2018-12-17 16:21:40 +0000";
layers = (
{
background = {
paths = (
{
closed = 1;
nodes = (
"365 511 OFFCURVE",
"323 504 OFFCURVE",
"301 497 OFFCURVE",
"299 497 QCURVE SMOOTH",
"296 497 OFFCURVE",
"297 504 QCURVE",
"297 506 OFFCURVE",
"300 519 OFFCURVE",
"301 524 QCURVE SMOOTH",
"312 579 OFFCURVE",
"326 612 QCURVE SMOOTH",
"329 619 OFFCURVE",
"381 633 OFFCURVE",
"390 633 QCURVE SMOOTH",
"394 633 OFFCURVE",
"396 647 QCURVE",
"397 652 OFFCURVE",
"397 662 QCURVE",
"302 657 OFFCURVE",
"289 657 QCURVE SMOOTH",
"283 657 OFFCURVE",
"178 662 QCURVE",
"173 657 OFFCURVE",
"171 646 QCURVE SMOOTH",
"169 633 OFFCURVE",
"172 633 QCURVE SMOOTH",
"184 633 OFFCURVE",
"229 620 OFFCURVE",
"230 612 QCURVE",
"231 589 OFFCURVE",
"220 523 QCURVE SMOOTH",
"144 135 LINE SMOOTH",
"135 80 OFFCURVE",
"120 46 QCURVE",
"115 38 OFFCURVE",
"66 26 OFFCURVE",
"54 26 QCURVE SMOOTH",
"50 26 OFFCURVE",
"48 12 QCURVE",
"46 2 OFFCURVE",
"49 -3 QCURVE",
"156 2 OFFCURVE",
"161 2 QCURVE SMOOTH",
"176 2 OFFCURVE",
"268 -3 QCURVE",
"271 2 OFFCURVE",
"273 11 QCURVE SMOOTH",
"276 26 OFFCURVE",
"272 26 QCURVE SMOOTH",
"263 26 OFFCURVE",
"217 39 OFFCURVE",
"216 46 QCURVE",
"215 81 OFFCURVE",
"226 139 QCURVE SMOOTH",
"281 423 LINE SMOOTH",
"287 456 OFFCURVE",
"300 460 QCURVE",
"320 467 OFFCURVE",
"366 467 QCURVE SMOOTH",
"483 467 OFFCURVE",
"454 313 QCURVE SMOOTH",
"443 255 OFFCURVE",
"359 171 OFFCURVE",
"313 171 QCURVE SMOOTH",
"279 171 OFFCURVE",
"253 182 QCURVE",
"251 183 OFFCURVE",
"250 179 QCURVE",
"244 163 OFFCURVE",
"248 156 QCURVE",
"261 128 OFFCURVE",
"314 128 QCURVE SMOOTH",
"402 128 OFFCURVE",
"530 261 OFFCURVE",
"543 328 QCURVE SMOOTH",
"553 377 OFFCURVE",
"530 451 OFFCURVE",
"479 491 OFFCURVE",
"420 511 OFFCURVE",
"389 511 QCURVE SMOOTH"
);
}
);
};
layerId = "02396921-8257-42A3-8ED5-3052446F9CE3";
paths = (
{
closed = 1;
nodes = (
"359.486 511 OFFCURVE",
"304.335 497 OFFCURVE",
"299 497 CURVE SMOOTH",
"297 497 OFFCURVE",
"296.333 499.333 OFFCURVE",
"297 504 CURVE",
"297 505.333 OFFCURVE",
"297.5 508.167 OFFCURVE",
"298.5 512.5 CURVE SMOOTH",
"299.5 516.833 OFFCURVE",
"300.333 520.667 OFFCURVE",
"301 524 CURVE SMOOTH",
"308.333 560.667 OFFCURVE",
"316.667 590 OFFCURVE",
"326 612 CURVE SMOOTH",
"330 621.333 OFFCURVE",
"378 633 OFFCURVE",
"390 633 CURVE SMOOTH",
"392.667 633 OFFCURVE",
"394.667 637.667 OFFCURVE",
"396 647 CURVE",
"396.667 650.333 OFFCURVE",
"397 655.333 OFFCURVE",
"397 662 CURVE",
"333.667 658.667 OFFCURVE",
"297.667 657 OFFCURVE",
"289 657 CURVE SMOOTH",
"285 657 OFFCURVE",
"248 658.667 OFFCURVE",
"178 662 CURVE",
"174.667 658.667 OFFCURVE",
"172.333 653.333 OFFCURVE",
"171 646 CURVE SMOOTH",
"169.667 637.333 OFFCURVE",
"170 633 OFFCURVE",
"172 633 CURVE SMOOTH",
"188 633 OFFCURVE",
"228.667 622.667 OFFCURVE",
"230 612 CURVE",
"230.667 596.667 OFFCURVE",
"227.333 567 OFFCURVE",
"220 523 CURVE SMOOTH",
"144 135 LINE SMOOTH",
"138 98.333 OFFCURVE",
"130 68.667 OFFCURVE",
"120 46 CURVE",
"113.333 35.333 OFFCURVE",
"70 26 OFFCURVE",
"54 26 CURVE SMOOTH",
"51.333 26 OFFCURVE",
"49.333 21.333 OFFCURVE",
"48 12 CURVE",
"46.667 5.333 OFFCURVE",
"47 0.333 OFFCURVE",
"49 -3 CURVE",
"120.333 0.333 OFFCURVE",
"157.667 2 OFFCURVE",
"161 2 CURVE SMOOTH",
"171 2 OFFCURVE",
"206.667 0.333 OFFCURVE",
"268 -3 CURVE",
"270 0.333 OFFCURVE",
"271.667 5 OFFCURVE",
"273 11 CURVE SMOOTH",
"275 21 OFFCURVE",
"274.667 26 OFFCURVE",
"272 26 CURVE SMOOTH",
"260 26 OFFCURVE",
"217.333 36.667 OFFCURVE",
"216 46 CURVE",
"215.333 69.333 OFFCURVE",
"218.667 100.333 OFFCURVE",
"226 139 CURVE SMOOTH",
"281 423 LINE SMOOTH",
"285 445 OFFCURVE",
"291.333 457.333 OFFCURVE",
"300 460 CURVE",
"313.333 464.667 OFFCURVE",
"335.333 467 OFFCURVE",
"366 467 CURVE SMOOTH",
"444 467 OFFCURVE",
"473.333 415.667 OFFCURVE",
"454 313 CURVE SMOOTH",
"439.333 235.667 OFFCURVE",
"374.333 171 OFFCURVE",
"313 171 CURVE SMOOTH",
"290.333 171 OFFCURVE",
"270.333 174.667 OFFCURVE",
"253 182 CURVE",
"251.667 182.667 OFFCURVE",
"250.667 181.667 OFFCURVE",
"250 179 CURVE",
"246 168.333 OFFCURVE",
"245.333 160.667 OFFCURVE",
"248 156 CURVE",
"256.667 137.333 OFFCURVE",
"278.667 128 OFFCURVE",
"314 128 CURVE SMOOTH",
"431.333 128 OFFCURVE",
"525.667 238.667 OFFCURVE",
"543 328 CURVE SMOOTH",
"567.352 447.327 OFFCURVE",
"485.641 511 OFFCURVE",
"389 511 CURVE SMOOTH"
);
}
);
width = 515;
}
);
note = Thorn;
unicode = 00DE;
},
{
glyphname = Q;
lastChange = "2018-12-17 16:21:40 +0000";
layers = (
{
background = {
paths = (
{
closed = 1;
nodes = (
"490 625 OFFCURVE",
"578 495 OFFCURVE",
"578 395 QCURVE SMOOTH",
"578 260 OFFCURVE",
"426 33 OFFCURVE",
"322 33 QCURVE SMOOTH",
"240 33 OFFCURVE",
"151 165 OFFCURVE",
"151 267 QCURVE SMOOTH",
"151 402 OFFCURVE",
"301 625 OFFCURVE",
"409 625 QCURVE SMOOTH"
);
},
{
closed = 1;
nodes = (
"342 667 OFFCURVE",
"170 554 OFFCURVE",
"60 363 OFFCURVE",
"60 259 QCURVE SMOOTH",
"60 158 OFFCURVE",
"161 12 OFFCURVE",
"247 -5 QCURVE",
"156 -26 OFFCURVE",
"141 -27 QCURVE",
"136 -29 OFFCURVE",
"123 -48 OFFCURVE",
"123 -52 QCURVE",
"204 -73 OFFCURVE",
"370 -145 OFFCURVE",
"491 -186 OFFCURVE",
"621 -186 OFFCURVE",
"744 -119 OFFCURVE",
"762 -95 QCURVE",
"762 -82 OFFCURVE",
"739 -71 QCURVE",
"717 -90 OFFCURVE",
"630 -133 OFFCURVE",
"593 -133 QCURVE SMOOTH",
"526 -133 OFFCURVE",
"306 -39 OFFCURVE",
"276 -35 QCURVE",
"397 -12 OFFCURVE",
"490 56 QCURVE SMOOTH",
"571 115 OFFCURVE",
"670 305 OFFCURVE",
"670 409 QCURVE SMOOTH",
"670 516 OFFCURVE",
"533 667 OFFCURVE",
"432 667 QCURVE SMOOTH"
);
}
);
};
layerId = "02396921-8257-42A3-8ED5-3052446F9CE3";
paths = (
{
closed = 1;
nodes = (
"517 625 OFFCURVE",
"578 528.333 OFFCURVE",
"578 395 CURVE SMOOTH",
"578 215 OFFCURVE",
"460.667 33 OFFCURVE",
"322 33 CURVE SMOOTH",
"212.667 33 OFFCURVE",
"151 131 OFFCURVE",
"151 267 CURVE SMOOTH",
"151 447 OFFCURVE",
"265 625 OFFCURVE",
"409 625 CURVE SMOOTH"
);
},
{
closed = 1;
nodes = (
"312 667 OFFCURVE",
"188.333 585.833 OFFCURVE",
"115 458.5 CURVE SMOOTH",
"78.333 394.833 OFFCURVE",
"60 328.333 OFFCURVE",
"60 259 CURVE SMOOTH",
"60 124.333 OFFCURVE",
"132.333 17.667 OFFCURVE",
"247 -5 CURVE",
"186.333 -19 OFFCURVE",
"151 -26.333 OFFCURVE",
"141 -27 CURVE",
"134.333 -29.667 OFFCURVE",
"123 -46.667 OFFCURVE",
"123 -52 CURVE",
"177 -66 OFFCURVE",
"231.667 -85 OFFCURVE",
"287 -109 CURVE SMOOTH",
"342.333 -133 OFFCURVE",
"390.167 -151.833 OFFCURVE",
"430.5 -165.5 CURVE SMOOTH",
"470.833 -179.167 OFFCURVE",
"512.667 -186 OFFCURVE",
"556 -186 CURVE SMOOTH",
"599.333 -186 OFFCURVE",
"668 -155.667 OFFCURVE",
"762 -95 CURVE",
"762 -86.333 OFFCURVE",
"754.333 -78.333 OFFCURVE",
"739 -71 CURVE",
"709.667 -96.333 OFFCURVE",
"642.333 -133 OFFCURVE",
"593 -133 CURVE SMOOTH",
"548.333 -133 OFFCURVE",
"489.333 -117.333 OFFCURVE",
"416 -86 CURVE SMOOTH",
"342.667 -54.667 OFFCURVE",
"296 -37.667 OFFCURVE",
"276 -35 CURVE",
"356.667 -19.667 OFFCURVE",
"428 10.667 OFFCURVE",
"490 56 CURVE SMOOTH",
"598 134.667 OFFCURVE",
"670 270.333 OFFCURVE",
"670 409 CURVE SMOOTH",
"670 551.667 OFFCURVE",
"566.667 667 OFFCURVE",
"432 667 CURVE SMOOTH"
);
}
);
width = 624;
}
);
note = Q;
unicode = 0051;
},
{
glyphname = R;
lastChange = "2018-12-17 16:21:40 +0000";
layers = (
{
background = {
paths = (
{
closed = 1;
nodes = (
"361 658 OFFCURVE",
"292 655 OFFCURVE",
"264 655 QCURVE SMOOTH",
"203 655 OFFCURVE",
"160 658 QCURVE",
"153 653 OFFCURVE",
"153 638 QCURVE SMOOTH",
"153 631 OFFCURVE",
"155 631 QCURVE SMOOTH",
"168 631 OFFCURVE",
"208 618 OFFCURVE",
"208 606 QCURVE SMOOTH",
"208 582 OFFCURVE",
"203 556 QCURVE SMOOTH",
"121 142 LINE SMOOTH",
"106 73 OFFCURVE",
"95 46 QCURVE SMOOTH",
"91 37 OFFCURVE",
"43 24 OFFCURVE",
"31 24 QCURVE SMOOTH",
"24 24 OFFCURVE",
"24 5 QCURVE SMOOTH",
"24 -1 OFFCURVE",
"26 -3 QCURVE",
"133 2 OFFCURVE",
"136 2 QCURVE SMOOTH",
"147 2 OFFCURVE",
"240 -3 QCURVE",
"246 9 OFFCURVE",
"246 20 QCURVE SMOOTH",
"246 24 OFFCURVE",
"244 24 QCURVE",
"230 26 LINE SMOOTH",
"217 28 OFFCURVE",
"190 41 OFFCURVE",
"190 49 QCURVE SMOOTH",
"190 84 OFFCURVE",
"201 139 QCURVE SMOOTH",
"230 294 LINE SMOOTH",
"232 306 OFFCURVE",
"250 311 OFFCURVE",
"282 311 QCURVE SMOOTH",
"321 311 OFFCURVE",
"326 297 QCURVE SMOOTH",
"381 126 OFFCURVE",
"467 -4 OFFCURVE",
"533 -4 QCURVE SMOOTH",
"566 -4 OFFCURVE",
"591 1 QCURVE",
"597 10 OFFCURVE",
"590 29 QCURVE",
"588 29 OFFCURVE",
"574 29 OFFCURVE",
"570 29 OFFCURVE",
"557 30 OFFCURVE",
"551 33 OFFCURVE",
"539 37 OFFCURVE",
"530 44 OFFCURVE",
"519 53 OFFCURVE",
"509 66 OFFCURVE",
"504 74 QCURVE SMOOTH",
"481 109 OFFCURVE",
"421 249 OFFCURVE",
"402 315 QCURVE",
"398 324 OFFCURVE",
"407 327 QCURVE",
"421 334 OFFCURVE",
"455 353 OFFCURVE",
"504 390 OFFCURVE",
"541 431 OFFCURVE",
"568 491 OFFCURVE",
"568 522 QCURVE SMOOTH",
"568 560 OFFCURVE",
"532 616 OFFCURVE",
"475 645 OFFCURVE",
"417 658 OFFCURVE",
"389 658 QCURVE SMOOTH"
);
},
{
closed = 1;
nodes = (
"483 621 OFFCURVE",
"483 527 QCURVE SMOOTH",
"483 470 OFFCURVE",
"422 387 OFFCURVE",
"338 352 OFFCURVE",
"292 352 QCURVE SMOOTH",
"245 352 OFFCURVE",
"245 367 QCURVE SMOOTH",
"245 369 LINE",
"293 602 LINE",
"295 615 OFFCURVE",
"322 621 OFFCURVE",
"373 621 QCURVE SMOOTH"
);
}
);
};
layerId = "02396921-8257-42A3-8ED5-3052446F9CE3";
paths = (
{
closed = 1;
nodes = (
"370.333 658 OFFCURVE",
"349.5 657.5 OFFCURVE",
"326.5 656.5 CURVE SMOOTH",
"303.5 655.5 OFFCURVE",
"282.667 655 OFFCURVE",
"264 655 CURVE SMOOTH",
"223.333 655 OFFCURVE",
"188.667 656 OFFCURVE",
"160 658 CURVE",
"155.333 654.667 OFFCURVE",
"153 648 OFFCURVE",
"153 638 CURVE SMOOTH",
"153 633.333 OFFCURVE",
"153.667 631 OFFCURVE",
"155 631 CURVE SMOOTH",
"172.333 631 OFFCURVE",
"208 622 OFFCURVE",
"208 606 CURVE SMOOTH",
"208 590 OFFCURVE",
"206.333 573.333 OFFCURVE",
"203 556 CURVE SMOOTH",
"121 142 LINE SMOOTH",
"111 96 OFFCURVE",
"102.333 64 OFFCURVE",
"95 46 CURVE SMOOTH",
"89.667 34 OFFCURVE",
"47 24 OFFCURVE",
"31 24 CURVE SMOOTH",
"26.333 24 OFFCURVE",
"24 17.667 OFFCURVE",
"24 5 CURVE SMOOTH",
"24 1 OFFCURVE",
"24.667 -1.667 OFFCURVE",
"26 -3 CURVE",
"97.333 0.333 OFFCURVE",
"134 2 OFFCURVE",
"136 2 CURVE SMOOTH",
"143.333 2 OFFCURVE",
"178 0.333 OFFCURVE",
"240 -3 CURVE",
"244 5 OFFCURVE",
"246 12.667 OFFCURVE",
"246 20 CURVE SMOOTH",
"246 22.667 OFFCURVE",
"245.333 24 OFFCURVE",
"244 24 CURVE",
"230 26 LINE SMOOTH",
"212.667 28.667 OFFCURVE",
"190 38.333 OFFCURVE",
"190 49 CURVE SMOOTH",
"190 72.333 OFFCURVE",
"193.667 102.333 OFFCURVE",
"201 139 CURVE SMOOTH",
"230 294 LINE SMOOTH",
"231.333 302 OFFCURVE",
"235 306.833 OFFCURVE",
"241 308.5 CURVE SMOOTH",
"247 310.167 OFFCURVE",
"260.667 311 OFFCURVE",
"282 311 CURVE SMOOTH",
"308 311 OFFCURVE",
"322.667 306.333 OFFCURVE",
"326 297 CURVE SMOOTH",
"362.667 183 OFFCURVE",
"395.333 104.333 OFFCURVE",
"424 61 CURVE SMOOTH",
"452.667 17.667 OFFCURVE",
"489 -4 OFFCURVE",
"533 -4 CURVE SMOOTH",
"555 -4 OFFCURVE",
"574.333 -2.333 OFFCURVE",
"591 1 CURVE",
"595 7 OFFCURVE",
"594.667 16.333 OFFCURVE",
"590 29 CURVE",
"583.217 29 OFFCURVE",
"558.68 29.16 OFFCURVE",
"554 31.5 CURVE SMOOTH",
"526.874 45.063 OFFCURVE",
"527.48 41.128 OFFCURVE",
"504 74 CURVE",
"473.333 120.667 OFFCURVE",
"427.333 227 OFFCURVE",
"402 315 CURVE",
"399.333 321 OFFCURVE",
"401 325 OFFCURVE",
"407 327 CURVE",
"425.667 336.333 OFFCURVE",
"446.833 346.833 OFFCURVE",
"479.5 371.5 CURVE SMOOTH",
"495.833 383.833 OFFCURVE",
"510.167 396.833 OFFCURVE",
"522.5 410.5 CURVE SMOOTH",
"534.833 424.167 OFFCURVE",
"550 461.333 OFFCURVE",
"568 522 CURVE",
"568 619.952 OFFCURVE",
"472.438 658 OFFCURVE",
"389 658 CURVE SMOOTH"
);
},
{
closed = 1;
nodes = (
"446.333 621 OFFCURVE",
"483 589.667 OFFCURVE",
"483 527 CURVE SMOOTH",
"483 451 OFFCURVE",
"436 392.833 OFFCURVE",
"380 369.5 CURVE SMOOTH",
"352 357.833 OFFCURVE",
"322.667 352 OFFCURVE",
"292 352 CURVE SMOOTH",
"260.667 352 OFFCURVE",
"245 357 OFFCURVE",
"245 367 CURVE SMOOTH",
"245 369 LINE",
"293 602 LINE",
"294.333 610.667 OFFCURVE",
"299.5 616 OFFCURVE",
"308.5 618 CURVE SMOOTH",
"317.5 620 OFFCURVE",
"339 621 OFFCURVE",
"373 621 CURVE SMOOTH"
);
}
);
width = 593;
}
);
note = R;
unicode = 0052;
},
{
glyphname = S;
lastChange = "2018-12-17 16:21:40 +0000";
layers = (
{
background = {
paths = (
{
closed = 1;
nodes = (
"355 108 OFFCURVE",
"270 35 OFFCURVE",
"217 35 QCURVE SMOOTH",
"178 35 OFFCURVE",
"123 64 OFFCURVE",
"98 112 OFFCURVE",
"89 154 OFFCURVE",
"89 175 QCURVE",
"79 183 OFFCURVE",
"70 183 QCURVE SMOOTH",
"51 183 OFFCURVE",
"51 176 QCURVE SMOOTH",
"51 174 OFFCURVE",
"53 116 OFFCURVE",
"53 82 OFFCURVE",
"49 18 QCURVE",
"154 -6 OFFCURVE",
"208 -6 QCURVE SMOOTH",
"263 -6 OFFCURVE",
"355 35 OFFCURVE",
"411 98 OFFCURVE",
"441 168 OFFCURVE",
"441 199 QCURVE SMOOTH",
"441 234 OFFCURVE",
"401 297 OFFCURVE",
"360 331 OFFCURVE",
"268 395 OFFCURVE",
"249 410 QCURVE SMOOTH",
"200 449 OFFCURVE",
"200 502 QCURVE SMOOTH",
"200 554 OFFCURVE",
"270 623 OFFCURVE",
"327 623 QCURVE SMOOTH",
"367 623 OFFCURVE",
"428 557 OFFCURVE",
"428 510 QCURVE SMOOTH",
"428 499 OFFCURVE",
"430 498 QCURVE",
"438 492 OFFCURVE",
"453 492 QCURVE SMOOTH",
"456 492 OFFCURVE",
"459 502 OFFCURVE",
"462 531 QCURVE SMOOTH",
"468 587 OFFCURVE",
"475 642 QCURVE",
"454 644 OFFCURVE",
"372 666 OFFCURVE",
"346 666 QCURVE SMOOTH",
"253 666 OFFCURVE",
"122 548 OFFCURVE",
"122 458 QCURVE SMOOTH",
"122 421 OFFCURVE",
"170 355 OFFCURVE",
"239 306 OFFCURVE",
"307 259 OFFCURVE",
"355 202 OFFCURVE",
"355 172 QCURVE SMOOTH"
);
}
);
};
layerId = "02396921-8257-42A3-8ED5-3052446F9CE3";
paths = (
{
closed = 1;
nodes = (
"355 86.667 OFFCURVE",
"287.667 35 OFFCURVE",
"217 35 CURVE SMOOTH",
"119.345 35 OFFCURVE",
"89 106.327 OFFCURVE",
"89 175 CURVE",
"82.333 180.333 OFFCURVE",
"76 183 OFFCURVE",
"70 183 CURVE SMOOTH",
"57.333 183 OFFCURVE",
"51 180.667 OFFCURVE",
"51 176 CURVE SMOOTH",
"51 87.904 OFFCURVE",
"54.571 107.135 OFFCURVE",
"49 18 CURVE",
"119 2 OFFCURVE",
"172 -6 OFFCURVE",
"208 -6 CURVE SMOOTH",
"345.008 -6 OFFCURVE",
"441 101.083 OFFCURVE",
"441 199 CURVE SMOOTH",
"441 245.667 OFFCURVE",
"407.833 291.333 OFFCURVE",
"380.5 314 CURVE SMOOTH",
"343.202 344.93 OFFCURVE",
"286.375 380.494 OFFCURVE",
"249 410 CURVE SMOOTH",
"216.333 436 OFFCURVE",
"200 466.667 OFFCURVE",
"200 502 CURVE SMOOTH",
"200 571.333 OFFCURVE",
"251 623 OFFCURVE",
"327 623 CURVE SMOOTH",
"380.333 623 OFFCURVE",
"428 572.667 OFFCURVE",
"428 510 CURVE SMOOTH",
"428 502.667 OFFCURVE",
"428.667 498.667 OFFCURVE",
"430 498 CURVE",
"435.333 494 OFFCURVE",
"443 492 OFFCURVE",
"453 492 CURVE SMOOTH",
"455 492 OFFCURVE",
"456.5 493.667 OFFCURVE",
"457.5 497 CURVE SMOOTH",
"458.5 500.333 OFFCURVE",
"460 511.667 OFFCURVE",
"462 531 CURVE SMOOTH",
"466 568.333 OFFCURVE",
"470.333 605.333 OFFCURVE",
"475 642 CURVE",
"461 643.333 OFFCURVE",
"440.333 647.667 OFFCURVE",
"413 655 CURVE SMOOTH",
"385.667 662.333 OFFCURVE",
"363.333 666 OFFCURVE",
"346 666 CURVE SMOOTH",
"222 666 OFFCURVE",
"122 578 OFFCURVE",
"122 458 CURVE SMOOTH",
"122 408.667 OFFCURVE",
"158.5 363.167 OFFCURVE",
"204.5 330.5 CURVE SMOOTH",
"227.5 314.167 OFFCURVE",
"250.333 298.167 OFFCURVE",
"273 282.5 CURVE SMOOTH",
"295.667 266.833 OFFCURVE",
"323 230 OFFCURVE",
"355 172 CURVE"
);
}
);
width = 435;
}
);
note = S;
unicode = 0053;
},
{
glyphname = T;
lastChange = "2018-12-17 16:21:40 +0000";
layers = (
{
background = {
paths = (
{
closed = 1;
nodes = (
"274 80 OFFCURVE",
"259 46 QCURVE SMOOTH",
"255 37 OFFCURVE",
"207 24 OFFCURVE",
"195 24 QCURVE SMOOTH",
"188 24 OFFCURVE",
"188 5 QCURVE SMOOTH",
"188 -1 OFFCURVE",
"190 -3 QCURVE",
"298 2 OFFCURVE",
"300 2 QCURVE SMOOTH",
"312 2 OFFCURVE",
"404 -3 QCURVE",
"410 9 OFFCURVE",
"410 20 QCURVE SMOOTH",
"410 24 OFFCURVE",
"408 24 QCURVE",
"394 26 LINE SMOOTH",
"381 28 OFFCURVE",
"354 41 OFFCURVE",
"354 49 QCURVE SMOOTH",
"354 84 OFFCURVE",
"365 139 QCURVE SMOOTH",
"435 500 LINE SMOOTH",
"449 570 OFFCURVE",
"463 600 QCURVE SMOOTH",
"470 615 OFFCURVE",
"569 615 QCURVE SMOOTH",
"616 615 OFFCURVE",
"655 580 OFFCURVE",
"655 526 QCURVE SMOOTH",
"655 521 OFFCURVE",
"664 521 QCURVE SMOOTH",
"678 521 OFFCURVE",
"687 528 QCURVE",
"697 671 LINE",
"653 660 OFFCURVE",
"631 660 QCURVE SMOOTH",
"592 660 OFFCURVE",
"464 654 OFFCURVE",
"386 654 OFFCURVE",
"262 660 OFFCURVE",
"223 660 QCURVE SMOOTH",
"198 660 OFFCURVE",
"160 671 QCURVE",
"116 528 LINE",
"123 521 OFFCURVE",
"136 521 QCURVE SMOOTH",
"144 521 OFFCURVE",
"146 526 QCURVE",
"171 582 OFFCURVE",
"215 615 OFFCURVE",
"268 615 QCURVE SMOOTH",
"316 615 OFFCURVE",
"362 608 OFFCURVE",
"367 601 OFFCURVE",
"367 594 QCURVE SMOOTH",
"367 566 OFFCURVE",
"354 497 QCURVE SMOOTH",
"285 142 LINE SMOOTH"
);
}
);
};
layerId = "02396921-8257-42A3-8ED5-3052446F9CE3";
paths = (
{
closed = 1;
nodes = (
"277.667 100.667 OFFCURVE",
"269 68.667 OFFCURVE",
"259 46 CURVE SMOOTH",
"253.667 34 OFFCURVE",
"211 24 OFFCURVE",
"195 24 CURVE SMOOTH",
"190.333 24 OFFCURVE",
"188 17.667 OFFCURVE",
"188 5 CURVE SMOOTH",
"188 1 OFFCURVE",
"188.667 -1.667 OFFCURVE",
"190 -3 CURVE",
"262 0.333 OFFCURVE",
"298.667 2 OFFCURVE",
"300 2 CURVE SMOOTH",
"308 2 OFFCURVE",
"342.667 0.333 OFFCURVE",
"404 -3 CURVE",
"408 5 OFFCURVE",
"410 12.667 OFFCURVE",
"410 20 CURVE SMOOTH",
"410 22.667 OFFCURVE",
"409.333 24 OFFCURVE",
"408 24 CURVE",
"394 26 LINE SMOOTH",
"376.667 28.667 OFFCURVE",
"354 38.333 OFFCURVE",
"354 49 CURVE SMOOTH",
"354 72.333 OFFCURVE",
"357.667 102.333 OFFCURVE",
"365 139 CURVE SMOOTH",
"435 500 LINE SMOOTH",
"444.333 546.667 OFFCURVE",
"453.667 580 OFFCURVE",
"463 600 CURVE SMOOTH",
"467.667 610 OFFCURVE",
"503 615 OFFCURVE",
"569 615 CURVE SMOOTH",
"631.667 615 OFFCURVE",
"655 598 OFFCURVE",
"655 526 CURVE SMOOTH",
"655 522.667 OFFCURVE",
"658 521 OFFCURVE",
"664 521 CURVE SMOOTH",
"673.333 521 OFFCURVE",
"681 523.333 OFFCURVE",
"687 528 CURVE",
"697 671 LINE",
"667.667 663.667 OFFCURVE",
"645.667 660 OFFCURVE",
"631 660 CURVE SMOOTH",
"572.931 660 OFFCURVE",
"483.069 654 OFFCURVE",
"425 654 CURVE SMOOTH",
"367.634 654 OFFCURVE",
"280.366 660 OFFCURVE",
"223 660 CURVE SMOOTH",
"206.333 660 OFFCURVE",
"185.333 663.667 OFFCURVE",
"160 671 CURVE",
"116 528 LINE",
"120.667 523.333 OFFCURVE",
"127.333 521 OFFCURVE",
"136 521 CURVE SMOOTH",
"141.333 521 OFFCURVE",
"144.667 522.667 OFFCURVE",
"146 526 CURVE",
"179.333 600.667 OFFCURVE",
"197.333 615 OFFCURVE",
"268 615 CURVE SMOOTH",
"321.582 615 OFFCURVE",
"367 616.123 OFFCURVE",
"367 594 CURVE SMOOTH",
"367 575.333 OFFCURVE",
"362.667 543 OFFCURVE",
"354 497 CURVE SMOOTH",
"285 142 LINE SMOOTH"
);
}
);
width = 601;
}
);
note = T;
unicode = 0054;
},
{
glyphname = Tbar;
lastChange = "2018-12-17 16:21:40 +0000";
layers = (
{
background = {
paths = (
{
closed = 1;
nodes = (
"224 337 OFFCURVE",
"221 321 QCURVE",
"218 308 OFFCURVE",
"224 308 QCURVE SMOOTH",
"544 308 OFFCURVE",
"544 308 QCURVE",
"554 326 OFFCURVE",
"556 338 QCURVE SMOOTH",
"558 348 OFFCURVE",
"552 348 QCURVE SMOOTH",
"232 348 OFFCURVE",
"232 348 QCURVE"
);
},
{
closed = 1;
nodes = (
"462 500 LINE SMOOTH",
"474 566 OFFCURVE",
"490 600 QCURVE",
"496 615 OFFCURVE",
"595 615 QCURVE SMOOTH",
"648 615 OFFCURVE",
"680 582 OFFCURVE",
"682 526 QCURVE",
"682 521 OFFCURVE",
"690 521 QCURVE SMOOTH",
"707 521 OFFCURVE",
"714 528 QCURVE",
"724 671 LINE",
"680 660 OFFCURVE",
"658 660 QCURVE SMOOTH",
"623 660 OFFCURVE",
"492 656 OFFCURVE",
"412 656 OFFCURVE",
"285 660 OFFCURVE",
"249 660 QCURVE SMOOTH",
"226 660 OFFCURVE",
"187 671 QCURVE",
"142 528 LINE",
"147 521 OFFCURVE",
"163 521 QCURVE SMOOTH",
"170 521 OFFCURVE",
"173 526 QCURVE",
"197 582 OFFCURVE",
"241 615 OFFCURVE",
"294 615 QCURVE SMOOTH",
"388 615 OFFCURVE",
"392 600 QCURVE",
"398 585 OFFCURVE",
"380 497 QCURVE SMOOTH",
"310 135 LINE SMOOTH",
"301 80 OFFCURVE",
"286 46 QCURVE",
"281 38 OFFCURVE",
"232 26 OFFCURVE",
"220 26 QCURVE SMOOTH",
"216 26 OFFCURVE",
"214 12 QCURVE",
"212 1 OFFCURVE",
"214 -3 QCURVE",
"322 2 OFFCURVE",
"327 2 QCURVE SMOOTH",
"342 2 OFFCURVE",
"434 -3 QCURVE",
"436 0 OFFCURVE",
"438 11 QCURVE",
"440 26 OFFCURVE",
"438 26 QCURVE SMOOTH",
"429 26 OFFCURVE",
"383 39 OFFCURVE",
"382 46 QCURVE",
"381 81 OFFCURVE",
"392 139 QCURVE SMOOTH"
);
}
);
};
layerId = "02396921-8257-42A3-8ED5-3052446F9CE3";
paths = (
{
closed = 1;
nodes = (
"226.667 340.667 OFFCURVE",
"223 331.667 OFFCURVE",
"221 321 CURVE",
"219 312.333 OFFCURVE",
"220 308 OFFCURVE",
"224 308 CURVE SMOOTH",
"437.333 308 OFFCURVE",
"544 308 OFFCURVE",
"544 308 CURVE",
"550.667 320 OFFCURVE",
"554.667 330 OFFCURVE",
"556 338 CURVE SMOOTH",
"557.333 344.667 OFFCURVE",
"556 348 OFFCURVE",
"552 348 CURVE SMOOTH",
"338.667 348 OFFCURVE",
"232 348 OFFCURVE",
"232 348 CURVE"
);
},
{
closed = 1;
nodes = (
"462 500 LINE SMOOTH",
"470 544 OFFCURVE",
"479.333 577.333 OFFCURVE",
"490 600 CURVE",
"494 610 OFFCURVE",
"529 615 OFFCURVE",
"595 615 CURVE SMOOTH",
"665.667 615 OFFCURVE",
"679.333 600.667 OFFCURVE",
"682 526 CURVE",
"682 522.667 OFFCURVE",
"684.667 521 OFFCURVE",
"690 521 CURVE SMOOTH",
"701.333 521 OFFCURVE",
"709.333 523.333 OFFCURVE",
"714 528 CURVE",
"724 671 LINE",
"694.667 663.667 OFFCURVE",
"672.667 660 OFFCURVE",
"658 660 CURVE SMOOTH",
"601.758 660 OFFCURVE",
"514.041 656 OFFCURVE",
"452 656 CURVE SMOOTH",
"391.579 656 OFFCURVE",
"304.517 660 OFFCURVE",
"249 660 CURVE SMOOTH",
"233.667 660 OFFCURVE",
"213 663.667 OFFCURVE",
"187 671 CURVE",
"142 528 LINE",
"145.333 523.333 OFFCURVE",
"152.333 521 OFFCURVE",
"163 521 CURVE SMOOTH",
"167.667 521 OFFCURVE",
"171 522.667 OFFCURVE",
"173 526 CURVE",
"205 600.667 OFFCURVE",
"223.333 615 OFFCURVE",
"294 615 CURVE SMOOTH",
"356.667 615 OFFCURVE",
"389.333 610 OFFCURVE",
"392 600 CURVE",
"396 590 OFFCURVE",
"392 555.667 OFFCURVE",
"380 497 CURVE SMOOTH",
"310 135 LINE SMOOTH",
"304 98.333 OFFCURVE",
"296 68.667 OFFCURVE",
"286 46 CURVE",
"279.333 35.333 OFFCURVE",
"236 26 OFFCURVE",
"220 26 CURVE SMOOTH",
"217.333 26 OFFCURVE",
"215.333 21.333 OFFCURVE",
"214 12 CURVE",
"212.667 4.667 OFFCURVE",
"212.667 -0.333 OFFCURVE",
"214 -3 CURVE",
"286 0.333 OFFCURVE",
"323.667 2 OFFCURVE",
"327 2 CURVE SMOOTH",
"337 2 OFFCURVE",
"372.667 0.333 OFFCURVE",
"434 -3 CURVE",
"435.333 -1 OFFCURVE",
"436.667 3.667 OFFCURVE",
"438 11 CURVE",
"439.333 21 OFFCURVE",
"439.333 26 OFFCURVE",
"438 26 CURVE SMOOTH",
"426 26 OFFCURVE",
"383.333 36.667 OFFCURVE",
"382 46 CURVE",
"381.333 69.333 OFFCURVE",
"384.667 100.333 OFFCURVE",
"392 139 CURVE SMOOTH"
);
}
);
width = 650;
}
);
note = Tbar;
unicode = 0166;
},
{
glyphname = U;
lastChange = "2018-12-17 16:21:40 +0000";
layers = (
{
background = {
paths = (
{
closed = 1;
nodes = (
"134 312 LINE SMOOTH",
"120 243 OFFCURVE",
"120 206 QCURVE SMOOTH",
"120 106 OFFCURVE",
"217 0 OFFCURVE",
"304 0 QCURVE SMOOTH",
"426 0 OFFCURVE",
"556 117 OFFCURVE",
"587 276 QCURVE SMOOTH",
"632 510 LINE SMOOTH",
"651 598 OFFCURVE",
"659 608 QCURVE",
"664 615 OFFCURVE",
"726 631 OFFCURVE",
"734 631 QCURVE SMOOTH",
"741 631 OFFCURVE",
"741 658 QCURVE",
"728 657 OFFCURVE",
"688 654 OFFCURVE",
"653 652 OFFCURVE",
"634 652 QCURVE SMOOTH",
"610 652 OFFCURVE",
"538 657 OFFCURVE",
"526 658 QCURVE",
"519 653 OFFCURVE",
"519 637 QCURVE SMOOTH",
"519 631 OFFCURVE",
"521 631 QCURVE SMOOTH",
"538 631 OFFCURVE",
"596 614 OFFCURVE",
"596 602 QCURVE SMOOTH",
"596 582 OFFCURVE",
"584 512 QCURVE SMOOTH",
"540 274 LINE SMOOTH",
"498 49 OFFCURVE",
"335 49 QCURVE SMOOTH",
"270 49 OFFCURVE",
"204 136 OFFCURVE",
"204 213 QCURVE SMOOTH",
"204 254 OFFCURVE",
"212 298 QCURVE SMOOTH",
"253 515 LINE SMOOTH",
"266 580 OFFCURVE",
"279 608 QCURVE SMOOTH",
"282 615 OFFCURVE",
"333 631 OFFCURVE",
"341 631 QCURVE SMOOTH",
"348 631 OFFCURVE",
"348 655 QCURVE SMOOTH",
"348 658 LINE",
"341 658 OFFCURVE",
"266 652 OFFCURVE",
"242 652 QCURVE SMOOTH",
"217 652 OFFCURVE",
"146 657 OFFCURVE",
"134 658 QCURVE",
"126 650 OFFCURVE",
"126 636 QCURVE SMOOTH",
"126 631 OFFCURVE",
"128 631 QCURVE SMOOTH",
"141 631 OFFCURVE",
"184 615 OFFCURVE",
"184 604 QCURVE SMOOTH",
"184 569 OFFCURVE",
"173 512 QCURVE SMOOTH"
);
}
);
};
layerId = "02396921-8257-42A3-8ED5-3052446F9CE3";
paths = (
{
closed = 1;
nodes = (
"134 312 LINE SMOOTH",
"124.667 266 OFFCURVE",
"120 230.667 OFFCURVE",
"120 206 CURVE SMOOTH",
"120 72.667 OFFCURVE",
"188 0 OFFCURVE",
"304 0 CURVE SMOOTH",
"466.667 0 OFFCURVE",
"545.667 64 OFFCURVE",
"587 276 CURVE SMOOTH",
"632 510 LINE SMOOTH",
"644.667 568.667 OFFCURVE",
"653.667 601.333 OFFCURVE",
"659 608 CURVE",
"665.667 617.333 OFFCURVE",
"723.333 631 OFFCURVE",
"734 631 CURVE SMOOTH",
"738.667 631 OFFCURVE",
"741 640 OFFCURVE",
"741 658 CURVE",
"715.645 656.05 OFFCURVE",
"659.205 652 OFFCURVE",
"634 652 CURVE SMOOTH",
"602 652 OFFCURVE",
"542 656.667 OFFCURVE",
"526 658 CURVE",
"521.333 654.667 OFFCURVE",
"519 647.667 OFFCURVE",
"519 637 CURVE SMOOTH",
"519 633 OFFCURVE",
"519.667 631 OFFCURVE",
"521 631 CURVE SMOOTH",
"543.667 631 OFFCURVE",
"596 618 OFFCURVE",
"596 602 CURVE SMOOTH",
"596 588.667 OFFCURVE",
"592 558.667 OFFCURVE",
"584 512 CURVE SMOOTH",
"540 274 LINE SMOOTH",
"512 124 OFFCURVE",
"443.667 49 OFFCURVE",
"335 49 CURVE SMOOTH",
"248.333 49 OFFCURVE",
"204 110.333 OFFCURVE",
"204 213 CURVE SMOOTH",
"204 240.333 OFFCURVE",
"206.667 268.667 OFFCURVE",
"212 298 CURVE SMOOTH",
"253 515 LINE SMOOTH",
"261.667 558.333 OFFCURVE",
"270.333 589.333 OFFCURVE",
"279 608 CURVE SMOOTH",
"283 617.333 OFFCURVE",
"330.333 631 OFFCURVE",
"341 631 CURVE SMOOTH",
"345.667 631 OFFCURVE",
"348 639 OFFCURVE",
"348 655 CURVE SMOOTH",
"348 658 LINE",
"343.333 658 OFFCURVE",
"328.5 657 OFFCURVE",
"303.5 655 CURVE SMOOTH",
"278.5 653 OFFCURVE",
"258 652 OFFCURVE",
"242 652 CURVE SMOOTH",
"208.667 652 OFFCURVE",
"150 656.667 OFFCURVE",
"134 658 CURVE",
"128.667 652.667 OFFCURVE",
"126 645.333 OFFCURVE",
"126 636 CURVE SMOOTH",
"126 632.667 OFFCURVE",
"126.667 631 OFFCURVE",
"128 631 CURVE SMOOTH",
"145.333 631 OFFCURVE",
"184 618.667 OFFCURVE",
"184 604 CURVE SMOOTH",
"184 580.667 OFFCURVE",
"180.333 550 OFFCURVE",
"173 512 CURVE SMOOTH"
);
}
);
width = 631;
}
);
note = U;
unicode = 0055;
},
{
glyphname = Uogonek;
lastChange = "2018-12-17 16:21:40 +0000";
layers = (
{
background = {
paths = (
{
closed = 1;
nodes = (
"228 -121 OFFCURVE",
"256 -79 OFFCURVE",
"322 -22 OFFCURVE",
"360 8 OFFCURVE",
"405 42 QCURVE SMOOTH",
"486 103 OFFCURVE",
"519 276 QCURVE SMOOTH",
"564 510 LINE SMOOTH",
"583 598 OFFCURVE",
"591 608 QCURVE",
"596 615 OFFCURVE",
"658 631 OFFCURVE",
"666 631 QCURVE SMOOTH",
"673 631 OFFCURVE",
"673 658 QCURVE",
"660 657 OFFCURVE",
"620 654 OFFCURVE",
"585 652 OFFCURVE",
"566 652 QCURVE SMOOTH",
"542 652 OFFCURVE",
"470 657 OFFCURVE",
"458 658 QCURVE",
"451 653 OFFCURVE",
"451 637 QCURVE SMOOTH",
"451 631 OFFCURVE",
"453 631 QCURVE SMOOTH",
"470 631 OFFCURVE",
"528 614 OFFCURVE",
"528 602 QCURVE SMOOTH",
"528 582 OFFCURVE",
"516 512 QCURVE SMOOTH",
"472 274 LINE SMOOTH",
"430 49 OFFCURVE",
"267 49 QCURVE SMOOTH",
"202 49 OFFCURVE",
"136 136 OFFCURVE",
"136 213 QCURVE SMOOTH",
"136 254 OFFCURVE",
"144 298 QCURVE SMOOTH",
"185 515 LINE SMOOTH",
"198 580 OFFCURVE",
"211 608 QCURVE SMOOTH",
"214 615 OFFCURVE",
"265 631 OFFCURVE",
"273 631 QCURVE SMOOTH",
"280 631 OFFCURVE",
"280 655 QCURVE SMOOTH",
"280 658 LINE",
"273 658 OFFCURVE",
"198 652 OFFCURVE",
"174 652 QCURVE SMOOTH",
"149 652 OFFCURVE",
"78 657 OFFCURVE",
"66 658 QCURVE",
"58 650 OFFCURVE",
"58 636 QCURVE SMOOTH",
"58 631 OFFCURVE",
"60 631 QCURVE SMOOTH",
"73 631 OFFCURVE",
"116 615 OFFCURVE",
"116 604 QCURVE SMOOTH",
"116 569 OFFCURVE",
"105 512 QCURVE SMOOTH",
"66 312 LINE SMOOTH",
"52 243 OFFCURVE",
"52 206 QCURVE SMOOTH",
"52 106 OFFCURVE",
"149 0 OFFCURVE",
"236 0 QCURVE SMOOTH",
"264 0 OFFCURVE",
"302 4 QCURVE",
"256 -29 OFFCURVE",
"174 -138 OFFCURVE",
"174 -175 QCURVE SMOOTH",
"174 -196 OFFCURVE",
"203 -230 OFFCURVE",
"225 -230 QCURVE SMOOTH",
"276 -230 OFFCURVE",
"336 -163 QCURVE",
"339 -160 OFFCURVE",
"347 -134 OFFCURVE",
"342 -133 QCURVE",
"341 -133 OFFCURVE",
"318 -152 OFFCURVE",
"280 -171 OFFCURVE",
"259 -171 QCURVE SMOOTH",
"228 -171 OFFCURVE",
"228 -139 QCURVE SMOOTH"
);
}
);
};
layerId = "02396921-8257-42A3-8ED5-3052446F9CE3";
paths = (
{
closed = 1;
nodes = (
"228 -86.699 OFFCURVE",
"333.59 -11.955 OFFCURVE",
"405 42 CURVE SMOOTH",
"459 82.667 OFFCURVE",
"497 160.667 OFFCURVE",
"519 276 CURVE SMOOTH",
"564 510 LINE SMOOTH",
"576.667 568.667 OFFCURVE",
"585.667 601.333 OFFCURVE",
"591 608 CURVE",
"597.667 617.333 OFFCURVE",
"655.333 631 OFFCURVE",
"666 631 CURVE SMOOTH",
"670.667 631 OFFCURVE",
"673 640 OFFCURVE",
"673 658 CURVE",
"647.645 656.05 OFFCURVE",
"591.205 652 OFFCURVE",
"566 652 CURVE SMOOTH",
"534 652 OFFCURVE",
"474 656.667 OFFCURVE",
"458 658 CURVE",
"453.333 654.667 OFFCURVE",
"451 647.667 OFFCURVE",
"451 637 CURVE SMOOTH",
"451 633 OFFCURVE",
"451.667 631 OFFCURVE",
"453 631 CURVE SMOOTH",
"475.667 631 OFFCURVE",
"528 618 OFFCURVE",
"528 602 CURVE SMOOTH",
"528 588.667 OFFCURVE",
"524 558.667 OFFCURVE",
"516 512 CURVE SMOOTH",
"472 274 LINE SMOOTH",
"444 124 OFFCURVE",
"375.667 49 OFFCURVE",
"267 49 CURVE SMOOTH",
"180.333 49 OFFCURVE",
"136 110.333 OFFCURVE",
"136 213 CURVE SMOOTH",
"136 240.333 OFFCURVE",
"138.667 268.667 OFFCURVE",
"144 298 CURVE SMOOTH",
"185 515 LINE SMOOTH",
"193.667 558.333 OFFCURVE",
"202.333 589.333 OFFCURVE",
"211 608 CURVE SMOOTH",
"215 617.333 OFFCURVE",
"262.333 631 OFFCURVE",
"273 631 CURVE SMOOTH",
"277.667 631 OFFCURVE",
"280 639 OFFCURVE",
"280 655 CURVE SMOOTH",
"280 658 LINE",
"275.333 658 OFFCURVE",
"260.5 657 OFFCURVE",
"235.5 655 CURVE SMOOTH",
"210.5 653 OFFCURVE",
"190 652 OFFCURVE",
"174 652 CURVE SMOOTH",
"140.667 652 OFFCURVE",
"82 656.667 OFFCURVE",
"66 658 CURVE",
"60.667 652.667 OFFCURVE",
"58 645.333 OFFCURVE",
"58 636 CURVE SMOOTH",
"58 632.667 OFFCURVE",
"58.667 631 OFFCURVE",
"60 631 CURVE SMOOTH",
"77.333 631 OFFCURVE",
"116 618.667 OFFCURVE",
"116 604 CURVE SMOOTH",
"116 580.667 OFFCURVE",
"112.333 550 OFFCURVE",
"105 512 CURVE SMOOTH",
"66 312 LINE SMOOTH",
"56.667 266 OFFCURVE",
"52 230.667 OFFCURVE",
"52 206 CURVE SMOOTH",
"52 72.667 OFFCURVE",
"120 0 OFFCURVE",
"236 0 CURVE SMOOTH",
"254.667 0 OFFCURVE",
"276.667 1.333 OFFCURVE",
"302 4 CURVE",
"240.667 -40 OFFCURVE",
"174 -125.667 OFFCURVE",
"174 -175 CURVE SMOOTH",
"174 -203 OFFCURVE",
"195.667 -230 OFFCURVE",
"225 -230 CURVE SMOOTH",
"259 -230 OFFCURVE",
"296 -207.667 OFFCURVE",
"336 -163 CURVE",
"340 -159 OFFCURVE",
"348.667 -134.333 OFFCURVE",
"342 -133 CURVE",
"335.42 -133 OFFCURVE",
"283.268 -171 OFFCURVE",
"259 -171 CURVE SMOOTH",
"238.333 -171 OFFCURVE",
"228 -160.333 OFFCURVE",
"228 -139 CURVE SMOOTH"
);
}
);
width = 674;
}
);
note = Uogonek;
unicode = 0172;
},
{
glyphname = V;
lastChange = "2018-12-17 16:21:40 +0000";
layers = (
{
background = {
paths = (
{
closed = 1;
nodes = (
"209 654 OFFCURVE",
"127 658 QCURVE",
"120 653 OFFCURVE",
"120 636 QCURVE SMOOTH",
"120 631 OFFCURVE",
"122 631 QCURVE SMOOTH",
"133 631 OFFCURVE",
"168 617 OFFCURVE",
"173 606 QCURVE SMOOTH",
"182 585 OFFCURVE",
"188 551 QCURVE SMOOTH",
"287 -8 LINE",
"291 -14 OFFCURVE",
"296 -14 QCURVE SMOOTH",
"315 -14 OFFCURVE",
"334 19 QCURVE SMOOTH",
"660 579 LINE SMOOTH",
"675 605 OFFCURVE",
"723 631 OFFCURVE",
"742 631 QCURVE SMOOTH",
"748 631 OFFCURVE",
"750 652 QCURVE",
"750 658 LINE",
"674 654 OFFCURVE",
"651 654 QCURVE SMOOTH",
"630 654 OFFCURVE",
"558 658 QCURVE",
"551 653 OFFCURVE",
"551 636 QCURVE SMOOTH",
"551 631 OFFCURVE",
"553 631 QCURVE SMOOTH",
"573 631 OFFCURVE",
"607 615 OFFCURVE",
"607 602 QCURVE SMOOTH",
"607 575 OFFCURVE",
"595 554 QCURVE SMOOTH",
"355 143 LINE",
"278 562 LINE SMOOTH",
"274 581 OFFCURVE",
"274 594 QCURVE SMOOTH",
"274 614 OFFCURVE",
"299 631 OFFCURVE",
"334 631 QCURVE SMOOTH",
"341 631 OFFCURVE",
"341 655 QCURVE SMOOTH",
"341 658 OFFCURVE",
"341 658 QCURVE",
"265 654 OFFCURVE",
"232 654 QCURVE SMOOTH"
);
}
);
};
layerId = "02396921-8257-42A3-8ED5-3052446F9CE3";
paths = (
{
closed = 1;
nodes = (
"216.667 654 OFFCURVE",
"181.667 655.333 OFFCURVE",
"127 658 CURVE",
"122.333 654.667 OFFCURVE",
"120 647.333 OFFCURVE",
"120 636 CURVE SMOOTH",
"120 632.667 OFFCURVE",
"120.667 631 OFFCURVE",
"122 631 CURVE SMOOTH",
"136.667 631 OFFCURVE",
"166.333 620.667 OFFCURVE",
"173 606 CURVE SMOOTH",
"179 592 OFFCURVE",
"184 573.667 OFFCURVE",
"188 551 CURVE SMOOTH",
"287 -8 LINE",
"289.667 -12 OFFCURVE",
"292.667 -14 OFFCURVE",
"296 -14 CURVE SMOOTH",
"308.667 -14 OFFCURVE",
"321.333 -3 OFFCURVE",
"334 19 CURVE SMOOTH",
"660 579 LINE SMOOTH",
"680 613.667 OFFCURVE",
"716.667 631 OFFCURVE",
"742 631 CURVE SMOOTH",
"746 631 OFFCURVE",
"748.667 638 OFFCURVE",
"750 652 CURVE",
"750 658 LINE",
"699.333 655.333 OFFCURVE",
"666.333 654 OFFCURVE",
"651 654 CURVE SMOOTH",
"637 654 OFFCURVE",
"606 655.333 OFFCURVE",
"558 658 CURVE",
"553.333 654.667 OFFCURVE",
"551 647.333 OFFCURVE",
"551 636 CURVE SMOOTH",
"551 632.667 OFFCURVE",
"551.667 631 OFFCURVE",
"553 631 CURVE SMOOTH",
"579.667 631 OFFCURVE",
"607 619.333 OFFCURVE",
"607 602 CURVE SMOOTH",
"607 584 OFFCURVE",
"603 568 OFFCURVE",
"595 554 CURVE SMOOTH",
"355 143 LINE",
"278 562 LINE SMOOTH",
"275.333 574.667 OFFCURVE",
"274 585.333 OFFCURVE",
"274 594 CURVE SMOOTH",
"274 620.667 OFFCURVE",
"287.333 631 OFFCURVE",
"334 631 CURVE SMOOTH",
"338.667 631 OFFCURVE",
"341 639 OFFCURVE",
"341 655 CURVE SMOOTH",
"341 657 OFFCURVE",
"341 658 OFFCURVE",
"341 658 CURVE",
"290.333 655.333 OFFCURVE",
"254 654 OFFCURVE",
"232 654 CURVE SMOOTH"
);
}
);
width = 640;
}
);
note = V;
unicode = 0056;
},
{
glyphname = W;
lastChange = "2018-12-17 16:21:40 +0000";
layers = (
{
background = {
paths = (
{
closed = 1;
nodes = (
"194 652 OFFCURVE",
"135 657 OFFCURVE",
"120 658 QCURVE",
"113 653 OFFCURVE",
"113 636 QCURVE SMOOTH",
"113 631 OFFCURVE",
"115 631 QCURVE SMOOTH",
"125 631 OFFCURVE",
"158 616 OFFCURVE",
"163 606 QCURVE SMOOTH",
"181 570 OFFCURVE",
"198 510 QCURVE SMOOTH",
"340 -8 LINE",
"343 -13 OFFCURVE",
"348 -13 QCURVE SMOOTH",
"369 -13 OFFCURVE",
"390 19 QCURVE SMOOTH",
"536 245 LINE",
"606 -8 LINE",
"608 -13 OFFCURVE",
"614 -13 QCURVE SMOOTH",
"638 -13 OFFCURVE",
"657 19 QCURVE SMOOTH",
"938 498 LINE SMOOTH",
"975 560 OFFCURVE",
"1008 598 QCURVE SMOOTH",
"1016 607 OFFCURVE",
"1065 631 OFFCURVE",
"1081 631 QCURVE SMOOTH",
"1088 631 OFFCURVE",
"1088 658 QCURVE",
"1079 658 OFFCURVE",
"1016 652 OFFCURVE",
"988 652 QCURVE SMOOTH",
"980 652 OFFCURVE",
"893 658 QCURVE",
"886 653 OFFCURVE",
"886 636 QCURVE SMOOTH",
"886 631 OFFCURVE",
"888 631 QCURVE SMOOTH",
"899 631 OFFCURVE",
"934 612 OFFCURVE",
"934 593 QCURVE SMOOTH",
"934 578 OFFCURVE",
"909 534 QCURVE SMOOTH",
"666 106 LINE",
"598 344 LINE",
"698 498 LINE SMOOTH",
"749 577 OFFCURVE",
"768 598 QCURVE SMOOTH",
"776 607 OFFCURVE",
"825 631 OFFCURVE",
"841 631 QCURVE SMOOTH",
"848 631 OFFCURVE",
"848 658 QCURVE",
"839 658 OFFCURVE",
"776 652 OFFCURVE",
"748 652 QCURVE SMOOTH",
"740 652 OFFCURVE",
"653 658 QCURVE",
"646 653 OFFCURVE",
"646 636 QCURVE SMOOTH",
"646 631 OFFCURVE",
"648 631 QCURVE SMOOTH",
"659 631 OFFCURVE",
"694 612 OFFCURVE",
"694 593 QCURVE SMOOTH",
"694 575 OFFCURVE",
"669 534 QCURVE SMOOTH",
"584 396 LINE",
"539 557 LINE SMOOTH",
"533 581 OFFCURVE",
"533 594 QCURVE SMOOTH",
"533 609 OFFCURVE",
"560 631 OFFCURVE",
"584 631 QCURVE SMOOTH",
"587 631 OFFCURVE",
"592 648 OFFCURVE",
"592 655 QCURVE SMOOTH",
"592 658 LINE",
"582 657 OFFCURVE",
"516 652 OFFCURVE",
"492 652 QCURVE SMOOTH",
"467 652 OFFCURVE",
"399 657 OFFCURVE",
"386 658 QCURVE",
"378 652 OFFCURVE",
"378 636 QCURVE SMOOTH",
"378 631 OFFCURVE",
"380 631 QCURVE SMOOTH",
"390 631 OFFCURVE",
"423 616 OFFCURVE",
"429 606 QCURVE SMOOTH",
"440 588 OFFCURVE",
"448 560 QCURVE SMOOTH",
"522 295 LINE",
"401 112 LINE",
"274 557 LINE SMOOTH",
"267 585 OFFCURVE",
"267 594 QCURVE SMOOTH",
"267 609 OFFCURVE",
"295 631 OFFCURVE",
"319 631 QCURVE SMOOTH",
"326 631 OFFCURVE",
"326 655 QCURVE SMOOTH",
"326 658 LINE",
"313 657 OFFCURVE",
"272 654 OFFCURVE",
"236 652 OFFCURVE",
"218 652 QCURVE SMOOTH"
);
}
);
};
layerId = "02396921-8257-42A3-8ED5-3052446F9CE3";
paths = (
{
closed = 1;
nodes = (
"202 652 OFFCURVE",
"184.167 652.833 OFFCURVE",
"164.5 654.5 CURVE SMOOTH",
"144.833 656.167 OFFCURVE",
"130 657.333 OFFCURVE",
"120 658 CURVE",
"115.333 654.667 OFFCURVE",
"113 647.333 OFFCURVE",
"113 636 CURVE SMOOTH",
"113 632.667 OFFCURVE",
"113.667 631 OFFCURVE",
"115 631 CURVE SMOOTH",
"128.333 631 OFFCURVE",
"156.333 619.333 OFFCURVE",
"163 606 CURVE SMOOTH",
"175 582 OFFCURVE",
"186.667 550 OFFCURVE",
"198 510 CURVE SMOOTH",
"340 -8 LINE",
"342 -11.333 OFFCURVE",
"344.667 -13 OFFCURVE",
"348 -13 CURVE SMOOTH",
"362 -13 OFFCURVE",
"376 -2.333 OFFCURVE",
"390 19 CURVE SMOOTH",
"536 245 LINE",
"606 -8 LINE",
"607.333 -11.333 OFFCURVE",
"610 -13 OFFCURVE",
"614 -13 CURVE SMOOTH",
"630 -13 OFFCURVE",
"644.333 -2.333 OFFCURVE",
"657 19 CURVE SMOOTH",
"938 498 LINE SMOOTH",
"962.667 539.333 OFFCURVE",
"986 572.667 OFFCURVE",
"1008 598 CURVE SMOOTH",
"1018.667 610 OFFCURVE",
"1059.667 631 OFFCURVE",
"1081 631 CURVE SMOOTH",
"1085.667 631 OFFCURVE",
"1088 640 OFFCURVE",
"1088 658 CURVE",
"1082 658 OFFCURVE",
"1068.5 657 OFFCURVE",
"1047.5 655 CURVE SMOOTH",
"1026.5 653 OFFCURVE",
"1006.667 652 OFFCURVE",
"988 652 CURVE SMOOTH",
"982.667 652 OFFCURVE",
"951 654 OFFCURVE",
"893 658 CURVE",
"888.333 654.667 OFFCURVE",
"886 647.333 OFFCURVE",
"886 636 CURVE SMOOTH",
"886 632.667 OFFCURVE",
"886.667 631 OFFCURVE",
"888 631 CURVE SMOOTH",
"902.667 631 OFFCURVE",
"934 618.333 OFFCURVE",
"934 593 CURVE SMOOTH",
"934 583 OFFCURVE",
"925.667 563.333 OFFCURVE",
"909 534 CURVE SMOOTH",
"666 106 LINE",
"598 344 LINE",
"698 498 LINE SMOOTH",
"732 550.667 OFFCURVE",
"755.333 584 OFFCURVE",
"768 598 CURVE SMOOTH",
"778.667 610 OFFCURVE",
"819.667 631 OFFCURVE",
"841 631 CURVE SMOOTH",
"845.667 631 OFFCURVE",
"848 640 OFFCURVE",
"848 658 CURVE",
"842 658 OFFCURVE",
"828.5 657 OFFCURVE",
"807.5 655 CURVE SMOOTH",
"786.5 653 OFFCURVE",
"766.667 652 OFFCURVE",
"748 652 CURVE SMOOTH",
"742.667 652 OFFCURVE",
"711 654 OFFCURVE",
"653 658 CURVE",
"648.333 654.667 OFFCURVE",
"646 647.333 OFFCURVE",
"646 636 CURVE SMOOTH",
"646 632.667 OFFCURVE",
"646.667 631 OFFCURVE",
"648 631 CURVE SMOOTH",
"662.667 631 OFFCURVE",
"694 618.333 OFFCURVE",
"694 593 CURVE SMOOTH",
"694 581 OFFCURVE",
"685.667 561.333 OFFCURVE",
"669 534 CURVE SMOOTH",
"584 396 LINE",
"539 557 LINE SMOOTH",
"535 573 OFFCURVE",
"533 585.333 OFFCURVE",
"533 594 CURVE SMOOTH",
"533 614 OFFCURVE",
"552 631 OFFCURVE",
"584 631 CURVE SMOOTH",
"588 631 OFFCURVE",
"592 645.667 OFFCURVE",
"592 655 CURVE SMOOTH",
"592 658 LINE",
"578.667 656.667 OFFCURVE",
"524 652 OFFCURVE",
"492 652 CURVE SMOOTH",
"458.667 652 OFFCURVE",
"403.333 656.667 OFFCURVE",
"386 658 CURVE",
"380.667 654 OFFCURVE",
"378 646.667 OFFCURVE",
"378 636 CURVE SMOOTH",
"378 632.667 OFFCURVE",
"378.667 631 OFFCURVE",
"380 631 CURVE SMOOTH",
"393.333 631 OFFCURVE",
"421 619.333 OFFCURVE",
"429 606 CURVE SMOOTH",
"436.333 594 OFFCURVE",
"442.667 578.667 OFFCURVE",
"448 560 CURVE SMOOTH",
"522 295 LINE",
"401 112 LINE",
"274 557 LINE SMOOTH",
"269.333 575.667 OFFCURVE",
"267 588 OFFCURVE",
"267 594 CURVE SMOOTH",
"267 614 OFFCURVE",
"287 631 OFFCURVE",
"319 631 CURVE SMOOTH",
"323.667 631 OFFCURVE",
"326 639 OFFCURVE",
"326 655 CURVE SMOOTH",
"326 658 LINE",
"300.377 656.029 OFFCURVE",
"242.546 652 OFFCURVE",
"218 652 CURVE SMOOTH"
);
}
);
width = 973;
}
);
note = W;
unicode = 0057;
},
{
glyphname = X;
lastChange = "2018-12-17 16:21:40 +0000";
layers = (
{
background = {
paths = (
{
closed = 1;
nodes = (
"262 652 OFFCURVE",
"184 657 OFFCURVE",
"172 658 QCURVE",
"165 653 OFFCURVE",
"165 636 QCURVE SMOOTH",
"165 631 OFFCURVE",
"167 631 QCURVE SMOOTH",
"176 631 OFFCURVE",
"214 617 OFFCURVE",
"223 609 QCURVE SMOOTH",
"242 593 OFFCURVE",
"260 563 OFFCURVE",
"278 520 QCURVE SMOOTH",
"356 336 LINE",
"356 333 OFFCURVE",
"105 54 QCURVE SMOOTH",
"94 42 OFFCURVE",
"50 27 OFFCURVE",
"23 24 OFFCURVE",
"15 24 QCURVE SMOOTH",
"10 24 OFFCURVE",
"10 1 QCURVE SMOOTH",
"10 -2 OFFCURVE",
"11 -3 QCURVE",
"30 -2 OFFCURVE",
"127 -2 QCURVE SMOOTH",
"213 -2 OFFCURVE",
"230 -3 QCURVE",
"235 2 OFFCURVE",
"235 15 QCURVE SMOOTH",
"235 24 OFFCURVE",
"231 24 QCURVE SMOOTH",
"176 24 OFFCURVE",
"176 54 QCURVE SMOOTH",
"176 62 OFFCURVE",
"275 180 OFFCURVE",
"373 291 OFFCURVE",
"375 291 OFFCURVE",
"466 74 QCURVE SMOOTH",
"468 69 OFFCURVE",
"468 56 QCURVE SMOOTH",
"468 42 OFFCURVE",
"425 24 OFFCURVE",
"413 24 QCURVE SMOOTH",
"406 24 OFFCURVE",
"406 5 QCURVE SMOOTH",
"406 -1 OFFCURVE",
"408 -3 QCURVE",
"540 2 OFFCURVE",
"542 2 QCURVE SMOOTH",
"560 2 OFFCURVE",
"653 -3 QCURVE",
"656 3 OFFCURVE",
"656 19 QCURVE SMOOTH",
"656 24 OFFCURVE",
"654 24 QCURVE SMOOTH",
"639 24 OFFCURVE",
"578 45 OFFCURVE",
"564 69 QCURVE SMOOTH",
"556 83 OFFCURVE",
"494 226 OFFCURVE",
"440 354 OFFCURVE",
"440 355 QCURVE SMOOTH",
"440 357 OFFCURVE",
"659 600 QCURVE SMOOTH",
"671 613 OFFCURVE",
"743 631 OFFCURVE",
"755 631 QCURVE SMOOTH",
"762 631 OFFCURVE",
"762 655 QCURVE SMOOTH",
"762 658 LINE",
"749 657 OFFCURVE",
"709 654 OFFCURVE",
"672 652 OFFCURVE",
"651 652 QCURVE SMOOTH",
"642 652 OFFCURVE",
"540 658 QCURVE",
"533 653 OFFCURVE",
"533 636 QCURVE SMOOTH",
"533 631 OFFCURVE",
"535 631 QCURVE SMOOTH",
"555 631 OFFCURVE",
"593 613 OFFCURVE",
"593 600 QCURVE SMOOTH",
"593 589 OFFCURVE",
"508 489 OFFCURVE",
"424 399 OFFCURVE",
"422 399 QCURVE SMOOTH",
"421 399 OFFCURVE",
"347 567 QCURVE",
"342 580 OFFCURVE",
"342 591 QCURVE SMOOTH",
"342 605 OFFCURVE",
"372 625 OFFCURVE",
"398 631 OFFCURVE",
"406 631 QCURVE SMOOTH",
"412 631 OFFCURVE",
"412 654 QCURVE SMOOTH",
"412 658 LINE",
"298 652 OFFCURVE",
"289 652 QCURVE SMOOTH"
);
}
);
};
layerId = "02396921-8257-42A3-8ED5-3052446F9CE3";
paths = (
{
closed = 1;
nodes = (
"253 652 OFFCURVE",
"188 656.667 OFFCURVE",
"172 658 CURVE",
"167.333 654.667 OFFCURVE",
"165 647.333 OFFCURVE",
"165 636 CURVE SMOOTH",
"165 632.667 OFFCURVE",
"165.667 631 OFFCURVE",
"167 631 CURVE SMOOTH",
"179 631 OFFCURVE",
"211 619.667 OFFCURVE",
"223 609 CURVE SMOOTH",
"248.333 587.667 OFFCURVE",
"254 577.333 OFFCURVE",
"278 520 CURVE SMOOTH",
"356 336 LINE",
"356 334 OFFCURVE",
"272.333 240 OFFCURVE",
"105 54 CURVE SMOOTH",
"84.003 31.095 OFFCURVE",
"31.274 24 OFFCURVE",
"15 24 CURVE SMOOTH",
"11.667 24 OFFCURVE",
"10 16.333 OFFCURVE",
"10 1 CURVE SMOOTH",
"10 -1 OFFCURVE",
"10.333 -2.333 OFFCURVE",
"11 -3 CURVE",
"23.667 -2.333 OFFCURVE",
"62.333 -2 OFFCURVE",
"127 -2 CURVE SMOOTH",
"184.333 -2 OFFCURVE",
"218.667 -2.333 OFFCURVE",
"230 -3 CURVE",
"233.333 0.333 OFFCURVE",
"235 6.333 OFFCURVE",
"235 15 CURVE SMOOTH",
"235 21 OFFCURVE",
"233.667 24 OFFCURVE",
"231 24 CURVE SMOOTH",
"194.333 24 OFFCURVE",
"176 34 OFFCURVE",
"176 54 CURVE SMOOTH",
"176 68.133 OFFCURVE",
"279.736 185.365 OFFCURVE",
"324 235.5 CURVE SMOOTH",
"356.667 272.5 OFFCURVE",
"373.333 291 OFFCURVE",
"374 291 CURVE SMOOTH",
"374.667 291 OFFCURVE",
"405.333 218.667 OFFCURVE",
"466 74 CURVE SMOOTH",
"467.333 70.667 OFFCURVE",
"468 64.667 OFFCURVE",
"468 56 CURVE SMOOTH",
"468 37.333 OFFCURVE",
"429 24 OFFCURVE",
"413 24 CURVE SMOOTH",
"408.333 24 OFFCURVE",
"406 17.667 OFFCURVE",
"406 5 CURVE SMOOTH",
"406 1 OFFCURVE",
"406.667 -1.667 OFFCURVE",
"408 -3 CURVE",
"496 0.333 OFFCURVE",
"540.667 2 OFFCURVE",
"542 2 CURVE SMOOTH",
"554 2 OFFCURVE",
"591 0.333 OFFCURVE",
"653 -3 CURVE",
"655 1 OFFCURVE",
"656 8.333 OFFCURVE",
"656 19 CURVE SMOOTH",
"656 22.333 OFFCURVE",
"655.333 24 OFFCURVE",
"654 24 CURVE SMOOTH",
"634 24 OFFCURVE",
"582.667 37 OFFCURVE",
"564 69 CURVE SMOOTH",
"553.333 87.667 OFFCURVE",
"503 204.667 OFFCURVE",
"467 290 CURVE SMOOTH",
"449 332.667 OFFCURVE",
"440 354.333 OFFCURVE",
"440 355 CURVE SMOOTH",
"440 356.333 OFFCURVE",
"513 438 OFFCURVE",
"659 600 CURVE SMOOTH",
"675 617.333 OFFCURVE",
"739 631 OFFCURVE",
"755 631 CURVE SMOOTH",
"759.667 631 OFFCURVE",
"762 639 OFFCURVE",
"762 655 CURVE SMOOTH",
"762 658 LINE",
"736.778 656.06 OFFCURVE",
"679.298 652 OFFCURVE",
"651 652 CURVE SMOOTH",
"645 652 OFFCURVE",
"608 654 OFFCURVE",
"540 658 CURVE",
"535.333 654.667 OFFCURVE",
"533 647.333 OFFCURVE",
"533 636 CURVE SMOOTH",
"533 632.667 OFFCURVE",
"533.667 631 OFFCURVE",
"535 631 CURVE SMOOTH",
"561.667 631 OFFCURVE",
"593 617.333 OFFCURVE",
"593 600 CURVE SMOOTH",
"593 592.245 OFFCURVE",
"469.149 399 OFFCURVE",
"422 399 CURVE SMOOTH",
"421.333 399 OFFCURVE",
"396.333 455 OFFCURVE",
"347 567 CURVE",
"343.667 575.667 OFFCURVE",
"342 583.667 OFFCURVE",
"342 591 CURVE SMOOTH",
"342 618.174 OFFCURVE",
"388.551 631 OFFCURVE",
"406 631 CURVE SMOOTH",
"410 631 OFFCURVE",
"412 638.667 OFFCURVE",
"412 654 CURVE SMOOTH",
"412 658 LINE",
"336 654 OFFCURVE",
"295 652 OFFCURVE",
"289 652 CURVE SMOOTH"
);
}
);
width = 656;
}
);
note = X;
unicode = 0058;
},
{
glyphname = Y;
lastChange = "2018-12-17 16:21:40 +0000";
layers = (
{
background = {
paths = (
{
closed = 1;
nodes = (
"217 652 OFFCURVE",
"139 657 OFFCURVE",
"127 658 QCURVE",
"120 653 OFFCURVE",
"120 636 QCURVE SMOOTH",
"120 631 OFFCURVE",
"122 631 QCURVE SMOOTH",
"130 631 OFFCURVE",
"168 616 OFFCURVE",
"178 609 QCURVE SMOOTH",
"202 591 OFFCURVE",
"217 545 QCURVE SMOOTH",
"238 480 LINE SMOOTH",
"260 415 OFFCURVE",
"302 282 OFFCURVE",
"301 278 QCURVE",
"275 136 LINE SMOOTH",
"262 67 OFFCURVE",
"250 46 QCURVE",
"245 38 OFFCURVE",
"197 24 OFFCURVE",
"186 24 QCURVE SMOOTH",
"179 24 OFFCURVE",
"179 4 QCURVE SMOOTH",
"179 -2 OFFCURVE",
"180 -3 QCURVE",
"288 2 OFFCURVE",
"291 2 QCURVE SMOOTH",
"302 2 OFFCURVE",
"395 -3 QCURVE",
"401 9 OFFCURVE",
"401 20 QCURVE SMOOTH",
"401 24 OFFCURVE",
"399 24 QCURVE",
"386 26 LINE SMOOTH",
"372 28 OFFCURVE",
"345 41 OFFCURVE",
"345 49 QCURVE SMOOTH",
"345 84 OFFCURVE",
"356 139 QCURVE SMOOTH",
"384 285 LINE SMOOTH",
"386 295 OFFCURVE",
"603 588 OFFCURVE",
"627 612 OFFCURVE",
"686 631 OFFCURVE",
"696 631 QCURVE SMOOTH",
"703 631 OFFCURVE",
"703 653 QCURVE SMOOTH",
"703 656 OFFCURVE",
"702 658 QCURVE",
"588 652 OFFCURVE",
"583 652 QCURVE SMOOTH",
"563 652 OFFCURVE",
"499 658 OFFCURVE",
"491 658 QCURVE",
"484 653 OFFCURVE",
"484 637 QCURVE SMOOTH",
"484 631 OFFCURVE",
"486 631 QCURVE SMOOTH",
"506 631 OFFCURVE",
"547 613 OFFCURVE",
"548 600 QCURVE",
"548 595 OFFCURVE",
"528 563 OFFCURVE",
"484 503 OFFCURVE",
"449 456 OFFCURVE",
"384 372 OFFCURVE",
"371 355 QCURVE",
"302 567 LINE SMOOTH",
"298 579 OFFCURVE",
"298 589 QCURVE SMOOTH",
"298 610 OFFCURVE",
"346 631 OFFCURVE",
"361 631 QCURVE SMOOTH",
"368 631 OFFCURVE",
"368 653 QCURVE SMOOTH",
"368 658 LINE",
"254 652 OFFCURVE",
"244 652 QCURVE SMOOTH"
);
}
);
};
layerId = "02396921-8257-42A3-8ED5-3052446F9CE3";
paths = (
{
closed = 1;
nodes = (
"208 652 OFFCURVE",
"143 656.667 OFFCURVE",
"127 658 CURVE",
"122.333 654.667 OFFCURVE",
"120 647.333 OFFCURVE",
"120 636 CURVE SMOOTH",
"120 632.667 OFFCURVE",
"120.667 631 OFFCURVE",
"122 631 CURVE SMOOTH",
"132.667 631 OFFCURVE",
"164.667 618.333 OFFCURVE",
"178 609 CURVE SMOOTH",
"194 597 OFFCURVE",
"207 575.667 OFFCURVE",
"217 545 CURVE SMOOTH",
"238 480 LINE SMOOTH",
"252.667 436.667 OFFCURVE",
"267 392.833 OFFCURVE",
"281 348.5 CURVE SMOOTH",
"295 304.167 OFFCURVE",
"301.667 280.667 OFFCURVE",
"301 278 CURVE",
"275 136 LINE SMOOTH",
"266.333 90 OFFCURVE",
"258 60 OFFCURVE",
"250 46 CURVE",
"243.333 35.333 OFFCURVE",
"200.667 24 OFFCURVE",
"186 24 CURVE SMOOTH",
"181.333 24 OFFCURVE",
"179 17.333 OFFCURVE",
"179 4 CURVE SMOOTH",
"179 0 OFFCURVE",
"179.333 -2.333 OFFCURVE",
"180 -3 CURVE",
"252 0.333 OFFCURVE",
"289 2 OFFCURVE",
"291 2 CURVE SMOOTH",
"298.333 2 OFFCURVE",
"333 0.333 OFFCURVE",
"395 -3 CURVE",
"399 5 OFFCURVE",
"401 12.667 OFFCURVE",
"401 20 CURVE SMOOTH",
"401 22.667 OFFCURVE",
"400.333 24 OFFCURVE",
"399 24 CURVE",
"386 26 LINE SMOOTH",
"367.333 28.667 OFFCURVE",
"345 38.333 OFFCURVE",
"345 49 CURVE SMOOTH",
"345 72.333 OFFCURVE",
"348.667 102.333 OFFCURVE",
"356 139 CURVE SMOOTH",
"384 285 LINE SMOOTH",
"386.667 298.333 OFFCURVE",
"599 584 OFFCURVE",
"615 600 CURVE SMOOTH",
"631 616 OFFCURVE",
"682.667 631 OFFCURVE",
"696 631 CURVE SMOOTH",
"700.667 631 OFFCURVE",
"703 638.333 OFFCURVE",
"703 653 CURVE SMOOTH",
"703 655 OFFCURVE",
"702.667 656.667 OFFCURVE",
"702 658 CURVE",
"626 654 OFFCURVE",
"586.333 652 OFFCURVE",
"583 652 CURVE SMOOTH",
"569.667 652 OFFCURVE",
"552.333 653 OFFCURVE",
"531 655 CURVE SMOOTH",
"509.667 657 OFFCURVE",
"496.333 658 OFFCURVE",
"491 658 CURVE",
"486.333 654.667 OFFCURVE",
"484 647.667 OFFCURVE",
"484 637 CURVE SMOOTH",
"484 633 OFFCURVE",
"484.667 631 OFFCURVE",
"486 631 CURVE SMOOTH",
"512.667 631 OFFCURVE",
"546.667 617.333 OFFCURVE",
"548 600 CURVE",
"548 596.667 OFFCURVE",
"544.667 589.667 OFFCURVE",
"538 579 CURVE SMOOTH",
"531.333 568.333 OFFCURVE",
"520.667 553 OFFCURVE",
"506 533 CURVE SMOOTH",
"491.333 513 OFFCURVE",
"478.167 495.167 OFFCURVE",
"466.5 479.5 CURVE SMOOTH",
"454.833 463.833 OFFCURVE",
"423 422.333 OFFCURVE",
"371 355 CURVE",
"302 567 LINE SMOOTH",
"299.333 575 OFFCURVE",
"298 582.333 OFFCURVE",
"298 589 CURVE SMOOTH",
"298 617 OFFCURVE",
"341 631 OFFCURVE",
"361 631 CURVE SMOOTH",
"365.667 631 OFFCURVE",
"368 638.333 OFFCURVE",
"368 653 CURVE SMOOTH",
"368 658 LINE",
"292 654 OFFCURVE",
"250.667 652 OFFCURVE",
"244 652 CURVE SMOOTH"
);
}
);
width = 593;
}
);
note = Y;
unicode = 0059;
},
{
glyphname = Z;
lastChange = "2018-12-17 16:21:40 +0000";
layers = (
{
background = {
paths = (
{
closed = 1;
nodes = (
"307 656 OFFCURVE",
"185 662 OFFCURVE",
"176 665 QCURVE",
"133 524 OFFCURVE",
"120 489 QCURVE",
"129 480 OFFCURVE",
"147 480 QCURVE SMOOTH",
"154 480 OFFCURVE",
"157 484 QCURVE",
"189 554 OFFCURVE",
"245 606 OFFCURVE",
"309 607 QCURVE SMOOTH",
"310 607 OFFCURVE",
"332 607 OFFCURVE",
"368 608 OFFCURVE",
"408 608 OFFCURVE",
"451 608 OFFCURVE",
"467 608 QCURVE SMOOTH",
"510 608 LINE",
"44 43 LINE SMOOTH",
"36 33 OFFCURVE",
"36 17 QCURVE SMOOTH",
"36 7 OFFCURVE",
"40 0 QCURVE",
"501 0 LINE",
"523 68 OFFCURVE",
"558 154 QCURVE",
"554 160 OFFCURVE",
"544 160 QCURVE SMOOTH",
"520 160 OFFCURVE",
"517 152 QCURVE",
"517 151 OFFCURVE",
"507 130 OFFCURVE",
"504 123 OFFCURVE",
"492 102 OFFCURVE",
"482 92 OFFCURVE",
"466 74 OFFCURVE",
"448 66 OFFCURVE",
"426 55 OFFCURVE",
"397 51 OFFCURVE",
"381 51 QCURVE SMOOTH",
"171 51 LINE SMOOTH",
"161 51 OFFCURVE",
"161 67 OFFCURVE",
"169 76 QCURVE",
"282 214 LINE SMOOTH",
"396 351 OFFCURVE",
"624 629 OFFCURVE",
"625 633 QCURVE",
"626 636 OFFCURVE",
"624 665 OFFCURVE",
"622 666 QCURVE",
"596 664 OFFCURVE",
"539 659 OFFCURVE",
"513 657 OFFCURVE",
"465 655 OFFCURVE",
"431 655 QCURVE SMOOTH",
"369 655 OFFCURVE",
"323 656 QCURVE SMOOTH"
);
}
);
};
layerId = "02396921-8257-42A3-8ED5-3052446F9CE3";
paths = (
{
closed = 1;
nodes = (
"301.667 656 OFFCURVE",
"188 661 OFFCURVE",
"176 665 CURVE",
"147.333 571 OFFCURVE",
"128.667 512.333 OFFCURVE",
"120 489 CURVE",
"126 483 OFFCURVE",
"135 480 OFFCURVE",
"147 480 CURVE SMOOTH",
"151.667 480 OFFCURVE",
"155 481.333 OFFCURVE",
"157 484 CURVE",
"199.667 577.333 OFFCURVE",
"223.667 605.667 OFFCURVE",
"309 607 CURVE SMOOTH",
"309.667 607 OFFCURVE",
"313.667 607 OFFCURVE",
"321 607 CURVE SMOOTH",
"328.333 607 OFFCURVE",
"338 607.167 OFFCURVE",
"350 607.5 CURVE SMOOTH",
"362 607.833 OFFCURVE",
"374.667 608 OFFCURVE",
"388 608 CURVE SMOOTH",
"401.333 608 OFFCURVE",
"427.667 608 OFFCURVE",
"467 608 CURVE SMOOTH",
"510 608 LINE",
"44 43 LINE SMOOTH",
"38.667 36.333 OFFCURVE",
"36 27.667 OFFCURVE",
"36 17 CURVE SMOOTH",
"36 10.333 OFFCURVE",
"37.333 4.667 OFFCURVE",
"40 0 CURVE",
"501 0 LINE",
"515.667 45.333 OFFCURVE",
"534.667 96.667 OFFCURVE",
"558 154 CURVE",
"555.333 158 OFFCURVE",
"550.667 160 OFFCURVE",
"544 160 CURVE SMOOTH",
"528 160 OFFCURVE",
"519 157.333 OFFCURVE",
"517 152 CURVE",
"517 146.994 OFFCURVE",
"494.037 104.037 OFFCURVE",
"487 97 CURVE SMOOTH",
"450.336 60.336 OFFCURVE",
"439.942 56.239 OFFCURVE",
"381 51 CURVE",
"171 51 LINE SMOOTH",
"164.333 51 OFFCURVE",
"161 53.667 OFFCURVE",
"161 59 CURVE SMOOTH",
"161 64.333 OFFCURVE",
"163.667 70 OFFCURVE",
"169 76 CURVE",
"282 214 LINE SMOOTH",
"358 305.333 OFFCURVE",
"434 397.333 OFFCURVE",
"510 490 CURVE SMOOTH",
"586 582.667 OFFCURVE",
"624.333 630.333 OFFCURVE",
"625 633 CURVE",
"626.333 637 OFFCURVE",
"624.667 664.667 OFFCURVE",
"622 666 CURVE",
"564.621 661.586 OFFCURVE",
"499.766 655 OFFCURVE",
"431 655 CURVE SMOOTH",
"389.667 655 OFFCURVE",
"353.667 655.333 OFFCURVE",
"323 656 CURVE SMOOTH"
);
}
);
width = 546;
}
);
note = Z;
unicode = 005A;
},
{
glyphname = a;
lastChange = "2018-12-18 12:34:10 +0000";
layers = (
{
background = {
paths = (
{
closed = 1;
nodes = (
"249 435 OFFCURVE",
"115 344 OFFCURVE",
"30 201 OFFCURVE",
"30 130 QCURVE SMOOTH",
"30 74 OFFCURVE",
"81 -5 OFFCURVE",
"125 -5 QCURVE SMOOTH",
"145 -5 OFFCURVE",
"190 24 OFFCURVE",
"230 70 OFFCURVE",
"256 107 OFFCURVE",
"266 125 QCURVE",
"266 123 OFFCURVE",
"263 110 OFFCURVE",
"261 99 QCURVE SMOOTH",
"254 63 OFFCURVE",
"254 46 QCURVE SMOOTH",
"254 23 OFFCURVE",
"272 -6 OFFCURVE",
"288 -6 QCURVE SMOOTH",
"319 -6 OFFCURVE",
"401 66 OFFCURVE",
"414 88 QCURVE",
"414 92 OFFCURVE",
"403 111 OFFCURVE",
"401 111 QCURVE",
"395 104 LINE",
"389 98 OFFCURVE",
"375 83 OFFCURVE",
"358 67 OFFCURVE",
"341 56 OFFCURVE",
"335 56 QCURVE SMOOTH",
"325 56 OFFCURVE",
"325 81 QCURVE SMOOTH",
"325 94 OFFCURVE",
"328 106 QCURVE",
"389 422 LINE",
"354 435 OFFCURVE",
"316 435 QCURVE SMOOTH"
);
},
{
closed = 1;
nodes = (
"303 389 OFFCURVE",
"315 376 QCURVE",
"295 274 LINE SMOOTH",
"280 199 OFFCURVE",
"191 53 OFFCURVE",
"155 53 QCURVE SMOOTH",
"104 53 OFFCURVE",
"104 151 QCURVE SMOOTH",
"104 236 OFFCURVE",
"215 389 OFFCURVE",
"274 389 QCURVE SMOOTH"
);
}
);
};
color = 3;
layerId = "02396921-8257-42A3-8ED5-3052446F9CE3";
paths = (
{
closed = 1;
nodes = (
"176 435 OFFCURVE",
"30 283 OFFCURVE",
"30 120 CURVE SMOOTH",
"30 51 OFFCURVE",
"69 -5 OFFCURVE",
"125 -5 CURVE SMOOTH",
"164 -5 OFFCURVE",
"211 29 OFFCURVE",
"266 125 CURVE",
"259 93 OFFCURVE",
"254 58 OFFCURVE",
"254 46 CURVE SMOOTH",
"254 15 OFFCURVE",
"268 -6 OFFCURVE",
"290 -6 CURVE SMOOTH",
"321 -6 OFFCURVE",
"390 46 OFFCURVE",
"414 88 CURVE",
"414 93 OFFCURVE",
"404 111 OFFCURVE",
"401 111 CURVE",
"364 70 OFFCURVE",
"347 56 OFFCURVE",
"335 56 CURVE SMOOTH",
"328 56 OFFCURVE",
"325 63 OFFCURVE",
"325 77 CURVE SMOOTH",
"325 86 OFFCURVE",
"324 83 OFFCURVE",
"330 116 CURVE SMOOTH",
"390 424 LINE",
"369 431 OFFCURVE",
"343 435 OFFCURVE",
"314 435 CURVE SMOOTH"
);
},
{
closed = 1;
nodes = (
"285 389 OFFCURVE",
"303 386 OFFCURVE",
"315 379 CURVE",
"295 274 LINE SMOOTH",
"274 168 OFFCURVE",
"201 53 OFFCURVE",
"155 53 CURVE SMOOTH",
"123 53 OFFCURVE",
"104 86 OFFCURVE",
"104 141 CURVE SMOOTH",
"104 275 OFFCURVE",
"193 389 OFFCURVE",
"273 389 CURVE SMOOTH"
);
}
);
width = 440;
}
);
note = a;
unicode = 0061;
},
{
glyphname = aogonek;
lastChange = "2018-12-17 16:21:40 +0000";
layers = (
{
background = {
paths = (
{
closed = 1;
nodes = (
"346 397 OFFCURVE",
"346 385 QCURVE SMOOTH",
"346 383 OFFCURVE",
"345 374 OFFCURVE",
"345 373 QCURVE",
"325 270 LINE SMOOTH",
"311 201 OFFCURVE",
"209 52 OFFCURVE",
"177 52 QCURVE SMOOTH",
"156 52 OFFCURVE",
"135 80 OFFCURVE",
"133 102 OFFCURVE",
"133 121 QCURVE SMOOTH",
"133 202 OFFCURVE",
"274 397 OFFCURVE",
"340 397 QCURVE SMOOTH"
);
},
{
closed = 1;
nodes = (
"310 435 OFFCURVE",
"209 373 OFFCURVE",
"120 279 OFFCURVE",
"57 154 OFFCURVE",
"57 98 QCURVE SMOOTH",
"57 46 OFFCURVE",
"95 -7 OFFCURVE",
"141 -7 QCURVE SMOOTH",
"184 -7 OFFCURVE",
"275 92 OFFCURVE",
"295 134 QCURVE",
"297 136 LINE",
"298 134 LINE",
"294 108 LINE",
"291 82 OFFCURVE",
"291 67 QCURVE SMOOTH",
"291 39 OFFCURVE",
"313 1 OFFCURVE",
"333 -2 QCURVE",
"290 -45 OFFCURVE",
"223 -145 OFFCURVE",
"223 -180 QCURVE SMOOTH",
"223 -201 OFFCURVE",
"252 -230 OFFCURVE",
"274 -230 QCURVE SMOOTH",
"325 -230 OFFCURVE",
"385 -163 QCURVE",
"388 -160 OFFCURVE",
"396 -134 OFFCURVE",
"391 -133 QCURVE",
"390 -133 OFFCURVE",
"367 -152 OFFCURVE",
"329 -171 OFFCURVE",
"308 -171 QCURVE SMOOTH",
"277 -171 OFFCURVE",
"277 -139 QCURVE SMOOTH",
"277 -116 OFFCURVE",
"315 -62 OFFCURVE",
"392 11 OFFCURVE",
"395 14 QCURVE",
"443 67 OFFCURVE",
"457 103 QCURVE",
"457 107 OFFCURVE",
"452 118 OFFCURVE",
"448 125 OFFCURVE",
"446 125 OFFCURVE",
"422 88 OFFCURVE",
"391 52 OFFCURVE",
"382 52 QCURVE SMOOTH",
"360 52 OFFCURVE",
"360 89 QCURVE SMOOTH",
"360 101 OFFCURVE",
"361 106 QCURVE SMOOTH",
"421 421 LINE",
"407 435 OFFCURVE",
"347 435 QCURVE SMOOTH"
);
}
);
};
layerId = "02396921-8257-42A3-8ED5-3052446F9CE3";
paths = (
{
closed = 1;
nodes = (
"344 397 OFFCURVE",
"346 393 OFFCURVE",
"346 385 CURVE SMOOTH",
"346 383.667 OFFCURVE",
"345.833 381.5 OFFCURVE",
"345.5 378.5 CURVE SMOOTH",
"345.167 375.5 OFFCURVE",
"345 373.667 OFFCURVE",
"345 373 CURVE",
"325 270 LINE SMOOTH",
"306.333 178 OFFCURVE",
"219.667 52 OFFCURVE",
"177 52 CURVE SMOOTH",
"136.656 52 OFFCURVE",
"133 88.212 OFFCURVE",
"133 121 CURVE SMOOTH",
"133 229 OFFCURVE",
"252 397 OFFCURVE",
"340 397 CURVE SMOOTH"
);
},
{
closed = 1;
nodes = (
"297.667 435 OFFCURVE",
"223.833 388.667 OFFCURVE",
"164.5 326 CURVE SMOOTH",
"105.167 263.333 OFFCURVE",
"57 172.667 OFFCURVE",
"57 98 CURVE SMOOTH",
"57 28.667 OFFCURVE",
"79.667 -7 OFFCURVE",
"141 -7 CURVE SMOOTH",
"198.333 -7 OFFCURVE",
"268.333 78 OFFCURVE",
"295 134 CURVE",
"297 136 LINE",
"298 134 LINE",
"294 108 LINE",
"292 90.667 OFFCURVE",
"291 77 OFFCURVE",
"291 67 CURVE SMOOTH",
"291 29.667 OFFCURVE",
"306.333 2 OFFCURVE",
"333 -2 CURVE",
"275.667 -59.333 OFFCURVE",
"223 -133.333 OFFCURVE",
"223 -180 CURVE SMOOTH",
"223 -208 OFFCURVE",
"244.667 -230 OFFCURVE",
"274 -230 CURVE SMOOTH",
"308 -230 OFFCURVE",
"345 -207.667 OFFCURVE",
"385 -163 CURVE",
"389 -159 OFFCURVE",
"397.667 -134.333 OFFCURVE",
"391 -133 CURVE",
"384.42 -133 OFFCURVE",
"332.268 -171 OFFCURVE",
"308 -171 CURVE SMOOTH",
"287.333 -171 OFFCURVE",
"277 -160.333 OFFCURVE",
"277 -139 CURVE SMOOTH",
"277 -87.391 OFFCURVE",
"363.011 -17.989 OFFCURVE",
"395 14 CURVE",
"427 49.333 OFFCURVE",
"447.667 79 OFFCURVE",
"457 103 CURVE",
"457 109.72 OFFCURVE",
"448.83 125 OFFCURVE",
"447 125 CURVE SMOOTH",
"438.48 125 OFFCURVE",
"394.055 52 OFFCURVE",
"382 52 CURVE SMOOTH",
"367.333 52 OFFCURVE",
"360 64.333 OFFCURVE",
"360 89 CURVE SMOOTH",
"360 97 OFFCURVE",
"360.333 102.667 OFFCURVE",
"361 106 CURVE SMOOTH",
"421 421 LINE",
"411.667 430.333 OFFCURVE",
"387 435 OFFCURVE",
"347 435 CURVE SMOOTH"
);
}
);
width = 444;
}
);
note = aogonek;
unicode = 0105;
},
{
glyphname = ae;
lastChange = "2018-12-18 22:40:35 +0000";
layers = (
{
background = {
paths = (
{
closed = 1;
nodes = (
"174 -7 OFFCURVE",
"233 26 OFFCURVE",
"299 97 CURVE",
"340 324 LINE",
"363 324 LINE",
"366 340 OFFCURVE",
"368 354 OFFCURVE",
"368 366 CURVE SMOOTH",
"368 416 OFFCURVE",
"341 437 OFFCURVE",
"282 437 CURVE SMOOTH",
"203 437 OFFCURVE",
"86 367 OFFCURVE",
"74 313 CURVE SMOOTH",
"71 299 OFFCURVE",
"85 289 OFFCURVE",
"107 289 CURVE SMOOTH",
"134 289 OFFCURVE",
"152 301 OFFCURVE",
"156 324 CURVE SMOOTH",
"164 368 OFFCURVE",
"200 399 OFFCURVE",
"234 399 CURVE SMOOTH",
"269 399 OFFCURVE",
"291 379 OFFCURVE",
"291 347 CURVE SMOOTH",
"291 342 OFFCURVE",
"290 336 OFFCURVE",
"289 331 CURVE SMOOTH",
"275 259 LINE SMOOTH",
"273 248 OFFCURVE",
"267 242 OFFCURVE",
"258 239 CURVE SMOOTH",
"181 212 LINE SMOOTH",
"81 177 OFFCURVE",
"35 140 OFFCURVE",
"35 78 CURVE SMOOTH",
"35 32 OFFCURVE",
"76 -7 OFFCURVE",
"129 -7 CURVE SMOOTH"
);
},
{
closed = 1;
nodes = (
"134 50 OFFCURVE",
"123 68 OFFCURVE",
"123 93 CURVE SMOOTH",
"123 137 OFFCURVE",
"160 165 OFFCURVE",
"217 186 CURVE SMOOTH",
"264 203 LINE",
"248 120 LINE SMOOTH",
"238 72 OFFCURVE",
"191 50 OFFCURVE",
"162 50 CURVE SMOOTH"
);
},
{
closed = 1;
nodes = (
"436 -5 OFFCURVE",
"489 42 OFFCURVE",
"519 88 CURVE",
"519 93 OFFCURVE",
"510 111 OFFCURVE",
"507 111 CURVE",
"465 69 OFFCURVE",
"443 56 OFFCURVE",
"411 56 CURVE SMOOTH",
"366 56 OFFCURVE",
"345 91 OFFCURVE",
"345 158 CURVE SMOOTH",
"345 273 OFFCURVE",
"409 394 OFFCURVE",
"475 394 CURVE SMOOTH",
"495 394 OFFCURVE",
"506 384 OFFCURVE",
"506 364 CURVE SMOOTH",
"506 295 OFFCURVE",
"413 225 OFFCURVE",
"345 212 CURVE",
"338 176 LINE",
"435 192 OFFCURVE",
"579 271 OFFCURVE",
"579 360 CURVE SMOOTH",
"579 400 OFFCURVE",
"553 435 OFFCURVE",
"499 435 CURVE SMOOTH",
"375 435 OFFCURVE",
"269 266 OFFCURVE",
"269 145 CURVE SMOOTH",
"269 48 OFFCURVE",
"313 -5 OFFCURVE",
"376 -5 CURVE SMOOTH"
);
}
);
};
color = 3;
layerId = "02396921-8257-42A3-8ED5-3052446F9CE3";
paths = (
{
closed = 1;
nodes = (
"174 -7 OFFCURVE",
"233 31 OFFCURVE",
"299 102 CURVE",
"330 324 LINE",
"353 324 LINE",
"356 340 OFFCURVE",
"358 354 OFFCURVE",
"358 366 CURVE SMOOTH",
"358 416 OFFCURVE",
"331 437 OFFCURVE",
"282 437 CURVE SMOOTH",
"203 437 OFFCURVE",
"86 367 OFFCURVE",
"74 313 CURVE SMOOTH",
"71 299 OFFCURVE",
"85 289 OFFCURVE",
"107 289 CURVE SMOOTH",
"134 289 OFFCURVE",
"152 301 OFFCURVE",
"156 324 CURVE SMOOTH",
"164 368 OFFCURVE",
"200 399 OFFCURVE",
"244 399 CURVE SMOOTH",
"269 399 OFFCURVE",
"291 379 OFFCURVE",
"291 347 CURVE SMOOTH",
"291 342 OFFCURVE",
"290 336 OFFCURVE",
"289 331 CURVE SMOOTH",
"275 259 LINE SMOOTH",
"273 248 OFFCURVE",
"267 242 OFFCURVE",
"258 239 CURVE SMOOTH",
"181 212 LINE SMOOTH",
"81 177 OFFCURVE",
"41 140 OFFCURVE",
"41 78 CURVE SMOOTH",
"41 32 OFFCURVE",
"82 -7 OFFCURVE",
"129 -7 CURVE SMOOTH"
);
},
{
closed = 1;
nodes = (
"134 50 OFFCURVE",
"123 68 OFFCURVE",
"123 93 CURVE SMOOTH",
"123 137 OFFCURVE",
"160 165 OFFCURVE",
"217 186 CURVE SMOOTH",
"264 203 LINE",
"248 120 LINE SMOOTH",
"238 72 OFFCURVE",
"191 50 OFFCURVE",
"162 50 CURVE SMOOTH"
);
},
{
closed = 1;
nodes = (
"426 -5 OFFCURVE",
"479 42 OFFCURVE",
"509 88 CURVE",
"509 93 OFFCURVE",
"500 111 OFFCURVE",
"497 111 CURVE",
"455 69 OFFCURVE",
"433 56 OFFCURVE",
"401 56 CURVE SMOOTH",
"356 56 OFFCURVE",
"335 91 OFFCURVE",
"335 158 CURVE SMOOTH",
"335 273 OFFCURVE",
"399 394 OFFCURVE",
"465 394 CURVE SMOOTH",
"485 394 OFFCURVE",
"496 384 OFFCURVE",
"496 364 CURVE SMOOTH",
"496 295 OFFCURVE",
"403 225 OFFCURVE",
"335 212 CURVE",
"328 176 LINE",
"425 192 OFFCURVE",
"569 271 OFFCURVE",
"569 360 CURVE SMOOTH",
"569 400 OFFCURVE",
"543 435 OFFCURVE",
"489 435 CURVE SMOOTH",
"365 435 OFFCURVE",
"269 266 OFFCURVE",
"269 145 CURVE SMOOTH",
"269 48 OFFCURVE",
"303 -5 OFFCURVE",
"366 -5 CURVE SMOOTH"
);
}
);
width = 584;
}
);
note = ae;
rightMetricsKey = e;
unicode = 00E6;
},
{
glyphname = b;
lastChange = "2018-12-18 16:03:53 +0000";
layers = (
{
background = {
paths = (
{
closed = 1;
nodes = (
"261 435 OFFCURVE",
"223 420 OFFCURVE",
"153 356 OFFCURVE",
"121 303 QCURVE",
"180 591 LINE SMOOTH",
"193 654 OFFCURVE",
"193 666 QCURVE SMOOTH",
"193 682 OFFCURVE",
"187 685 QCURVE",
"126 663 OFFCURVE",
"61 657 QCURVE",
"53 649 OFFCURVE",
"53 637 QCURVE SMOOTH",
"53 631 OFFCURVE",
"56 631 QCURVE SMOOTH",
"117 631 OFFCURVE",
"117 612 QCURVE SMOOTH",
"116 600 OFFCURVE",
"108 559 QCURVE SMOOTH",
"25 137 LINE SMOOTH",
"21 119 OFFCURVE",
"22 104 QCURVE SMOOTH",
"26 51 OFFCURVE",
"83 -6 OFFCURVE",
"121 -6 QCURVE SMOOTH",
"207 -6 OFFCURVE",
"363 176 OFFCURVE",
"363 304 QCURVE SMOOTH",
"363 357 OFFCURVE",
"318 435 OFFCURVE",
"274 435 QCURVE SMOOTH"
);
},
{
closed = 1;
nodes = (
"260 380 OFFCURVE",
"280 361 OFFCURVE",
"287 325 OFFCURVE",
"289 299 OFFCURVE",
"289 280 QCURVE SMOOTH",
"289 225 OFFCURVE",
"252 112 OFFCURVE",
"185 35 OFFCURVE",
"147 35 QCURVE SMOOTH",
"112 35 OFFCURVE",
"84 101 OFFCURVE",
"95 156 QCURVE SMOOTH",
"104 199 OFFCURVE",
"159 305 OFFCURVE",
"224 380 OFFCURVE",
"245 380 QCURVE SMOOTH"
);
}
);
};
color = 3;
layerId = "02396921-8257-42A3-8ED5-3052446F9CE3";
paths = (
{
closed = 1;
nodes = (
"223 434 OFFCURVE",
"168 389 OFFCURVE",
"121 303 CURVE",
"180 591 LINE SMOOTH",
"189 633 OFFCURVE",
"193 658 OFFCURVE",
"193 666 CURVE SMOOTH",
"193 677 OFFCURVE",
"191 683 OFFCURVE",
"187 685 CURVE",
"146 670 OFFCURVE",
"104 661 OFFCURVE",
"61 657 CURVE",
"56 652 OFFCURVE",
"53 645 OFFCURVE",
"53 637 CURVE SMOOTH",
"53 633 OFFCURVE",
"54 631 OFFCURVE",
"56 631 CURVE SMOOTH",
"97 631 OFFCURVE",
"117 625 OFFCURVE",
"117 612 CURVE SMOOTH",
"117 607 OFFCURVE",
"119 617 OFFCURVE",
"108 559 CURVE SMOOTH",
"30 157 LINE SMOOTH",
"9 49 OFFCURVE",
"49 -6 OFFCURVE",
"131 -6 CURVE SMOOTH",
"242 -6 OFFCURVE",
"363 152 OFFCURVE",
"363 309 CURVE SMOOTH",
"363 380 OFFCURVE",
"324 434 OFFCURVE",
"268 434 CURVE SMOOTH"
);
},
{
closed = 1;
nodes = (
"267 376 OFFCURVE",
"289 343 OFFCURVE",
"289 288 CURVE SMOOTH",
"289 157 OFFCURVE",
"220 35 OFFCURVE",
"145 35 CURVE SMOOTH",
"101 35 OFFCURVE",
"80 78 OFFCURVE",
"94 148 CURVE SMOOTH",
"115 259 OFFCURVE",
"191 376 OFFCURVE",
"238 376 CURVE SMOOTH"
);
}
);
width = 394;
}
);
note = b;
unicode = 0062;
},
{
glyphname = c;
lastChange = "2018-12-18 12:43:40 +0000";
layers = (
{
background = {
paths = (
{
closed = 1;
nodes = (
"180 435 OFFCURVE",
"34 242 OFFCURVE",
"34 146 QCURVE SMOOTH",
"34 75 OFFCURVE",
"89 -6 OFFCURVE",
"141 -6 QCURVE SMOOTH",
"182 -6 OFFCURVE",
"266 64 OFFCURVE",
"280 88 QCURVE",
"280 92 OFFCURVE",
"269 111 OFFCURVE",
"267 111 QCURVE",
"264 108 LINE SMOOTH",
"262 106 OFFCURVE",
"257 100 OFFCURVE",
"248 91 OFFCURVE",
"237 83 OFFCURVE",
"225 73 OFFCURVE",
"211 66 OFFCURVE",
"197 60 OFFCURVE",
"182 56 OFFCURVE",
"174 56 QCURVE SMOOTH",
"108 56 OFFCURVE",
"108 162 QCURVE SMOOTH",
"108 255 OFFCURVE",
"201 394 OFFCURVE",
"244 394 QCURVE SMOOTH",
"261 394 OFFCURVE",
"295 338 OFFCURVE",
"327 338 OFFCURVE",
"346 362 OFFCURVE",
"346 381 QCURVE SMOOTH",
"346 389 OFFCURVE",
"343 401 QCURVE",
"303 435 OFFCURVE",
"256 435 QCURVE SMOOTH"
);
}
);
};
color = 3;
layerId = "02396921-8257-42A3-8ED5-3052446F9CE3";
paths = (
{
closed = 1;
nodes = (
"140 435 OFFCURVE",
"34 266 OFFCURVE",
"34 145 CURVE SMOOTH",
"34 48 OFFCURVE",
"78 -5 OFFCURVE",
"141 -5 CURVE SMOOTH",
"196 -5 OFFCURVE",
"248 42 OFFCURVE",
"280 88 CURVE",
"280 93 OFFCURVE",
"270 111 OFFCURVE",
"267 111 CURVE",
"226 70 OFFCURVE",
"203 56 OFFCURVE",
"174 56 CURVE SMOOTH",
"131 56 OFFCURVE",
"110 91 OFFCURVE",
"110 158 CURVE SMOOTH",
"110 273 OFFCURVE",
"175 394 OFFCURVE",
"237 394 CURVE SMOOTH",
"285 394 OFFCURVE",
"273 338 OFFCURVE",
"314 338 CURVE SMOOTH",
"333 338 OFFCURVE",
"346 352 OFFCURVE",
"346 374 CURVE SMOOTH",
"346 417 OFFCURVE",
"301 435 OFFCURVE",
"265 435 CURVE SMOOTH"
);
}
);
width = 326;
}
);
note = c;
unicode = 0063;
},
{
glyphname = d;
lastChange = "2018-12-18 12:43:52 +0000";
layers = (
{
background = {
paths = (
{
closed = 1;
nodes = (
"814 435 OFFCURVE",
"630 238 OFFCURVE",
"630 130 QCURVE SMOOTH",
"630 74 OFFCURVE",
"680 -5 OFFCURVE",
"726 -5 QCURVE SMOOTH",
"753 -5 OFFCURVE",
"819 53 OFFCURVE",
"854 103 OFFCURVE",
"867 126 QCURVE",
"867 123 OFFCURVE",
"865 118 OFFCURVE",
"863 107 OFFCURVE",
"861 99 QCURVE",
"854 62 OFFCURVE",
"854 46 QCURVE SMOOTH",
"854 23 OFFCURVE",
"872 -6 OFFCURVE",
"888 -6 QCURVE SMOOTH",
"919 -6 OFFCURVE",
"1001 66 OFFCURVE",
"1014 88 QCURVE",
"1014 92 OFFCURVE",
"1003 111 OFFCURVE",
"1001 111 QCURVE",
"995 104 LINE",
"989 98 OFFCURVE",
"975 83 OFFCURVE",
"958 67 OFFCURVE",
"941 56 OFFCURVE",
"935 56 QCURVE SMOOTH",
"925 56 OFFCURVE",
"925 81 QCURVE SMOOTH",
"925 94 OFFCURVE",
"928 106 QCURVE",
"1022 591 LINE",
"1037 666 LINE",
"1037 681 OFFCURVE",
"1031 685 QCURVE",
"971 663 OFFCURVE",
"902 657 QCURVE",
"894 649 OFFCURVE",
"894 637 QCURVE SMOOTH",
"894 631 OFFCURVE",
"897 631 QCURVE SMOOTH",
"958 631 OFFCURVE",
"958 612 QCURVE SMOOTH",
"958 598 OFFCURVE",
"955 584 QCURVE SMOOTH",
"927 435 LINE",
"919 435 LINE",
"939 435 OFFCURVE",
"914 435 QCURVE SMOOTH"
);
},
{
closed = 1;
nodes = (
"895 276 LINE SMOOTH",
"881 200 OFFCURVE",
"792 53 OFFCURVE",
"755 53 QCURVE SMOOTH",
"704 53 OFFCURVE",
"704 150 QCURVE SMOOTH",
"704 236 OFFCURVE",
"815 389 OFFCURVE",
"876 389 QCURVE SMOOTH",
"895 389 OFFCURVE",
"911 360 OFFCURVE",
"907 341 QCURVE SMOOTH"
);
},
{
closed = 1;
nodes = (
"176 435 OFFCURVE",
"30 283 OFFCURVE",
"30 120 CURVE SMOOTH",
"30 51 OFFCURVE",
"69 -5 OFFCURVE",
"125 -5 CURVE SMOOTH",
"164 -5 OFFCURVE",
"211 29 OFFCURVE",
"266 125 CURVE",
"259 93 OFFCURVE",
"254 58 OFFCURVE",
"254 46 CURVE SMOOTH",
"254 15 OFFCURVE",
"268 -6 OFFCURVE",
"290 -6 CURVE SMOOTH",
"321 -6 OFFCURVE",
"390 46 OFFCURVE",
"414 88 CURVE",
"414 93 OFFCURVE",
"404 111 OFFCURVE",
"401 111 CURVE",
"364 70 OFFCURVE",
"347 56 OFFCURVE",
"335 56 CURVE SMOOTH",
"328 56 OFFCURVE",
"325 63 OFFCURVE",
"325 77 CURVE SMOOTH",
"325 86 OFFCURVE",
"324 83 OFFCURVE",
"330 116 CURVE SMOOTH",
"390 424 LINE",
"369 431 OFFCURVE",
"343 435 OFFCURVE",
"314 435 CURVE SMOOTH"
);
},
{
closed = 1;
nodes = (
"285 389 OFFCURVE",
"303 386 OFFCURVE",
"315 379 CURVE",
"295 274 LINE SMOOTH",
"274 168 OFFCURVE",
"201 53 OFFCURVE",
"155 53 CURVE SMOOTH",
"123 53 OFFCURVE",
"104 86 OFFCURVE",
"104 141 CURVE SMOOTH",
"104 275 OFFCURVE",
"193 389 OFFCURVE",
"273 389 CURVE SMOOTH"
);
}
);
};
color = 3;
layerId = "02396921-8257-42A3-8ED5-3052446F9CE3";
paths = (
{
closed = 1;
nodes = (
"176 435 OFFCURVE",
"30 283 OFFCURVE",
"30 120 CURVE SMOOTH",
"30 51 OFFCURVE",
"69 -5 OFFCURVE",
"125 -5 CURVE SMOOTH",
"164 -5 OFFCURVE",
"211 29 OFFCURVE",
"267 126 CURVE",
"259 93 OFFCURVE",
"254 58 OFFCURVE",
"254 46 CURVE SMOOTH",
"254 15 OFFCURVE",
"268 -6 OFFCURVE",
"290 -6 CURVE SMOOTH",
"321 -6 OFFCURVE",
"390 46 OFFCURVE",
"414 88 CURVE",
"414 93 OFFCURVE",
"404 111 OFFCURVE",
"401 111 CURVE",
"364 70 OFFCURVE",
"347 56 OFFCURVE",
"335 56 CURVE SMOOTH",
"328 56 OFFCURVE",
"325 64 OFFCURVE",
"325 81 CURVE SMOOTH",
"325 90 OFFCURVE",
"328 108 OFFCURVE",
"330 116 CURVE SMOOTH",
"422 591 LINE",
"437 666 LINE",
"437 676 OFFCURVE",
"435 682 OFFCURVE",
"431 685 CURVE",
"391 670 OFFCURVE",
"348 661 OFFCURVE",
"302 657 CURVE",
"297 652 OFFCURVE",
"294 645 OFFCURVE",
"294 637 CURVE SMOOTH",
"294 633 OFFCURVE",
"295 631 OFFCURVE",
"297 631 CURVE SMOOTH",
"338 631 OFFCURVE",
"358 625 OFFCURVE",
"358 612 CURVE SMOOTH",
"358 603 OFFCURVE",
"357 593 OFFCURVE",
"355 584 CURVE SMOOTH",
"327 434 LINE",
"323 435 OFFCURVE",
"318 435 OFFCURVE",
"314 435 CURVE SMOOTH"
);
},
{
closed = 1;
nodes = (
"295 274 LINE SMOOTH",
"274 168 OFFCURVE",
"201 53 OFFCURVE",
"155 53 CURVE SMOOTH",
"123 53 OFFCURVE",
"104 86 OFFCURVE",
"104 141 CURVE SMOOTH",
"104 275 OFFCURVE",
"193 389 OFFCURVE",
"273 389 CURVE SMOOTH",
"301 389 OFFCURVE",
"315 376 OFFCURVE",
"310 351 CURVE SMOOTH"
);
}
);
width = 440;
}
);
leftMetricsKey = a;
widthMetricsKey = a;
note = d;
unicode = 0064;
},
{
glyphname = dcroat;
lastChange = "2018-12-17 16:21:40 +0000";
layers = (
{
background = {
paths = (
{
closed = 1;
nodes = (
"313 135 OFFCURVE",
"313 132 QCURVE SMOOTH",
"313 131 OFFCURVE",
"309 111 OFFCURVE",
"305 80 OFFCURVE",
"305 66 QCURVE SMOOTH",
"305 -6 OFFCURVE",
"361 -6 QCURVE SMOOTH",
"393 -6 OFFCURVE",
"459 71 OFFCURVE",
"471 104 QCURVE",
"470 109 OFFCURVE",
"462 125 OFFCURVE",
"460 125 QCURVE SMOOTH",
"459 125 OFFCURVE",
"412 52 OFFCURVE",
"400 52 QCURVE SMOOTH",
"374 52 OFFCURVE",
"374 94 QCURVE SMOOTH",
"374 108 OFFCURVE",
"378 124 QCURVE",
"466 591 LINE SMOOTH",
"476 646 OFFCURVE",
"496 678 QCURVE",
"496 694 OFFCURVE",
"491 694 QCURVE",
"482 690 LINE",
"474 686 OFFCURVE",
"445 675 OFFCURVE",
"412 664 OFFCURVE",
"374 656 OFFCURVE",
"359 656 QCURVE SMOOTH",
"357 656 OFFCURVE",
"349 641 OFFCURVE",
"349 635 QCURVE SMOOTH",
"349 632 OFFCURVE",
"355 632 QCURVE SMOOTH",
"403 632 OFFCURVE",
"403 608 QCURVE SMOOTH",
"403 600 OFFCURVE",
"394 559 QCURVE SMOOTH",
"368 429 LINE",
"368 425 OFFCURVE",
"366 425 QCURVE",
"364 426 LINE",
"362 426 LINE",
"344 435 OFFCURVE",
"319 435 QCURVE SMOOTH",
"273 435 OFFCURVE",
"150 328 OFFCURVE",
"60 166 OFFCURVE",
"60 97 QCURVE SMOOTH",
"60 -7 OFFCURVE",
"155 -7 QCURVE SMOOTH",
"178 -7 OFFCURVE",
"226 22 OFFCURVE",
"263 64 OFFCURVE",
"293 106 OFFCURVE",
"302 120 QCURVE SMOOTH",
"311 135 OFFCURVE",
"311 135 QCURVE"
);
},
{
closed = 1;
nodes = (
"330 399 OFFCURVE",
"360 386 OFFCURVE",
"360 378 QCURVE SMOOTH",
"360 377 LINE",
"341 276 LINE SMOOTH",
"328 205 OFFCURVE",
"224 52 OFFCURVE",
"191 52 QCURVE SMOOTH",
"163 52 OFFCURVE",
"136 91 OFFCURVE",
"136 119 QCURVE SMOOTH",
"136 210 OFFCURVE",
"258 399 OFFCURVE",
"312 399 QCURVE SMOOTH"
);
},
{
closed = 1;
nodes = (
"263 558 OFFCURVE",
"260 542 QCURVE",
"259 538 OFFCURVE",
"260 529 OFFCURVE",
"262 529 QCURVE SMOOTH",
"492 529 LINE",
"501 544 OFFCURVE",
"503 559 QCURVE",
"505 569 OFFCURVE",
"500 569 QCURVE SMOOTH",
"271 569 LINE"
);
}
);
};
layerId = "02396921-8257-42A3-8ED5-3052446F9CE3";
paths = (
{
closed = 1;
nodes = (
"312.333 135 OFFCURVE",
"313 134 OFFCURVE",
"313 132 CURVE SMOOTH",
"313 127.701 OFFCURVE",
"305 85.608 OFFCURVE",
"305 66 CURVE SMOOTH",
"305 18 OFFCURVE",
"323.667 -6 OFFCURVE",
"361 -6 CURVE SMOOTH",
"403.667 -6 OFFCURVE",
"455 60 OFFCURVE",
"471 104 CURVE",
"469.667 110.667 OFFCURVE",
"462.667 125 OFFCURVE",
"460 125 CURVE SMOOTH",
"459.333 125 OFFCURVE",
"451.167 112.833 OFFCURVE",
"435.5 88.5 CURVE SMOOTH",
"419.833 64.167 OFFCURVE",
"408 52 OFFCURVE",
"400 52 CURVE SMOOTH",
"382.667 52 OFFCURVE",
"374 66 OFFCURVE",
"374 94 CURVE SMOOTH",
"374 103.333 OFFCURVE",
"375.333 113.333 OFFCURVE",
"378 124 CURVE",
"466 591 LINE SMOOTH",
"472.667 627.667 OFFCURVE",
"482.667 656.667 OFFCURVE",
"496 678 CURVE",
"496 688.667 OFFCURVE",
"494.333 694 OFFCURVE",
"491 694 CURVE",
"482 690 LINE",
"461.665 679.833 OFFCURVE",
"394.666 656 OFFCURVE",
"359 656 CURVE SMOOTH",
"356.333 656 OFFCURVE",
"349 643 OFFCURVE",
"349 635 CURVE SMOOTH",
"349 633 OFFCURVE",
"351 632 OFFCURVE",
"355 632 CURVE SMOOTH",
"387 632 OFFCURVE",
"403 624 OFFCURVE",
"403 608 CURVE SMOOTH",
"403 602.667 OFFCURVE",
"400 586.333 OFFCURVE",
"394 559 CURVE SMOOTH",
"368 429 LINE",
"368 426.333 OFFCURVE",
"367.333 425 OFFCURVE",
"366 425 CURVE",
"364 426 LINE",
"362 426 LINE",
"350 432 OFFCURVE",
"335.667 435 OFFCURVE",
"319 435 CURVE SMOOTH",
"257.667 435 OFFCURVE",
"165 355 OFFCURVE",
"105 247 CURVE SMOOTH",
"75 193 OFFCURVE",
"60 143 OFFCURVE",
"60 97 CURVE SMOOTH",
"60 27.667 OFFCURVE",
"91.667 -7 OFFCURVE",
"155 -7 CURVE SMOOTH",
"217.506 -7 OFFCURVE",
"273.64 75.885 OFFCURVE",
"302 120 CURVE SMOOTH",
"308 130 OFFCURVE",
"311 135 OFFCURVE",
"311 135 CURVE"
);
},
{
closed = 1;
nodes = (
"336 399 OFFCURVE",
"360 388.667 OFFCURVE",
"360 378 CURVE SMOOTH",
"360 377 LINE",
"341 276 LINE SMOOTH",
"323.667 181.333 OFFCURVE",
"235 52 OFFCURVE",
"191 52 CURVE SMOOTH",
"153.667 52 OFFCURVE",
"136 81.667 OFFCURVE",
"136 119 CURVE SMOOTH",
"136 240.333 OFFCURVE",
"240 399 OFFCURVE",
"312 399 CURVE SMOOTH"
);
},
{
closed = 1;
nodes = (
"265.667 561.667 OFFCURVE",
"262 552.667 OFFCURVE",
"260 542 CURVE",
"258.667 536.667 OFFCURVE",
"259.333 529 OFFCURVE",
"262 529 CURVE SMOOTH",
"492 529 LINE",
"498 539 OFFCURVE",
"501.667 549 OFFCURVE",
"503 559 CURVE",
"504.333 565.667 OFFCURVE",
"503.333 569 OFFCURVE",
"500 569 CURVE SMOOTH",
"271 569 LINE"
);
}
);
width = 424;
}
);
note = dcroat;
unicode = 0111;
},
{
glyphname = eth;
lastChange = "2018-12-18 16:28:49 +0000";
layers = (
{
background = {
paths = (
{
closed = 1;
nodes = (
"1016 674 LINE",
"1022 680 OFFCURVE",
"1006 705 QCURVE",
"756 541 LINE",
"750 535 OFFCURVE",
"765 509 QCURVE"
);
},
{
closed = 1;
nodes = (
"928 572 OFFCURVE",
"924 407 QCURVE",
"906 438 OFFCURVE",
"856 438 QCURVE SMOOTH",
"780 438 OFFCURVE",
"660 303 OFFCURVE",
"643 217 QCURVE SMOOTH",
"625 127 OFFCURVE",
"695 -7 OFFCURVE",
"781 -7 QCURVE SMOOTH",
"848 -7 OFFCURVE",
"962 138 OFFCURVE",
"984 250 QCURVE SMOOTH",
"1018 423 OFFCURVE",
"886 656 OFFCURVE",
"771 688 QCURVE",
"766 688 OFFCURVE",
"754 670 OFFCURVE",
"753 664 QCURVE"
);
},
{
closed = 1;
nodes = (
"868 32 OFFCURVE",
"782 32 QCURVE SMOOTH",
"743 32 OFFCURVE",
"707 150 OFFCURVE",
"721 224 QCURVE SMOOTH",
"735 300 OFFCURVE",
"796 398 OFFCURVE",
"838 398 QCURVE SMOOTH",
"886 398 OFFCURVE",
"907 332 QCURVE SMOOTH",
"920 291 OFFCURVE",
"905 217 QCURVE SMOOTH"
);
},
{
closed = 1;
nodes = (
"276 394 OFFCURVE",
"302 346 OFFCURVE",
"302 272 CURVE SMOOTH",
"302 157 OFFCURVE",
"237 36 OFFCURVE",
"175 36 CURVE SMOOTH",
"136 36 OFFCURVE",
"110 84 OFFCURVE",
"110 158 CURVE SMOOTH",
"110 273 OFFCURVE",
"175 394 OFFCURVE",
"237 394 CURVE SMOOTH"
);
},
{
closed = 1;
nodes = (
"151 435 OFFCURVE",
"34 281 OFFCURVE",
"34 145 CURVE SMOOTH",
"34 48 OFFCURVE",
"83 -5 OFFCURVE",
"157 -5 CURVE SMOOTH",
"261 -5 OFFCURVE",
"378 147 OFFCURVE",
"378 285 CURVE SMOOTH",
"378 382 OFFCURVE",
"329 435 OFFCURVE",
"255 435 CURVE SMOOTH"
);
}
);
};
color = 3;
layerId = "02396921-8257-42A3-8ED5-3052446F9CE3";
paths = (
{
closed = 1;
nodes = (
"402 677 LINE",
"386 705 LINE",
"135 540 LINE",
"151 512 LINE"
);
},
{
closed = 1;
nodes = (
"270 603 OFFCURVE",
"321 517 OFFCURVE",
"323 407 CURVE",
"311 421 OFFCURVE",
"288 435 OFFCURVE",
"255 435 CURVE SMOOTH",
"151 435 OFFCURVE",
"34 281 OFFCURVE",
"34 145 CURVE SMOOTH",
"34 48 OFFCURVE",
"83 -5 OFFCURVE",
"157 -5 CURVE SMOOTH",
"277 -5 OFFCURVE",
"391 178 OFFCURVE",
"391 345 CURVE SMOOTH",
"391 533 OFFCURVE",
"300 652 OFFCURVE",
"171 688 CURVE",
"164 688 OFFCURVE",
"154 672 OFFCURVE",
"153 664 CURVE"
);
},
{
closed = 1;
nodes = (
"237 36 OFFCURVE",
"175 36 CURVE SMOOTH",
"136 36 OFFCURVE",
"110 84 OFFCURVE",
"110 158 CURVE SMOOTH",
"110 273 OFFCURVE",
"175 394 OFFCURVE",
"237 394 CURVE SMOOTH",
"276 394 OFFCURVE",
"305 356 OFFCURVE",
"305 275 CURVE SMOOTH",
"305 157 OFFCURVE"
);
}
);
width = 416;
}
);
leftMetricsKey = o;
note = eth;
rightMetricsKey = o;
unicode = 00F0;
},
{
glyphname = e;
lastChange = "2018-12-18 12:59:35 +0000";
layers = (
{
background = {
paths = (
{
closed = 1;
nodes = (
"180 435 OFFCURVE",
"34 242 OFFCURVE",
"34 146 QCURVE SMOOTH",
"34 75 OFFCURVE",
"89 -6 OFFCURVE",
"141 -6 QCURVE SMOOTH",
"182 -6 OFFCURVE",
"266 64 OFFCURVE",
"280 88 QCURVE",
"280 92 OFFCURVE",
"269 111 OFFCURVE",
"267 111 QCURVE",
"264 108 LINE SMOOTH",
"262 106 OFFCURVE",
"257 100 OFFCURVE",
"248 91 OFFCURVE",
"237 83 OFFCURVE",
"225 73 OFFCURVE",
"211 66 OFFCURVE",
"197 60 OFFCURVE",
"182 56 OFFCURVE",
"174 56 QCURVE SMOOTH",
"144 56 OFFCURVE",
"109 103 OFFCURVE",
"109 148 QCURVE SMOOTH",
"109 183 OFFCURVE",
"113 183 QCURVE SMOOTH",
"146 183 OFFCURVE",
"253 230 OFFCURVE",
"343 316 OFFCURVE",
"343 360 QCURVE SMOOTH",
"343 388 OFFCURVE",
"302 435 OFFCURVE",
"256 435 QCURVE SMOOTH"
);
},
{
closed = 1;
nodes = (
"271 394 OFFCURVE",
"271 364 QCURVE SMOOTH",
"271 314 OFFCURVE",
"156 218 OFFCURVE",
"120 218 QCURVE SMOOTH",
"116 218 OFFCURVE",
"116 222 QCURVE SMOOTH",
"116 259 OFFCURVE",
"199 394 OFFCURVE",
"246 394 QCURVE SMOOTH"
);
}
);
};
color = 3;
layerId = "02396921-8257-42A3-8ED5-3052446F9CE3";
paths = (
{
closed = 1;
nodes = (
"201 -5 OFFCURVE",
"254 42 OFFCURVE",
"284 88 CURVE",
"284 93 OFFCURVE",
"275 111 OFFCURVE",
"272 111 CURVE",
"230 69 OFFCURVE",
"208 56 OFFCURVE",
"176 56 CURVE SMOOTH",
"131 56 OFFCURVE",
"110 91 OFFCURVE",
"110 158 CURVE SMOOTH",
"110 273 OFFCURVE",
"174 394 OFFCURVE",
"240 394 CURVE SMOOTH",
"260 394 OFFCURVE",
"271 384 OFFCURVE",
"271 364 CURVE SMOOTH",
"271 295 OFFCURVE",
"178 225 OFFCURVE",
"110 212 CURVE",
"103 176 LINE",
"200 192 OFFCURVE",
"344 271 OFFCURVE",
"344 360 CURVE SMOOTH",
"344 400 OFFCURVE",
"318 435 OFFCURVE",
"264 435 CURVE SMOOTH",
"140 435 OFFCURVE",
"34 266 OFFCURVE",
"34 145 CURVE SMOOTH",
"34 48 OFFCURVE",
"78 -5 OFFCURVE",
"141 -5 CURVE SMOOTH"
);
}
);
width = 359;
}
);
note = e;
unicode = 0065;
},
{
glyphname = eogonek;
lastChange = "2018-12-17 16:21:40 +0000";
layers = (
{
background = {
paths = (
{
closed = 1;
nodes = (
"257 396 OFFCURVE",
"257 352 QCURVE SMOOTH",
"257 305 OFFCURVE",
"148 218 OFFCURVE",
"113 218 QCURVE SMOOTH",
"106 218 OFFCURVE",
"106 224 QCURVE SMOOTH",
"106 260 OFFCURVE",
"192 396 OFFCURVE",
"236 396 QCURVE SMOOTH"
);
},
{
closed = 1;
nodes = (
"200 435 OFFCURVE",
"91 347 OFFCURVE",
"26 215 OFFCURVE",
"26 152 QCURVE SMOOTH",
"26 84 OFFCURVE",
"98 -4 OFFCURVE",
"146 -4 QCURVE",
"114 -32 OFFCURVE",
"22 -148 OFFCURVE",
"23 -180 QCURVE SMOOTH",
"23 -201 OFFCURVE",
"51 -230 OFFCURVE",
"73 -230 QCURVE SMOOTH",
"124 -230 OFFCURVE",
"184 -163 QCURVE",
"187 -160 OFFCURVE",
"195 -134 OFFCURVE",
"190 -133 QCURVE",
"189 -133 OFFCURVE",
"166 -152 OFFCURVE",
"128 -171 OFFCURVE",
"107 -171 QCURVE SMOOTH",
"76 -171 OFFCURVE",
"76 -139 QCURVE SMOOTH",
"76 -119 OFFCURVE",
"146 -46 OFFCURVE",
"245 49 OFFCURVE",
"267 82 QCURVE SMOOTH",
"277 96 OFFCURVE",
"278 102 QCURVE",
"278 106 OFFCURVE",
"273 117 OFFCURVE",
"269 124 OFFCURVE",
"267 124 OFFCURVE",
"239 90 OFFCURVE",
"195 56 OFFCURVE",
"175 56 QCURVE SMOOTH",
"99 56 OFFCURVE",
"99 174 QCURVE SMOOTH",
"99 183 OFFCURVE",
"103 183 QCURVE SMOOTH",
"135 183 OFFCURVE",
"240 233 OFFCURVE",
"326 317 OFFCURVE",
"326 356 QCURVE SMOOTH",
"326 435 OFFCURVE",
"256 435 QCURVE SMOOTH"
);
}
);
};
layerId = "02396921-8257-42A3-8ED5-3052446F9CE3";
paths = (
{
closed = 1;
nodes = (
"250 396 OFFCURVE",
"257 381.333 OFFCURVE",
"257 352 CURVE SMOOTH",
"257 289.333 OFFCURVE",
"159.667 218 OFFCURVE",
"113 218 CURVE SMOOTH",
"108.333 218 OFFCURVE",
"106 220 OFFCURVE",
"106 224 CURVE SMOOTH",
"106 272 OFFCURVE",
"177.333 396 OFFCURVE",
"236 396 CURVE SMOOTH"
);
},
{
closed = 1;
nodes = (
"181.333 435 OFFCURVE",
"101.833 369 OFFCURVE",
"58.5 281 CURVE SMOOTH",
"36.833 237 OFFCURVE",
"26 194 OFFCURVE",
"26 152 CURVE SMOOTH",
"26 61.333 OFFCURVE",
"82 -4 OFFCURVE",
"146 -4 CURVE",
"103.333 -41.333 OFFCURVE",
"21.667 -137.333 OFFCURVE",
"23 -180 CURVE SMOOTH",
"23 -208 OFFCURVE",
"43.667 -230 OFFCURVE",
"73 -230 CURVE SMOOTH",
"107 -230 OFFCURVE",
"144 -207.667 OFFCURVE",
"184 -163 CURVE",
"188 -159 OFFCURVE",
"196.667 -134.333 OFFCURVE",
"190 -133 CURVE",
"183.42 -133 OFFCURVE",
"131.268 -171 OFFCURVE",
"107 -171 CURVE SMOOTH",
"86.333 -171 OFFCURVE",
"76 -160.333 OFFCURVE",
"76 -139 CURVE SMOOTH",
"76 -74.049 OFFCURVE",
"242.599 45.398 OFFCURVE",
"267 82 CURVE SMOOTH",
"273.667 91.333 OFFCURVE",
"277.333 98 OFFCURVE",
"278 102 CURVE",
"278 108.72 OFFCURVE",
"269.83 124 OFFCURVE",
"268 124 CURVE",
"276.021 124 OFFCURVE",
"204.48 56 OFFCURVE",
"175 56 CURVE SMOOTH",
"124.333 56 OFFCURVE",
"99 95.333 OFFCURVE",
"99 174 CURVE SMOOTH",
"99 180 OFFCURVE",
"100.333 183 OFFCURVE",
"103 183 CURVE SMOOTH",
"145.667 183 OFFCURVE",
"225.667 219 OFFCURVE",
"283 275 CURVE SMOOTH",
"311.667 303 OFFCURVE",
"326 330 OFFCURVE",
"326 356 CURVE SMOOTH",
"326 408.667 OFFCURVE",
"302.667 435 OFFCURVE",
"256 435 CURVE SMOOTH"
);
}
);
width = 349;
}
);
note = eogonek;
unicode = 0119;
},
{
glyphname = f;
lastChange = "2018-12-18 22:21:35 +0000";
layers = (
{
background = {
paths = (
{
closed = 1;
nodes = (
"268 699 OFFCURVE",
"136 539 OFFCURVE",
"116 416 QCURVE",
"114 407 OFFCURVE",
"110 407 QCURVE SMOOTH",
"81 407 LINE SMOOTH",
"65 407 OFFCURVE",
"33 373 OFFCURVE",
"33 364 QCURVE SMOOTH",
"33 361 OFFCURVE",
"35 361 QCURVE SMOOTH",
"100 361 LINE SMOOTH",
"103 361 OFFCURVE",
"103 356 QCURVE SMOOTH",
"103 354 LINE",
"43 15 LINE SMOOTH",
"39 -10 OFFCURVE",
"20 -74 OFFCURVE",
"-7 -145 OFFCURVE",
"-45 -192 OFFCURVE",
"-64 -192 QCURVE SMOOTH",
"-78 -192 OFFCURVE",
"-101 -173 OFFCURVE",
"-113 -150 OFFCURVE",
"-129 -131 OFFCURVE",
"-138 -131 QCURVE SMOOTH",
"-156 -131 OFFCURVE",
"-180 -167 OFFCURVE",
"-179 -190 QCURVE",
"-173 -206 OFFCURVE",
"-133 -231 OFFCURVE",
"-98 -231 QCURVE SMOOTH",
"-27 -231 OFFCURVE",
"94 -85 OFFCURVE",
"118 54 QCURVE SMOOTH",
"173 353 LINE",
"174 361 OFFCURVE",
"179 361 QCURVE SMOOTH",
"296 361 LINE",
"307 379 OFFCURVE",
"307 395 QCURVE SMOOTH",
"307 407 OFFCURVE",
"302 407 QCURVE SMOOTH",
"187 407 LINE SMOOTH",
"184 407 OFFCURVE",
"184 411 QCURVE SMOOTH",
"184 413 LINE",
"204 530 OFFCURVE",
"276 661 OFFCURVE",
"308 661 QCURVE SMOOTH",
"324 661 OFFCURVE",
"351 630 OFFCURVE",
"376 600 OFFCURVE",
"390 600 QCURVE SMOOTH",
"426 600 OFFCURVE",
"426 665 QCURVE",
"408 699 OFFCURVE",
"344 699 QCURVE SMOOTH"
);
}
);
};
color = 3;
layerId = "02396921-8257-42A3-8ED5-3052446F9CE3";
paths = (
{
closed = 1;
nodes = (
"189 443 LINE SMOOTH",
"213 577 OFFCURVE",
"262 661 OFFCURVE",
"308 661 CURVE SMOOTH",
"341 661 OFFCURVE",
"358 600 OFFCURVE",
"390 600 CURVE SMOOTH",
"411 600 OFFCURVE",
"426 618 OFFCURVE",
"426 643 CURVE SMOOTH",
"426 678 OFFCURVE",
"395 699 OFFCURVE",
"344 699 CURVE SMOOTH",
"241 699 OFFCURVE",
"144 578 OFFCURVE",
"118 436 CURVE SMOOTH",
"48 45 LINE SMOOTH",
"20 -111 OFFCURVE",
"-27 -192 OFFCURVE",
"-64 -192 CURVE SMOOTH",
"-101 -192 OFFCURVE",
"-110 -131 OFFCURVE",
"-141 -131 CURVE SMOOTH",
"-162 -131 OFFCURVE",
"-180 -153 OFFCURVE",
"-179 -179 CURVE SMOOTH",
"-179 -207 OFFCURVE",
"-142 -231 OFFCURVE",
"-98 -231 CURVE SMOOTH",
"2 -231 OFFCURVE",
"86 -120 OFFCURVE",
"118 54 CURVE SMOOTH"
);
},
{
closed = 1;
nodes = (
"81 407 LINE SMOOTH",
"64 407 OFFCURVE",
"33 379 OFFCURVE",
"33 364 CURVE SMOOTH",
"33 362 OFFCURVE",
"34 361 OFFCURVE",
"35 361 CURVE SMOOTH",
"296 361 LINE",
"304 375 OFFCURVE",
"307 386 OFFCURVE",
"307 395 CURVE SMOOTH",
"307 403 OFFCURVE",
"305 407 OFFCURVE",
"302 407 CURVE SMOOTH"
);
}
);
width = 304;
}
);
note = f;
unicode = 0066;
},
{
glyphname = g;
lastChange = "2018-12-18 20:35:57 +0000";
layers = (
{
background = {
paths = (
{
closed = 1;
nodes = (
"299 -149 OFFCURVE",
"227 -190 OFFCURVE",
"178 -190 QCURVE SMOOTH",
"47 -190 OFFCURVE",
"47 -110 QCURVE SMOOTH",
"47 -94 OFFCURVE",
"64 -64 OFFCURVE",
"83 -46 OFFCURVE",
"123 -24 OFFCURVE",
"140 -16 OFFCURVE",
"159 -8 QCURVE",
"187 -17 OFFCURVE",
"226 -32 OFFCURVE",
"274 -59 OFFCURVE",
"299 -96 OFFCURVE",
"299 -118 QCURVE SMOOTH"
);
},
{
closed = 1;
nodes = (
"262 398 OFFCURVE",
"294 334 OFFCURVE",
"294 294 QCURVE SMOOTH",
"294 244 OFFCURVE",
"239 156 OFFCURVE",
"197 156 QCURVE SMOOTH",
"168 156 OFFCURVE",
"136 208 OFFCURVE",
"136 247 QCURVE SMOOTH",
"136 303 OFFCURVE",
"191 398 OFFCURVE",
"234 398 QCURVE SMOOTH"
);
},
{
closed = 1;
nodes = (
"178 436 OFFCURVE",
"61 315 OFFCURVE",
"61 231 QCURVE SMOOTH",
"61 195 OFFCURVE",
"106 142 OFFCURVE",
"155 122 OFFCURVE",
"174 122 QCURVE",
"145 115 OFFCURVE",
"74 71 OFFCURVE",
"74 54 QCURVE SMOOTH",
"74 35 OFFCURVE",
"99 18 QCURVE SMOOTH",
"117 6 LINE",
"90 -6 OFFCURVE",
"48 -30 OFFCURVE",
"-1 -66 OFFCURVE",
"-27 -111 OFFCURVE",
"-27 -135 QCURVE SMOOTH",
"-27 -181 OFFCURVE",
"60 -233 OFFCURVE",
"129 -233 QCURVE SMOOTH",
"236 -233 OFFCURVE",
"363 -149 OFFCURVE",
"363 -78 QCURVE SMOOTH",
"363 -46 OFFCURVE",
"324 4 OFFCURVE",
"268 32 OFFCURVE",
"211 51 OFFCURVE",
"172 68 OFFCURVE",
"172 77 QCURVE SMOOTH",
"172 87 OFFCURVE",
"206 110 OFFCURVE",
"267 139 OFFCURVE",
"277 145 QCURVE SMOOTH",
"289 152 OFFCURVE",
"312 172 OFFCURVE",
"347 212 OFFCURVE",
"368 275 OFFCURVE",
"368 312 QCURVE SMOOTH",
"368 328 OFFCURVE",
"362 364 QCURVE",
"362 370 OFFCURVE",
"368 370 QCURVE SMOOTH",
"424 370 LINE",
"428 374 OFFCURVE",
"435 394 OFFCURVE",
"435 401 QCURVE SMOOTH",
"435 409 OFFCURVE",
"429 409 QCURVE SMOOTH",
"386 409 LINE SMOOTH",
"352 409 OFFCURVE",
"280 436 OFFCURVE",
"250 436 QCURVE SMOOTH"
);
}
);
};
color = 3;
layerId = "02396921-8257-42A3-8ED5-3052446F9CE3";
paths = (
{
closed = 1;
nodes = (
"299 -158 OFFCURVE",
"245 -190 OFFCURVE",
"178 -190 CURVE SMOOTH",
"91 -190 OFFCURVE",
"47 -163 OFFCURVE",
"47 -110 CURVE SMOOTH",
"47 -70 OFFCURVE",
"76 -42 OFFCURVE",
"159 -8 CURVE",
"263 -41 OFFCURVE",
"299 -72 OFFCURVE",
"299 -108 CURVE SMOOTH"
);
},
{
closed = 1;
nodes = (
"268 398 OFFCURVE",
"294 353 OFFCURVE",
"294 294 CURVE SMOOTH",
"294 221 OFFCURVE",
"249 156 OFFCURVE",
"197 156 CURVE SMOOTH",
"160 156 OFFCURVE",
"136 192 OFFCURVE",
"136 247 CURVE SMOOTH",
"136 328 OFFCURVE",
"181 398 OFFCURVE",
"234 398 CURVE SMOOTH"
);
},
{
closed = 1;
nodes = (
"150 436 OFFCURVE",
"61 339 OFFCURVE",
"61 241 CURVE SMOOTH",
"61 176 OFFCURVE",
"117 122 OFFCURVE",
"174 122 CURVE",
"121 107 OFFCURVE",
"74 74 OFFCURVE",
"74 54 CURVE SMOOTH",
"74 41 OFFCURVE",
"82 29 OFFCURVE",
"99 18 CURVE SMOOTH",
"117 6 LINE",
"12 -42 OFFCURVE",
"-27 -85 OFFCURVE",
"-27 -135 CURVE SMOOTH",
"-27 -194 OFFCURVE",
"35 -233 OFFCURVE",
"129 -233 CURVE SMOOTH",
"272 -233 OFFCURVE",
"363 -173 OFFCURVE",
"363 -68 CURVE SMOOTH",
"363 -20 OFFCURVE",
"316 14 OFFCURVE",
"249 38 CURVE SMOOTH",
"184 61 OFFCURVE",
"172 68 OFFCURVE",
"172 77 CURVE SMOOTH",
"172 90 OFFCURVE",
"193 105 OFFCURVE",
"258 135 CURVE SMOOTH",
"328 168 OFFCURVE",
"368 233 OFFCURVE",
"368 312 CURVE SMOOTH",
"368 329 OFFCURVE",
"364 354 OFFCURVE",
"353 378 CURVE",
"348 370 LINE",
"424 370 LINE",
"429 375 OFFCURVE",
"435 392 OFFCURVE",
"435 401 CURVE SMOOTH",
"435 406 OFFCURVE",
"433 409 OFFCURVE",
"429 409 CURVE SMOOTH",
"386 409 LINE SMOOTH",
"330 409 OFFCURVE",
"304 436 OFFCURVE",
"250 436 CURVE SMOOTH"
);
}
);
width = 438;
}
);
note = g;
unicode = 0067;
},
